<svg xmlns="http://www.w3.org/2000/svg" role="img" viewBox="-7.93 -7.68 438.36 83.86"><g clip-path="url(#clip0_4_752)"><path fill="#FFB800" d="M84.804 54.408h57v5.024h-57zm280.229 0h57.049v5.024h-57.049z"/><path d="M100.829 26.4594c1.62.0321 3.224-.3213 4.68-1.0311 1.456-.7098 2.722-1.7557 3.695-3.0513l4.501 4.6058c-3.559 3.9777-7.642 5.9665-12.457 5.9665a16.182 16.182 0 0 1-6.3724-1.0463 16.18132 16.18132 0 0 1-5.4559-3.4548 15.07172 15.07172 0 0 1-3.5201-5.2135 15.0726 15.0726 0 0 1-1.0857-6.1962 15.38704 15.38704 0 0 1 1.1397-6.2545 15.3872 15.3872 0 0 1 3.5707-5.25995 16.89485 16.89485 0 0 1 5.7624-3.56785A16.89603 16.89603 0 0 1 101.988.94009c2.279.11739 4.511.69539 6.561 1.69913 2.049 1.00374 3.875 2.41239 5.365 4.14095L109.622 11.7c-.945-1.273-2.177-2.30584-3.595-3.015-1.419-.70916-2.984-1.07481-4.57-1.06742-2.4713-.04756-4.8678.85114-6.6988 2.51222a8.7727 8.7727 0 0 0-2.1847 3.1387 8.7722 8.7722 0 0 0-.6416 3.77 9.42014 9.42014 0 0 0 .582 3.7777 9.41968 9.41968 0 0 0 2.0349 3.2356c1.7223 1.5541 3.9609 2.4122 6.2802 2.4076zm18.318 6.0712V1.44165h6.909V26.3547h13.294v6.1759h-20.203zm50.56-4.2916c-3.146 2.9588-7.301 4.6062-11.62 4.6062-4.318 0-8.473-1.6474-11.619-4.6062-1.534-1.4709-2.744-3.245-3.555-5.2093-.811-1.9643-1.205-4.0759-1.155-6.2005-.059-2.1258.329-4.2404 1.141-6.2061a15.17168 15.17168 0 0 1 3.569-5.20365c3.146-2.9588 7.301-4.60622 11.619-4.60622 4.319 0 8.474 1.64742 11.62 4.60622 1.533 1.4709 2.744 3.24494 3.555 5.20925.811 1.9643 1.204 4.0759 1.155 6.2005.059 2.1259-.33 4.2404-1.141 6.2061a15.17197 15.17197 0 0 1-3.569 5.2037zm-2.408-11.4098c.019-2.6303-.952-5.1716-2.722-7.11801a8.88191 8.88191 0 0 0-2.986-2.16428 8.88689 8.88689 0 0 0-7.216 0c-1.136.50463-2.154 1.24194-2.987 2.16428-1.789 1.93401-2.764 4.48351-2.721 7.11801-.02 2.6304.952 5.1716 2.721 7.118.833.9224 1.851 1.6597 2.987 2.1643 1.136.5046 2.365.7654 3.608.7654 1.243 0 2.472-.2608 3.608-.7654a8.88074 8.88074 0 0 0 2.986-2.1643 9.77354 9.77354 0 0 0 2.082-3.2832c.468-1.2226.685-2.5266.64-3.8348zm21.249 7.7458c.553.7159 1.269 1.2891 2.088 1.6715.82.3825 1.719.5631 2.623.5267.89.0473 1.778-.1291 2.582-.5131.805-.3839 1.5-.9633 2.023-1.6851a9.27595 9.27595 0 0 0 1.675-5.8619V1.54614h6.909V18.9225c0 4.5011-1.256 7.9554-3.768 10.363a13.1963 13.1963 0 0 1-4.394 2.7905c-1.636.629-3.38.9259-5.132.8732-1.767.0527-3.528-.2437-5.18-.8724a13.43187 13.43187 0 0 1-4.45-2.7913c-2.513-2.4076-3.769-5.8619-3.769-10.363V1.54614h6.909V18.7131c-.002 2.1032.657 4.1539 1.884 5.8619zm48.884-19.05096c2.931 2.7216 4.501 6.48996 4.501 11.30506 0 4.8152-1.465 8.6882-4.291 11.5145-2.827 2.8262-7.328 4.187-13.19 4.187h-10.781V1.44165h10.991c5.548 0 9.839 1.3608 12.77 4.08239zm-5.024 18.52776c1.675-1.5701 2.512-3.9777 2.512-7.0133s-.837-5.4432-2.512-7.0134c-1.675-1.57011-4.292-2.5122-7.851-2.5122h-3.873v18.9465h4.396c2.658.1416 5.272-.7174 7.328-2.4076zm48.988-22.61015h6.909V32.5306h-6.909l-14.864-19.4698v19.4698h-6.908V1.44165h6.489l15.283 19.99325V1.44165zm36.742 31.08895l-2.931-6.6993h-13.084l-2.931 6.6993h-7.432l13.398-31.08895h6.699l13.399 31.08895h-7.118zm-9.316-21.7727l-3.873 9.0022h7.746l-3.873-9.0022zm31.298-3.24519V32.6351h-6.909V7.51271h-8.793V1.54614h24.599v5.96657h-8.897zm13.818-6.07106h6.908V32.5306h-6.908V1.44165zm26.064 19.78385l7.955-19.78385h7.537L383.037 32.5306h-5.861L364.719 1.44165h7.537l7.746 19.78385zm41.557-19.78385v6.17593h-15.493v6.38532h13.922v5.9665h-13.922v6.49h16.016v6.1759h-22.924V1.54633h22.401v-.10468zM10.0744 45.4368H.54883v22.3694H22.845v-9.6198H10.0744V45.4368zm47.942.1046v12.645H45.2458v9.6198H67.542V45.4368h-9.6303l.1047.1046zM.54883 23.1826h9.63027l-.1047-.1046V10.433H22.845V.81323H.54883V23.1826zM45.2458.81323V10.433h12.7706v12.7496h9.5256V.81323H45.2458z"/><path d="M43.9897 23.1826L31.2191 10.433h14.0267V.81323H22.845V10.433l12.7705 12.7496h8.3742zM32.4752 45.4368h-8.3741l10.5723 10.5618 2.0936 2.1878H22.845v9.6198h22.4008v-9.7245l-6.3853-6.2806-6.3853-6.3643zm25.541-22.2542v13.9011l-2.1983-2.1982-10.5723-10.5619v8.4683l6.2806 6.2806 6.3853 6.3748h9.6302V23.1826h-9.5255zM22.845 35.8276l-12.6659-12.645H.54883v22.2543h9.52557V31.5358L22.845 44.2959v-8.4683z" opacity=".65"/><path d="M166.031 65.4473h4.823l-6.833-17.2591h-4.824l-6.833 17.2591h4.824l1.055-2.6379h6.733l1.055 2.6379zm-6.507-5.8787l2.085-5.3008 2.085 5.3008h-4.17zm14.474 5.8787h4.296v-5.4014h3.718c3.819 0 6.557-2.4368 6.557-5.9288 0-3.4921-2.738-5.9289-6.557-5.9289h-8.014v17.2591zm4.296-9.3204v-4.0196h3.341c1.482 0 2.512.8039 2.512 2.0098 0 1.2058-1.03 2.0098-2.512 2.0098h-3.341zm13.772 9.3204h4.296v-5.4014h3.718c3.819 0 6.557-2.4368 6.557-5.9288 0-3.4921-2.738-5.9289-6.557-5.9289h-8.014v17.2591zm4.296-9.3204v-4.0196h3.342c1.482 0 2.512.8039 2.512 2.0098 0 1.2058-1.03 2.0098-2.512 2.0098h-3.342zm21.096 9.3204h6.305c5.929 0 10.125-3.5925 10.125-8.6421s-4.196-8.617-10.125-8.617h-6.305v17.2591zm4.296-3.894v-9.4712h2.663c2.964 0 5.049 1.9596 5.049 4.7231 0 2.7634-2.085 4.7481-5.049 4.7481h-2.663zm29.302-9.5214v-3.8437h-13.592v17.2591h13.592v-3.8438h-9.296v-3.0398h8.441V54.72h-8.441v-2.6881h9.296zm8.208 9.5716V48.1882h-4.295v17.2591h12.611v-3.8438h-8.316zm11.688 3.8438h4.296V48.1882h-4.296v17.2591zm21.129-17.2591l-4.396 11.1292-4.422-11.1292h-4.823l6.808 17.2591h4.848l6.809-17.2591h-4.824zm21.607 3.8437v-3.8437h-13.591v17.2591h13.591v-3.8438h-9.295v-3.0398h8.441V54.72h-8.441v-2.6881h9.295zm18.584 13.4154l-4.095-5.8033c2.437-.8542 3.995-2.8891 3.995-5.5269 0-3.4921-2.738-5.9289-6.557-5.9289h-8.014v17.2591h4.296v-5.4014h1.708l3.794 5.4014h4.873zm-10.375-13.34h3.341c1.482 0 2.512.8039 2.512 2.0098 0 1.2058-1.03 2.0098-2.512 2.0098h-3.341v-4.0196zm19.293 13.34h4.321v-5.954l6.683-11.3051h-4.773l-4.07 7.2855-3.894-7.2855h-4.949l6.682 11.3051v5.954z"/></g><defs><clipPath id="clip0_4_752"><path fill="#fff" d="M0 0h422.161v66.993H0z" transform="translate(.549 .813)"/></clipPath></defs></svg>