<svg xmlns="http://www.w3.org/2000/svg" role="img" viewBox="-25.48 -25.48 1324.96 252.96"><g clip-path="url(#clip0_643_6)"><path fill="#00C4A0" d="M254.702 162.208h277.735v15.189H254.702zm741.851 0h277.74v15.189h-277.74z"/><path d="M303.149 77.9282c4.896.0971 9.744-.9713 14.146-3.117 4.401-2.1458 8.23-5.3074 11.169-9.224l13.607 13.9232c-10.759 12.0246-23.1 18.037-37.656 18.037-6.569.2506-13.121-.8252-19.264-3.163-6.144-2.3379-11.754-5.8898-16.494-10.4439A45.56323 45.56323 0 0 1 258.016 68.18c-2.399-5.9434-3.518-12.3261-3.282-18.7311-.18-6.4736.993-12.9135 3.445-18.9074 2.452-5.9938 6.129-11.4097 10.795-15.9008 5.018-4.73489 10.944-8.4039 17.419-10.78556C292.869 1.47348 299.76.42855 306.65.78342c6.89.35488 13.637 2.10219 19.834 5.13648a51.0616 51.0616 0 0 1 16.219 12.5181L329.73 33.3105c-2.859-3.8483-6.582-6.9704-10.87-9.1142-4.287-2.1438-9.019-3.2492-13.813-3.2268-7.472-.1438-14.716 2.573-20.252 7.5945a26.5244 26.5244 0 0 0-6.604 9.4883 26.50644 26.50644 0 0 0-1.939 11.3966c-.2 3.8869.398 7.7736 1.759 11.4201 1.361 3.6465 3.454 6.9754 6.152 9.7812 5.206 4.6978 11.973 7.2919 18.986 7.278zm55.375 18.3535V2.2998h20.885v75.3121h40.188v18.6698h-61.073zm152.839-12.9738c-9.508 8.9444-22.07 13.9246-35.125 13.9246-13.054 0-25.616-4.9802-35.124-13.9246-4.637-4.4465-8.297-9.8095-10.749-15.7476-2.452-5.9382-3.64-12.3216-3.491-18.7441-.179-6.4265.997-12.8187 3.45-18.7611 2.453-5.9424 6.129-11.3021 10.79-15.7306C450.622 5.38004 463.184.3999 476.238.3999c13.055 0 25.617 4.98014 35.125 13.9246 4.637 4.4465 8.297 9.8094 10.749 15.7476 2.452 5.9381 3.64 12.3215 3.491 18.7441.179 6.4264-.997 12.8186-3.45 18.7611-2.453 5.9424-6.129 11.3021-10.79 15.7306zm-7.278-34.4917c.059-7.9516-2.879-15.6337-8.227-21.5178a26.86902 26.86902 0 0 0-9.029-6.5426 26.86368 26.86368 0 0 0-10.907-2.3137c-3.757 0-7.473.7882-10.907 2.3137-3.434 1.5255-6.51 3.7544-9.028 6.5426-5.41 5.8466-8.357 13.5537-8.228 21.5178-.058 7.9515 2.879 15.6337 8.228 21.5177 2.518 2.7883 5.594 5.0172 9.028 6.5427a26.86717 26.86717 0 0 0 10.907 2.3137c3.758 0 7.473-.7882 10.907-2.3137a26.86793 26.86793 0 0 0 9.029-6.5427c2.74-2.8542 4.88-6.2292 6.294-9.9252 1.413-3.696 2.07-7.6379 1.933-11.5925zm64.235 23.4163c1.67 2.1641 3.835 3.8968 6.312 5.0529 2.478 1.1561 5.196 1.7021 7.928 1.5922 2.691.143 5.375-.3903 7.807-1.551 2.432-1.1608 4.535-2.9121 6.116-5.0941 3.634-5.1686 5.418-11.4122 5.063-17.7205V2.61621h20.885V55.1448c0 13.6068-3.797 24.0493-11.392 31.3273-3.823 3.6664-8.339 6.5342-13.283 8.4358-4.944 1.9016-10.218 2.7989-15.513 2.6396-5.342.1594-10.664-.7367-15.659-2.6372-4.996-1.9005-9.567-4.768-13.453-8.4382-7.594-7.278-11.392-17.7205-11.392-31.3273V2.61621h20.885V54.512c-.006 6.3579 1.986 12.5571 5.696 17.7205zm147.779-57.5916c8.86 8.2273 13.607 19.6191 13.607 34.1752 0 14.5561-4.43 26.2643-12.974 34.8081-8.544 8.5439-22.151 12.6575-39.871 12.6575h-32.593V2.2998h33.226c16.771 0 29.745 4.11369 38.605 12.3411zM700.91 70.6503c5.063-4.7465 7.594-12.0246 7.594-21.2013s-2.531-16.4548-7.594-21.2013c-5.063-4.7466-12.974-7.5945-23.733-7.5945h-11.708v57.2752h13.29c8.034.428 15.937-2.1686 22.151-7.2781zM849.003 2.2998h20.885v93.9819h-20.885l-44.934-58.8573v58.8573h-20.885V2.2998h19.619l46.2 60.4396V2.2998zm111.069 93.9819l-8.86-20.252h-39.555l-8.86 20.252H880.33l40.504-93.9819h20.252l40.504 93.9819h-21.518zm-28.163-65.819l-11.708 27.2137h23.417l-11.709-27.2137zm94.611-9.8096v75.9451h-20.88V20.6531h-26.581V2.61621h74.361V20.6531h-26.9zm41.77-18.3533h20.89v93.9819h-20.89V2.2998zm78.79 59.8067l24.05-59.8067h22.79l-37.66 93.9819h-17.72l-37.66-93.9819h22.79l23.41 59.8067zm125.63-59.8067v18.6698h-46.83v19.3027h42.08v18.0369h-42.08v19.6192h48.41v18.6698h-69.3V2.61624h67.72V2.2998zM28.7958 135.297H0v67.623h67.4012v-29.081H28.7958v-38.542zm144.9292.317v38.225H135.12v29.081h67.401v-67.623h-29.112l.316.317zM0 68.0226h29.1123l-.3165-.3164V29.4805h38.6054V.3999H0v67.6227zM135.12.3999v29.0806h38.605v38.5421h28.796V.3999H135.12z"/><path d="M131.321 68.0226L92.7154 29.4805h42.4026V.3999H67.4004v29.0806l38.6056 38.5421h25.315zM96.5126 135.297h-25.315l31.9604 31.929 6.329 6.613H67.4004v29.081h67.7176v-29.397l-19.303-18.986-19.3024-19.24zm77.2124-67.2745v42.0225l-6.645-6.645-31.96-31.9284v25.5998l18.986 18.9866 19.303 19.271h29.112V68.0225h-28.796zM67.4012 106.248L29.1123 68.0225H0v67.2745h28.7958V93.2742l38.6054 38.5738v-25.6z" opacity=".65"/><path d="M585.441 196.24c12.911 0 20.885-6.531 20.885-17.011 0-9.797-7.519-13.139-19.214-15.645-7.747-1.671-10.253-2.734-10.253-5.924 0-2.582 2.355-4.556 6.532-4.556 4.86 0 10.1 1.898 14.885 5.544l6.607-9.266c-5.544-4.556-12.379-7.138-21.189-7.138-11.847 0-19.897 6.683-19.897 16.707 0 10.481 8.278 13.519 19.442 16.025 7.594 1.823 10.024 2.506 10.024 5.62 0 2.81-2.506 4.784-7.366 4.784-6.38 0-12.076-2.43-17.164-6.607l-7.366 8.734c6.379 5.696 14.809 8.733 24.074 8.733zm72.682-41.466v-11.619h-41.086v52.174h41.086V183.71h-28.099v-9.19h25.517v-11.619h-25.517v-8.127h28.099zm37.119 41.466c8.126 0 15.493-3.493 20.657-9.037l-9.417-8.354c-2.734 3.418-6.759 5.62-11.24 5.62-7.974 0-14.733-6.987-14.733-15.265 0-8.202 6.759-15.189 14.733-15.189 4.405 0 8.506 2.202 11.164 5.62l9.493-8.43c-5.164-5.468-12.531-8.961-20.657-8.961-15.265 0-28.1 12.303-28.1 26.96s12.835 27.036 28.1 27.036zm53.68 0c14.277 0 24.226-9.796 24.226-23.77v-29.315h-12.911v28.707c0 7.367-4.708 12.607-11.315 12.607-6.532 0-11.24-5.24-11.24-12.607v-28.707h-12.987v29.315c0 13.974 10.025 23.77 24.227 23.77zm81.151-.911l-12.379-17.543c7.367-2.582 12.075-8.734 12.075-16.708 0-10.556-8.278-17.923-19.821-17.923h-24.227v52.174h12.987v-16.328h5.164l11.468 16.328h14.733zm-31.365-40.327h10.1c4.481 0 7.595 2.431 7.595 6.076 0 3.645-3.114 6.076-7.595 6.076h-10.1v-12.152zm42.376 40.327h12.986v-52.174h-12.986v52.174zm38.964 0h12.986v-40.555h15.873v-11.619h-44.656v11.619h15.797v40.555zm55.003 0h13.063V177.33l20.201-34.175h-14.43l-12.303 22.024-11.771-22.024H914.85l20.201 34.175v17.999z"/></g><defs><clipPath id="clip0_643_6"><path fill="#fff" d="M0 0h1276.19v202.52H0z" transform="translate(0 .4)"/></clipPath></defs></svg>