<svg id="Layer_1" data-name="Layer 1" xmlns="http://www.w3.org/2000/svg" viewBox="0 0 360 360"><defs><style>.cls-1{opacity:0.8;}.cls-2{fill:#fff;}</style></defs><title>sig-security-icon-black</title><g class="cls-1"><polygon points="178.457 74.919 291.334 137.183 291.334 72.396 291.302 69.461 178.676 6.842 178.238 6.842 65.712 69.405 65.712 137.11 178.457 74.919"/><polygon points="178.457 285.369 65.712 223.178 65.712 290.883 178.238 353.446 178.676 353.446 291.302 290.827 291.334 287.892 291.334 223.105 178.457 285.369"/></g><polygon points="238.579 120.474 248.015 120.079 251.071 130.071 248.015 120.079 238.579 120.474"/><polygon class="cls-2" points="93.714 104.937 103.766 115.764 106.711 130.071 109.767 120.079 119.203 120.474 112.873 107.512 127.94 103.317 93.494 85.441 104.061 103.317 93.714 104.937"/><polygon class="cls-2" points="237.728 120.474 247.164 120.079 250.221 130.071 253.164 115.764 263.215 104.937 252.871 103.317 263.435 85.441 228.991 103.317 244.059 107.512 237.728 120.474"/><path d="M147.5303,216.58661s15.414-9.97587,14.43431-25.61554c-.09365-1.49741,1.05335-15.81372-13.34695-21.747-14.76573-6.084-31.42011,3.20865-39.45269,6.22679a16.49923,16.49923,0,0,0-5.845,4.13662c-.483.49712-1.023,1.05252-.53644,1.80314.38556.59528,1.07027.4799,1.64888.40181.59093-.07985,1.15561-.33018,1.7442-.44668.93109-.18457,2.05114-.921,2.7129.23148.60678,1.05673-.31228,1.85577-1.03967,2.51218a52.77,52.77,0,0,1-10.9742,7.19678,24.80277,24.80277,0,0,1-16.9491,2.28222,22.59892,22.59892,0,0,1-11.4987-7.16317c-.39432-.39459-.7301-1.08669-1.44587-.82034-.70756.26321-.50328.98676-.52,1.53953a13.61618,13.61618,0,0,0,1.63948,6.8011c4.12157,7.90625,11.07935,12.82822,18.81567,16.82906l68.425,40.84319C149.20318,243.43732,133.10562,229.75977,147.5303,216.58661Zm-22.90777-31.56735a4.12318,4.12318,0,0,1,.30366-4.274,12.48522,12.48522,0,0,1,10.96752-4.72138,18.28935,18.28935,0,0,1,5.15932.55825,17.85359,17.85359,0,0,1,12.55037,11.22075,3.3809,3.3809,0,0,1-.60007,3.34592,12.677,12.677,0,0,1-10.804,4.70674,20.5953,20.5953,0,0,1-10.82464-2.91621A17.07242,17.07242,0,0,1,124.62253,185.01926Z"/><path d="M289.949,185.58493c-.716-.26634-1.05151.42589-1.44587.82033a22.59852,22.59852,0,0,1-11.4987,7.16318,24.8028,24.8028,0,0,1-16.94911-2.28222,52.76437,52.76437,0,0,1-10.97422-7.19678c-.72724-.65641-1.64642-1.45547-1.03979-2.51219.66176-1.15247,1.78192-.41606,2.713-.23148.58844.11651,1.15325.36684,1.74419.44669.57876.07807,1.26335.19347,1.6489-.40181.48632-.75063-.0536-1.306-.53645-1.80314a16.5022,16.5022,0,0,0-5.845-4.13669c-8.03257-3.0182-24.687-12.31083-39.45278-6.22686-14.40027,5.93332-13.25328,20.24963-13.3471,21.74705-.97963,15.63968,14.43431,25.61554,14.43431,25.61554,14.42489,13.1733-1.67269,26.85071-7.81163,35.01112l68.425-40.843c7.7363-4.00092,14.6941-8.923,18.81568-16.82917a13.61616,13.61616,0,0,0,1.63946-6.801C290.45227,186.57168,290.65653,185.84814,289.949,185.58493Zm-57.64074-.56567a17.071,17.071,0,0,1-6.752,7.92005,20.59542,20.59542,0,0,1-10.82454,2.91611,12.67715,12.67715,0,0,1-10.80413-4.70674,3.38111,3.38111,0,0,1-.59994-3.34592A17.85329,17.85329,0,0,1,215.87788,176.582a18.29123,18.29123,0,0,1,5.15959-.55825,12.48552,12.48552,0,0,1,10.96739,4.72139A4.123,4.123,0,0,1,232.30826,185.01926Z"/><path d="M76.43742,172.30334c-1.50221,1.971-3.74422,3.38586-4.9087,5.96982a15.51721,15.51721,0,0,0,8.49074-2.54212A112.20345,112.20345,0,0,0,92.24581,166.642c1.18854-1.0212,3.30655-2.00835,2.98921-3.39883-.32881-1.44067-2.67352-1.06836-4.15957-1.41879-.66-.15574-1.5153-.08709-1.62362-.99262-.09761-.81644.59353-1.19607,1.20126-1.53788,10.96877-6.16874,26.93371-12.57624,44.351-8.18912l-2.89077-7.52139s21.65542,12.77064,41.64636,16.0802c1.58271.262,3.1556.469,4.70579.60131,1.55018-.13235,3.12307-.33935,4.7058-.60131,19.99094-3.30957,41.64637-16.08021,41.64637-16.08021l-2.89086,7.52138c17.41748-4.387,33.38231,2.02045,44.351,8.18913.60762.3418,1.29876.72148,1.20125,1.53787-.10827.90553-.96377.83688-1.62359.99262-1.486.35051-3.83089-.02188-4.15957,1.41879-.31749,1.39049,1.80065,2.37765,2.98922,3.39884a112.19169,112.19169,0,0,0,12.22635,9.08906,15.517,15.517,0,0,0,8.49073,2.54212c-1.16448-2.58393-3.40649-3.99879-4.90882-5.96981-1.4977-1.965-3.16081-3.81012-4.65248-5.77912-1.09365-1.44354-.51805-2.24064,1.23245-2.07905,1.59517.14713,3.17065.50226,4.75406.77005.85507.14465,1.868.72271,2.42495-.33525.46165-.87683-.12634-1.70866-.68881-2.40734-1.73941-2.16076-3.53-4.28222-5.25927-6.45067-1.66747-2.09066-3.2278-4.26445-4.9318-6.32571-5.45339-6.59615-5.6712-14.02441-2.75116-21.41973a97.1239,97.1239,0,0,0,5.80477-44.2808c-.23724-2.93444-.37461-5.87849-.6787-8.80631-.57193-5.50851-3.836-8.625-9.492-9.323-5.12268-.63222-9.65263,1.28371-14.29459,2.90594-12.36336,4.3201-29.86877,17.58406-40.379,26.59108-.64424.55209-1.26894,1.0923-1.85782,1.60934l-31.25846-.78153-31.25843.78153c-.58888-.51709-1.21358-1.0573-1.858-1.60934-10.5101-9.00709-28.01553-22.27105-40.37888-26.59107-4.6421-1.62217-9.1719-3.53816-14.29458-2.906-5.656.698-8.9202,3.81449-9.492,9.323-.30409,2.92781-.44149,5.87179-.67871,8.80631a97.12221,97.12221,0,0,0,5.80465,44.2808c2.92,7.39531,2.70223,14.82357-2.75119,21.41972-1.704,2.06126-3.26443,4.23506-4.9318,6.32571-1.72929,2.16845-3.51983,4.29-5.25925,6.45067-.5625.69866-1.15054,1.53051-.68883,2.40734.557,1.05794,1.56989.4799,2.425.33525,1.5834-.26786,3.15885-.62292,4.75406-.77005,1.75041-.16159,2.3261.63551,1.23242,2.07905C79.59834,168.49323,77.93518,170.33834,76.43742,172.30334ZM263.43614,85.44178l-10.566,17.87444,10.346,1.6199-10.05162,10.82729-2.94385,14.30741-3.05688-9.99118-9.43635.3939,6.33119-12.96165-15.06814-4.19567Zm-135.4957,17.87444-15.06819,4.19567,6.33119,12.96165-9.43647-.394-3.0569,9.99131-2.9437-14.30745L93.71478,104.93609l10.34583-1.6199-10.566-17.87444Z"/><path d="M196.15806,220.72609a31.29238,31.29238,0,0,0-17.69261-6.37,31.29248,31.29248,0,0,0-17.6926,6.37,6.2165,6.2165,0,0,0-2.636,6.04324,6.01469,6.01469,0,0,0,3.32556,5.469,4.85041,4.85041,0,0,0,1.73475.6478c1.12593.09434,2.28549.03911,4.18543.032h.02065c.11019-.0004.19645-.00213.31172-.00213,3.28413-.70866,6.17969,1.984,8.44947,6.8285.79888,1.70468,1.55113,2.62813,2.30106,2.85946.74994-.23133,1.50221-1.15478,2.301-2.85946,2.26991-4.84457,5.16546-7.53724,8.44945-6.8285.11541,0,.20167.00164.31187.00213h.02064c1.9.007,3.05949.06223,4.18543-.032a4.85052,4.85052,0,0,0,1.73476-.6478,6.01494,6.01494,0,0,0,3.32556-5.469A6.21674,6.21674,0,0,0,196.15806,220.72609Z"/></svg>