<svg xmlns="http://www.w3.org/2000/svg" viewBox="-10.24 -10.24 531.98 532.48"><g opacity=".8"><style>path{fill:#000}@media (prefers-color-scheme:light){path{fill:#000}}@media (prefers-color-scheme:dark){path{fill:#fff}}</style><path class="svg" d="M331.999 171.192l-97.6-97.387h107.2V.365h-171.2v73.44l97.6 97.387h64zm-88 170.028h-64l80.8 80.624 16 16.763h-106.4v73.44h171.2v-74.238l-48.8-47.895-48.8-48.694zm195.202-170.028V277.36l-16.88-16.764-80.8-80.623v64.658l48 47.896 48.8 48.693h73.6V171.192h-72.72zM170.4 267.781l-96.8-96.589H0V341.22h72.8V235.052l97.6 97.387v-64.658z" opacity=".8"/><path class="svg" d="M72.8 341.22H0v170.827h170.4v-73.121H72.8V341.22zm366.4.798v96.908h-97.6v73.44H512V341.22h-73.68l.88.798zM0 171.192h73.6l-.8-.798V73.805h97.6V.365H0v170.827zM341.6.366v73.44h97.6v97.386H512V.366H341.6z"/></g></svg>