<svg xmlns="http://www.w3.org/2000/svg" role="img" viewBox="58.57 -0.18 239.61 360.36"><defs><style>.cls-6{fill:#141419}</style></defs><path fill="none" d="M65.712 137.11v86.918l112.745 62.191 112.877-62.264v-86.772L178.457 74.919 65.712 137.11z"/><path fill="#4a6ca4" d="M178.457 74.919l112.877 62.264V72.396l-.032-2.935L178.676 6.842h-.438L65.712 69.405v67.705l112.745-62.191z"/><path fill="#85c2d2" d="M178.457 285.369L65.712 223.178v67.705l112.526 62.563h.438l112.626-62.619.032-2.935v-64.787l-112.877 62.264z"/><path fill="#444445" d="M238.579 120.474l9.436-.395 3.056 9.992-3.056-9.992-9.436.395z"/><path fill="#fff" d="M93.714 104.937l10.052 10.827 2.945 14.307 3.056-9.992 9.436.395-6.33-12.962 15.067-4.195-34.446-17.876 10.567 17.876-10.347 1.62zm144.014 15.537l9.436-.395 3.057 9.992 2.943-14.307 10.051-10.827-10.344-1.62 10.564-17.876-34.444 17.876 15.068 4.195-6.331 12.962z"/><path d="M147.5303 216.58661s15.414-9.97588 14.43431-25.61554c-.09364-1.49741 1.05335-15.81372-13.34695-21.747-14.76573-6.084-31.42011 3.20864-39.45269 6.22679a16.49919 16.49919 0 00-5.845 4.13662c-.483.49712-1.023 1.05252-.53644 1.80315.38556.59528 1.07027.4799 1.64888.40181.59093-.07985 1.15561-.33018 1.7442-.44669.93109-.18457 2.05114-.921 2.7129.23148.60678 1.05673-.31228 1.85577-1.03967 2.51218a52.76924 52.76924 0 01-10.9742 7.19677 24.80276 24.80276 0 01-16.9491 2.28223 22.59891 22.59891 0 01-11.4987-7.16318c-.39432-.39459-.7301-1.08668-1.44587-.82034-.70756.26321-.50328.98676-.52 1.53954a13.6161 13.6161 0 001.63948 6.8011c4.12156 7.90625 11.07935 12.82821 18.81567 16.829l68.425 40.84319c-6.13893-8.1604-22.2365-21.83795-7.81182-35.01111zm-22.90776-31.56735a4.12319 4.12319 0 01.30365-4.274 12.48522 12.48522 0 0110.96752-4.72137 18.28927 18.28927 0 015.15931.55824 17.85359 17.85359 0 0112.55037 11.22075 3.38093 3.38093 0 01-.60006 3.34592 12.67705 12.67705 0 01-10.804 4.70674 20.59534 20.59534 0 01-10.82465-2.91621 17.07236 17.07236 0 01-6.75214-7.92007zm165.32646.56567c-.716-.26634-1.05152.42589-1.44587.82033a22.59852 22.59852 0 01-11.49868 7.16318 24.80282 24.80282 0 01-16.9491-2.28223 52.76469 52.76469 0 01-10.97421-7.19678c-.72724-.6564-1.64643-1.45547-1.0398-2.51219.66176-1.15247 1.78192-.41606 2.713-.23148.58844.11652 1.15324.36684 1.74419.44669.57876.07806 1.26335.19347 1.64889-.40181.48631-.75063-.0536-1.306-.53645-1.80315a16.50215 16.50215 0 00-5.845-4.13668c-8.03258-3.01821-24.687-12.31084-39.45278-6.22687-14.40027 5.93332-13.25328 20.24963-13.34711 21.74705-.97962 15.63968 14.43432 25.61554 14.43432 25.61554 14.42489 13.1733-1.67269 26.85071-7.81163 35.01113l68.425-40.843c7.7363-4.00091 14.6941-8.923 18.81568-16.82917a13.61624 13.61624 0 001.63946-6.801c-.01664-.5528.18761-1.27635-.51991-1.53956zm-57.64075-.56567a17.07106 17.07106 0 01-6.752 7.92 20.5956 20.5956 0 01-10.82454 2.91611 12.67719 12.67719 0 01-10.80412-4.70674 3.38114 3.38114 0 01-.6-3.34592 17.85331 17.85331 0 0112.55029-11.22071 18.29129 18.29129 0 015.1596-.55824 12.48551 12.48551 0 0110.96739 4.72139 4.123 4.123 0 01.30339 4.27411z" class="cls-6"/><path d="M76.43742 172.30334c-1.50221 1.971-3.74421 3.38587-4.9087 5.96982a15.5172 15.5172 0 008.49074-2.54211 112.20231 112.20231 0 0012.22635-9.08905c1.18854-1.0212 3.30655-2.00835 2.98921-3.39884-.32881-1.44067-2.67352-1.06836-4.15957-1.41879-.66-.15575-1.51529-.0871-1.62361-.99261-.09761-.81644.59352-1.19608 1.20126-1.53788 10.96877-6.16874 26.93371-12.57623 44.351-8.18911l-2.89076-7.5214s21.65543 12.77065 41.64636 16.0802c1.58271.262 3.1556.469 4.7058.60131 1.55019-.13236 3.12308-.33936 4.7058-.60131 19.99093-3.30957 41.64636-16.08021 41.64636-16.08021l-2.89086 7.52138c17.41748-4.387 33.38231 2.02044 44.351 8.18913.60761.3418 1.29877.72148 1.20126 1.53787-.10827.90553-.96377.83688-1.62359.99262-1.486.35051-3.8309-.02189-4.15958 1.41879-.3175 1.39049 1.80066 2.37765 2.98923 3.39883a112.19371 112.19371 0 0012.22635 9.08907 15.51692 15.51692 0 008.49072 2.54211c-1.16449-2.58392-3.40649-3.99879-4.90881-5.9698-1.49771-1.965-3.1608-3.81012-4.65247-5.77911-1.09366-1.44355-.518-2.24065 1.23245-2.07906 1.59519.14713 3.17066.50226 4.75406.77.85508.14465 1.868.72272 2.425-.33525.46164-.87683-.12634-1.70866-.68881-2.40733-1.73941-2.16077-3.53-4.28223-5.25928-6.45067-1.66748-2.09065-3.22781-4.26445-4.93179-6.32572-5.4534-6.59614-5.67121-14.02441-2.75116-21.41972a97.12429 97.12429 0 005.80478-44.2808c-.23725-2.93444-.37461-5.87849-.67871-8.80631-.57193-5.50851-3.836-8.625-9.492-9.323-5.12268-.63222-9.65262 1.28371-14.29458 2.90594-12.36336 4.3201-29.86878 17.58406-40.379 26.59108-.64424.55209-1.26894 1.0923-1.85782 1.60933l-31.25845-.78153-31.25843.78153c-.58888-.51709-1.21357-1.05729-1.858-1.60933-10.5101-9.00709-28.01553-22.27105-40.37887-26.59108-4.6421-1.62216-9.1719-3.53816-14.29458-2.906-5.656.698-8.92021 3.81449-9.492 9.323-.30409 2.92782-.44149 5.87179-.67871 8.80632a97.12217 97.12217 0 005.80465 44.28079c2.92 7.39531 2.70223 14.82358-2.75119 21.41972-1.704 2.06127-3.26443 4.23506-4.9318 6.32572-1.7293 2.16845-3.51983 4.29-5.25925 6.45067-.5625.69865-1.15054 1.53051-.68883 2.40733.557 1.05794 1.5699.4799 2.425.33525 1.58339-.26785 3.15885-.62293 4.75405-.77 1.75042-.16159 2.32611.63551 1.23243 2.07906-1.49173 1.96904-3.15489 3.81414-4.65265 5.77915zm186.99871-86.86156l-10.566 17.87444 10.346 1.61991-10.05162 10.82728-2.94385 14.30741-3.05689-9.99118-9.43635.39389 6.33119-12.96164-15.06815-4.19567zm-135.4957 17.87444l-15.06819 4.19567 6.33119 12.96165-9.43647-.394-3.0569 9.99132-2.9437-14.30745-10.05158-10.82732 10.34584-1.61991-10.566-17.87444zm68.21764 117.40987a31.29246 31.29246 0 00-17.69262-6.37 31.29251 31.29251 0 00-17.69259 6.37 6.2165 6.2165 0 00-2.636 6.04324 6.01469 6.01469 0 003.32556 5.469 4.85039 4.85039 0 001.73475.64779c1.12593.09435 2.2855.03911 4.18543.032h.02064c.11019-.0004.19646-.00213.31173-.00213 3.28413-.70867 6.17968 1.984 8.44946 6.8285.79887 1.70468 1.55113 2.62813 2.30105 2.85947.74994-.23133 1.50222-1.15479 2.301-2.85947 2.26991-4.84457 5.16547-7.53725 8.44945-6.8285.11541 0 .20167.00163.31187.00213h.02065c1.9.007 3.05949.06223 4.18542-.032a4.85037 4.85037 0 001.73476-.64779 6.01494 6.01494 0 003.32556-5.469 6.21676 6.21676 0 00-2.63612-6.04324z" class="cls-6"/></svg>