<?xml version="1.0" encoding="UTF-8" standalone="no"?> <!-- Created with Vectornator for iOS (http://vectornator.io/) --><!DOCTYPE svg PUBLIC "-//W3C//DTD SVG 1.1//EN" "http://www.w3.org/Graphics/SVG/1.1/DTD/svg11.dtd">
<svg height="100%" style="fill-rule:nonzero;clip-rule:evenodd;stroke-linecap:round;stroke-linejoin:round;" xmlns:xlink="http://www.w3.org/1999/xlink" xmlns="http://www.w3.org/2000/svg" xml:space="preserve" width="100%" xmlns:vectornator="http://vectornator.io" version="1.1" viewBox="0 0 170 170">
<metadata>
<vectornator:setting key="DimensionsVisible" value="0"/>
<vectornator:setting key="PencilOnly" value="0"/>
<vectornator:setting key="SnapToPoints" value="0"/>
<vectornator:setting key="OutlineMode" value="0"/>
<vectornator:setting key="CMYKEnabledKey" value="0"/>
<vectornator:setting key="RulersVisible" value="1"/>
<vectornator:setting key="SnapToEdges" value="0"/>
<vectornator:setting key="GuidesVisible" value="0"/>
<vectornator:setting key="DisplayWhiteBackground" value="0"/>
<vectornator:setting key="doHistoryDisabled" value="0"/>
<vectornator:setting key="SnapToGuides" value="1"/>
<vectornator:setting key="TimeLapseWatermarkDisabled" value="0"/>
<vectornator:setting key="Units" value="Points"/>
<vectornator:setting key="DynamicGuides" value="1"/>
<vectornator:setting key="IsolateActiveLayer" value="0"/>
<vectornator:setting key="SnapToGrid" value="0"/>
</metadata>
<defs/>
<g id="Layer 1" vectornator:layerName="Layer 1">
<path d="M31.3582+63.953L31.3582+105.32L85.0162+134.918L138.737+105.285L138.737+63.988L85.0162+34.355L31.3582+63.953Z" opacity="1" fill="none"/>
<path d="M85.0162+34.355L138.737+63.988L138.737+33.154L138.722+31.758L85.1202+1.95604L84.9122+1.95604L31.3582+31.731L31.3582+63.953L85.0162+34.355Z" fill-rule="evenodd" fill="#4a6ca4" opacity="1"/>
<path d="M85.0162+135.727L31.3582+106.129L31.3582+138.351L84.9122+168.126L85.1202+168.126L138.722+138.325L138.737+136.928L138.737+106.094L85.0162+135.727Z" fill-rule="evenodd" fill="#85c2d2" opacity="1"/>
<path d="M113.629+56.036L118.12+55.848L119.575+60.603L118.12+55.848L113.629+56.036Z" fill-rule="evenodd" fill="#444445" opacity="1"/>
<path d="M44.6852+48.641L49.4692+53.794L50.8702+60.603L52.3252+55.848L56.8162+56.036L53.8032+49.867L60.9742+47.87L44.5802+39.363L49.6092+47.87L44.6852+48.641ZM113.225+56.036L117.715+55.848L119.17+60.603L120.571+53.794L125.354+48.641L120.431+47.87L125.459+39.363L109.066+47.87L116.237+49.867L113.225+56.036Z" fill-rule="evenodd" fill="#ffffff" opacity="1"/>
<path d="M70.2974+101.778C70.2974+101.778+77.6333+97.0303+77.167+89.587C77.1225+88.8744+77.6683+82.0609+70.8149+79.2371C63.7876+76.3416+55.8614+80.7642+52.0385+82.2006C50.9783+82.6453+50.0287+83.3173+49.2567+84.1693C49.0268+84.4059+48.7699+84.6703+49.0014+85.0275C49.1849+85.3108+49.5108+85.2559+49.7862+85.2187C50.0674+85.1807+50.3362+85.0616+50.6163+85.0061C51.0594+84.9183+51.5924+84.5678+51.9074+85.1163C52.1962+85.6192+51.7588+85.9995+51.4126+86.3119C49.8209+87.6665+48.0664+88.8171+46.1897+89.737C43.7147+91.044+40.8558+91.4289+38.1233+90.8232C35.9934+90.2732+34.0834+89.0833+32.6508+87.414C32.4631+87.2263+32.3033+86.8969+31.9626+87.0236C31.6259+87.1489+31.7231+87.4932+31.7152+87.7563C31.6889+88.8848+31.9579+90.0006+32.4954+90.9931C34.457+94.7559+37.7684+97.0984+41.4502+99.0024L74.0152+118.441C71.0936+114.557+63.4324+108.047+70.2974+101.778ZM59.3951+86.7544C59.0595+86.1026+59.1153+85.3181+59.5396+84.7203C60.7854+83.1339+62.7508+82.2878+64.7593+82.4733C65.5863+82.4447+66.4131+82.5342+67.2147+82.739C69.9727+83.4097+72.2136+85.4133+73.1877+88.0792C73.3857+88.6227+73.2767+89.2307+72.9022+89.6716C71.6605+91.218+69.7382+92.0554+67.7603+91.9116C65.9478+91.9342+64.1645+91.4538+62.6086+90.5237C61.1712+89.6324+60.0479+88.3147+59.3951+86.7544ZM138.078+87.0236C137.737+86.8969+137.577+87.2263+137.39+87.4141C135.957+89.0833+134.047+90.2732+131.917+90.8232C129.185+91.4289+126.326+91.0439+123.851+89.737C121.974+88.8171+120.219+87.6665+118.628+86.3119C118.282+85.9995+117.844+85.6192+118.133+85.1163C118.448+84.5678+118.981+84.9183+119.424+85.0062C119.704+85.0616+119.973+85.1807+120.254+85.2188C120.53+85.2559+120.855+85.3108+121.039+85.0275C121.27+84.6703+121.013+84.406+120.784+84.1694C120.012+83.3174+119.062+82.6453+118.002+82.2006C114.179+80.7642+106.253+76.3416+99.2253+79.2371C92.3719+82.0609+92.9178+88.8743+92.8732+89.587C92.407+97.0303+99.7428+101.778+99.7428+101.778C106.608+108.048+98.9468+114.557+96.0251+118.441L128.59+99.0025C132.272+97.0984+135.583+94.7559+137.545+90.9932C138.082+90.0006+138.351+88.8849+138.325+87.7564C138.317+87.4933+138.414+87.1489+138.078+87.0236ZM110.645+86.7544C109.993+88.3147+108.869+89.6324+107.432+90.5238C105.876+91.4538+104.093+91.9342+102.28+91.9116C100.302+92.0554+98.3799+91.218+97.1382+89.6716C96.7637+89.2307+96.6547+88.6228+96.8527+88.0792C97.8267+85.4133+100.068+83.4098+102.826+82.739C103.627+82.5342+104.454+82.4448+105.281+82.4733C107.29+82.2879+109.255+83.134+110.501+84.7203C110.925+85.3182+110.981+86.1027+110.645+86.7544Z" fill-rule="evenodd" fill="#141419" opacity="1"/>
<path d="M36.4627+80.7026C35.7478+81.6407+34.6807+82.314+34.1266+83.5438C35.5625+83.542+36.9668+83.1215+38.1675+82.334C40.2029+81.0256+42.1469+79.5803+43.9863+78.0083C44.5519+77.5223+45.5599+77.0525+45.4089+76.3907C45.2524+75.705+44.1365+75.8822+43.4293+75.7155C43.1152+75.6413+42.7081+75.674+42.6566+75.243C42.6101+74.8545+42.939+74.6738+43.2283+74.5111C48.4486+71.5753+56.0466+68.5258+64.3359+70.6137L62.9601+67.0341C62.9601+67.0341+73.2664+73.112+82.7806+74.687C83.5338+74.8117+84.2824+74.9102+85.0201+74.9732C85.7579+74.9102+86.5065+74.8117+87.2597+74.687C96.7739+73.1119+107.08+67.0341+107.08+67.0341L105.704+70.6137C113.994+68.5258+121.592+71.5753+126.812+74.5111C127.101+74.6738+127.43+74.8545+127.384+75.243C127.332+75.674+126.925+75.6413+126.611+75.7154C125.904+75.8822+124.788+75.705+124.631+76.3907C124.48+77.0524+125.488+77.5222+126.054+78.0082C127.893+79.5803+129.837+81.0255+131.873+82.3339C133.074+83.1215+134.478+83.5419+135.914+83.5438C135.36+82.314+134.293+81.6407+133.578+80.7026C132.865+79.7674+132.073+78.8893+131.363+77.9522C130.843+77.2652+131.117+76.8858+131.95+76.9627C132.709+77.0327+133.459+77.2017+134.212+77.3292C134.619+77.398+135.101+77.6732+135.367+77.1696C135.586+76.7523+135.306+76.3564+135.039+76.0239C134.211+74.9956+133.359+73.9859+132.536+72.9539C131.742+71.9589+131+70.9244+130.189+69.9434C127.593+66.8041+127.49+63.2688+128.879+59.7492C131.425+53.0345+132.37+45.819+131.642+38.675C131.529+37.2785+131.464+35.8773+131.319+34.4839C131.047+31.8623+129.493+30.3791+126.801+30.0469C124.363+29.746+122.207+30.6579+119.998+31.4299C114.114+33.4859+105.783+39.7986+100.781+44.0852C100.474+44.348+100.177+44.6051+99.8968+44.8511L85.0202+44.4791L70.1436+44.851C69.8634+44.6049+69.566+44.3478+69.2594+44.0851C64.2574+39.7984+55.9261+33.4858+50.0421+31.4298C47.8329+30.6578+45.677+29.7459+43.239+30.0468C40.5472+30.379+38.9937+31.8622+38.7216+34.4838C38.5769+35.8772+38.5115+37.2783+38.3986+38.675C37.6699+45.8189+38.6158+53.0344+41.1611+59.7492C42.5508+63.2688+42.4471+66.8041+39.8518+69.9433C39.0408+70.9243+38.2982+71.9589+37.5046+72.9539C36.6816+73.9859+35.8295+74.9956+35.0016+76.0239C34.7339+76.3564+34.4541+76.7523+34.6738+77.1696C34.9389+77.673+35.4209+77.398+35.8279+77.3291C36.5815+77.2016+37.3313+77.0327+38.0905+76.9626C38.9235+76.8857+39.1975+77.2651+38.677+77.9521C37.9671+78.8893+37.1755+79.7674+36.4627+80.7026ZM125.46+39.3632L120.431+47.87L125.355+48.641L120.571+53.7939L119.17+60.6032L117.715+55.8482L113.224+56.0356L116.237+49.8669L109.066+47.87L125.46+39.3632ZM60.9742+47.87L53.8029+49.8669L56.8161+56.0356L52.3251+55.848L50.8702+60.6032L49.4692+53.794L44.6854+48.641L49.6092+47.87L44.5806+39.3632L60.9742+47.87ZM93.4203+103.748C90.9907+101.898+88.0513+100.84+85+100.716C81.9488+100.84+79.0093+101.898+76.5797+103.748C75.6457+104.388+75.1586+105.504+75.3251+106.624C75.3089+107.724+75.9241+108.735+76.9078+109.227C77.1607+109.382+77.441+109.487+77.7334+109.535C78.2693+109.58+78.8211+109.554+79.7254+109.551L79.7352+109.551C79.7876+109.55+79.8287+109.55+79.8835+109.55C81.4465+109.212+82.8247+110.494+83.9049+112.799C84.2851+113.611+84.6431+114.05+85+114.16C85.3569+114.05+85.7149+113.611+86.095+112.799C87.1754+110.494+88.5534+109.212+90.1163+109.55C90.1713+109.55+90.2123+109.55+90.2649+109.551L90.2746+109.551C91.1788+109.554+91.7307+109.58+92.2665+109.535C92.559+109.487+92.8393+109.382+93.0921+109.227C94.0759+108.735+94.691+107.724+94.6748+106.624C94.8414+105.504+94.3543+104.388+93.4203+103.748Z" fill-rule="evenodd" fill="#141419" opacity="1"/>
</g>
</svg>
