<svg id="Layer_1" data-name="Layer 1" xmlns="http://www.w3.org/2000/svg" viewBox="0 0 286.26212 174.14618"><defs><style>.cls-1{opacity:0.8;}.cls-2{fill:#85c2d2;}.cls-3{fill:#444445;}.cls-4{fill:#fff;}</style></defs><title>sig-security-horizontal-black</title><path d="M125.057,94.73359l9.60412-10.87121c6.64831,5.18712,13.61414,8.4775,22.05716,8.4775,6.64906,0,10.65909-2.49254,10.65909-6.58231v-.19916c0-3.8907-2.53291-5.88471-14.88053-8.87721-14.88053-3.5898-24.48471-7.4805-24.48471-21.34422v-.19916c0-12.66611,10.76444-21.0448,25.85651-21.0448a44.35775,44.35775,0,0,1,27.43977,8.8772l-8.443,11.5688c-6.54292-4.28891-12.98132-6.88171-19.20746-6.88171-6.22692,0-9.49878,2.69311-9.49878,6.0838v.20061c0,4.58676,3.16651,6.0838,15.93637,9.17509,14.98593,3.69008,23.42893,8.7769,23.42893,20.94449v.20061c0,13.86218-11.18658,21.6421-27.123,21.6421A48.62823,48.62823,0,0,1,125.057,94.73359Z"/><path d="M194.01126,37.57067h15.35919v67.33655H194.01126Z"/><path d="M220.612,70.19929v-.20061c0-19.84719,14.73564-36.10459,34.8907-36.10459,11.97742,0,19.20327,3.39071,26.14232,9.57481L272.42434,55.138c-5.134-4.488-9.69726-7.08085-17.39827-7.08085-10.64756,0-19.10766,9.87421-19.10766,21.74238v.19916c0,12.76641,8.36594,22.14211,20.15359,22.14211a22.58519,22.58519,0,0,0,13.78534-4.1886V77.97765H255.12168V64.71275h28.90054V95.03294a42.059,42.059,0,0,1-28.42538,11.07031C234.87256,106.10329,220.612,90.84439,220.612,70.19929Z"/><path d="M126.31641,134.45032l2.80922-3.36493a9.91283,9.91283,0,0,0,6.4513,2.623c1.94506,0,3.11763-.771,3.11763-2.03667v-.06111c0-1.20457-.7405-1.82141-4.352-2.74812-4.35276-1.11146-7.162-2.31458-7.162-6.60631v-.06111c0-3.92068,3.1489-6.51313,7.56275-6.51313a12.51158,12.51158,0,0,1,8.02612,2.74665l-2.46952,3.58166a10.13557,10.13557,0,0,0-5.61843-2.13128c-1.8214,0-2.77793.8336-2.77793,1.88395v.0611c0,1.41991.926,1.884,4.66116,2.83976,4.3833,1.142,6.85282,2.71756,6.85282,6.48257v.06256c0,4.29019-3.27183,6.69788-7.933,6.69788A13.75081,13.75081,0,0,1,126.31641,134.45032Z"/><path d="M147.24512,115.99039h16.29881v4.2291H151.96811v4.3833h10.18641v4.2291H151.96811v4.53752h11.73v4.2291h-16.453Z"/><path d="M166.66079,126.85628v-.06255a10.9828,10.9828,0,0,1,10.78582-11.17629q.24078-.00427.48157.002a11.14956,11.14956,0,0,1,8.52,3.3344l-3.02526,3.4886a7.97479,7.97479,0,0,0-5.526-2.43962,6.40264,6.40264,0,0,0-6.273,6.52974q.002.10011.00715.20014v.06111a6.41817,6.41817,0,0,0,6.03133,6.783q.11715.00689.23449.00945a7.79992,7.79992,0,0,0,5.68024-2.53136l3.02525,3.05509a11.04629,11.04629,0,0,1-8.85971,3.85957A10.90743,10.90743,0,0,1,166.66025,127.24Q166.65714,127.04817,166.66079,126.85628Z"/><path d="M189.75066,128.33725V115.99039h4.75354v12.22326c0,3.51915,1.75959,5.34056,4.66116,5.34056,2.90233,0,4.66118-1.75885,4.66118-5.18491V115.99044h4.75428V128.1831c0,6.54513-3.67336,9.75441-9.47655,9.75441C193.30036,137.93746,189.75066,134.69618,189.75066,128.33725Z"/><path d="M213.11687,115.99039h9.878a8.611,8.611,0,0,1,6.29781,2.19094,6.782,6.782,0,0,1,1.852,4.939v.06256a6.70826,6.70826,0,0,1-4.63062,6.69788l5.27946,7.7177h-5.55732l-4.62914-6.91466h-3.7359v6.91466h-4.75427Zm9.56965,10.49492c2.316,0,3.6428-1.23368,3.6428-3.05509v-.06256c0-2.03666-1.41987-3.08708-3.73446-3.08708h-4.72368v6.2047Z"/><path d="M235.34326,115.99039h4.75428v21.6081h-4.75428Z"/><path d="M250.2214,120.37369h-6.57562v-4.3833H261.55v4.3833h-6.57424v17.2248H250.2214Z"/><path d="M270.964,129.0792l-8.30252-13.08881h5.55586l5.1558,8.67348,5.24746-8.67348h5.40166l-8.304,12.9957v8.6124H270.964Z"/><g class="cls-1"><polygon points="56.561 35.655 110.282 65.288 110.282 34.454 110.267 33.058 56.665 3.256 56.457 3.256 2.903 33.031 2.903 65.253 56.561 35.655"/><polygon points="56.561 137.837 2.903 108.239 2.903 140.461 56.457 170.236 56.665 170.236 110.267 140.435 110.282 139.038 110.282 108.204 56.561 137.837"/></g><polygon class="cls-2" points="3.612 64.283 3.612 64.38 3.772 64.285 3.612 64.283"/><polygon class="cls-3" points="84.365 57.336 88.856 57.148 90.31 61.903 88.856 57.148 84.365 57.336"/><polygon class="cls-4" points="16.23 49.941 21.014 55.094 22.416 61.903 23.87 57.148 28.361 57.336 25.348 51.167 32.519 49.17 16.126 40.663 21.154 49.17 16.23 49.941"/><polygon class="cls-4" points="84.77 57.336 89.261 57.148 90.715 61.903 92.116 55.094 96.9 49.941 91.976 49.17 97.004 40.663 80.612 49.17 87.783 51.167 84.77 57.336"/><path d="M41.84253,103.07816s7.33585-4.74774,6.86961-12.191c-.04457-.71266.50131-7.52611-6.35211-10.34992-7.02735-2.8955-14.95354,1.52708-18.77643,2.96348a7.85222,7.85222,0,0,0-2.78177,1.96871c-.22988.23659-.48685.50091-.25531.85815.1835.28331.50937.2284.78474.19123.28124-.038.55-.15714.83011-.21258.44313-.08784.97618-.43832,1.29113.11016.28878.50293-.14862.88321-.4948,1.19561a25.11469,25.11469,0,0,1-5.22287,3.42511,11.80422,11.80422,0,0,1-8.06646,1.08616,10.75537,10.75537,0,0,1-5.4725-3.40912c-.18766-.18779-.34747-.51718-.68812-.39041-.33674.12526-.23952.46961-.24746.73269a6.48024,6.48024,0,0,0,.78026,3.2368c1.96155,3.76276,5.27292,6.10524,8.95481,8.00933l32.565,19.4382C42.63869,115.857,34.9775,109.34756,41.84253,103.07816ZM30.9402,88.05454a1.96231,1.96231,0,0,1,.14452-2.0341,5.942,5.942,0,0,1,5.21969-2.247,8.70418,8.70418,0,0,1,2.45544.26568,8.49693,8.49693,0,0,1,5.973,5.34021,1.609,1.609,0,0,1-.28558,1.5924,6.03328,6.03328,0,0,1-5.14188,2.24,9.80167,9.80167,0,0,1-5.15168-1.38789A8.12514,8.12514,0,0,1,30.9402,88.05454Z"/><path d="M109.62281,88.32376c-.34075-.12676-.50044.20269-.68812.39041a10.75513,10.75513,0,0,1-5.4725,3.40912,11.80416,11.80416,0,0,1-8.06646-1.08616A25.1117,25.1117,0,0,1,90.17285,87.612c-.34611-.3124-.78357-.69269-.49486-1.19561.315-.54848.84806-.198,1.2912-.11016.28005.05545.54885.17458.8301.21259.27544.03715.60125.09207.78475-.19124.23145-.35723-.02551-.62155-.25531-.85815a7.85382,7.85382,0,0,0-2.78179-1.96874c-3.82288-1.43643-11.74912-5.859-18.77647-2.96351-6.85341,2.8238-6.30754,9.63726-6.35219,10.34992-.46622,7.44327,6.86962,12.191,6.86962,12.191,6.86513,6.26947-.79607,12.77886-3.71773,16.66258l32.565-19.4381c3.68188-1.90413,6.99325-4.24666,8.9548-8.00938a6.48017,6.48017,0,0,0,.78026-3.23674C109.86233,88.79338,109.95954,88.449,109.62281,88.32376Zm-27.43253-.26922a8.12446,8.12446,0,0,1-3.21344,3.76933,9.80178,9.80178,0,0,1-5.15164,1.38785,6.03337,6.03337,0,0,1-5.14194-2.24,1.60915,1.60915,0,0,1-.28552-1.5924,8.49682,8.49682,0,0,1,5.97295-5.34021,8.70539,8.70539,0,0,1,2.45556-.26568,5.94213,5.94213,0,0,1,5.21963,2.247A1.9622,1.9622,0,0,1,82.19028,88.05454Z"/><path d="M8.00782,82.00275c-.71494.93806-1.782,1.61141-2.33616,2.84117a7.385,7.385,0,0,0,4.04093-1.20985,53.40008,53.40008,0,0,0,5.8188-4.32569c.56565-.486,1.57366-.95582,1.42263-1.61758-.15649-.68565-1.27239-.50846-1.97963-.67524-.3141-.07412-.72117-.04145-.77272-.47241-.04645-.38856.28248-.56924.57171-.73191,5.22028-2.93584,12.81836-5.98532,21.10762-3.89739l-1.37578-3.5796s10.3063,6.07784,19.82044,7.65293c.75325.12467,1.50182.22319,2.2396.28618.73776-.063,1.48634-.16151,2.23959-.28618,9.51414-1.5751,19.82045-7.65293,19.82045-7.65293l-1.37582,3.57959c8.28937-2.08788,15.88739.96158,21.10766,3.89739.28918.16268.61811.34338.5717.73191-.05153.431-.45868.39829-.7727.47241-.70725.16682-1.82321-.01041-1.97963.67524-.1511.66176.857,1.13157,1.42263,1.61758a53.39554,53.39554,0,0,0,5.8188,4.32569,7.385,7.385,0,0,0,4.04093,1.20985c-.5542-1.22975-1.62123-1.90311-2.33622-2.84117-.71279-.93519-1.5043-1.81332-2.21422-2.75041-.52049-.687-.24655-1.06637.58655-.98947.75918.07,1.509.239,2.26257.36649.40694.06884.889.34395,1.15408-.15956.21972-.4173-.06012-.81319-.32782-1.1457-.82782-1.02836-1.68-2.038-2.503-3.07-.79359-.995-1.53618-2.02955-2.34715-3.01055-2.5954-3.13926-2.69906-6.67453-1.30934-10.19414a46.22344,46.22344,0,0,0,2.76261-21.07423c-.1129-1.39657-.17828-2.79771-.323-4.19112-.2722-2.62162-1.82562-4.10484-4.51745-4.437-2.438-.30089-4.59391.61095-6.80312,1.383-5.884,2.056-14.21522,8.36865-19.21727,12.65529-.30661.26275-.60391.51985-.88418.76592l-14.8766-.37194-14.8766.37194c-.28026-.24609-.57757-.50319-.88425-.76592C35.80246,41.09862,27.47123,34.786,21.58723,32.73c-2.20928-.772-4.36511-1.68389-6.80311-1.383-2.69183.33219-4.24533,1.81541-4.51745,4.437-.14472,1.39341-.21011,2.79451-.323,4.19112a46.22249,46.22249,0,0,0,2.76257,21.07423c1.38971,3.5196,1.286,7.05487-1.30936,10.19413-.811.981-1.55361,2.01556-2.34715,3.01055-.823,1.032-1.67517,2.04171-2.503,3.07-.2677.33251-.54757.7284-.32783,1.1457.26511.5035.74715.2284,1.1541.15956.75357-.12748,1.50336-.29646,2.26256-.36649.83306-.0769,1.107.30246.58654.98947C9.51217,80.18943,8.72064,81.06756,8.00782,82.00275ZM97.00474,40.66337l-5.02859,8.50685L96.9,49.94117l-4.78379,5.15295-1.401,6.80922-1.45484-4.755-4.491.18746L87.78254,51.167l-7.17127-1.99681ZM32.51927,49.17022,25.348,51.167l3.01316,6.16874-4.491-.18752-1.45485,4.75509-1.401-6.80924-4.78378-5.15295,4.92381-.77095-5.02858-8.50685Z"/><path d="M64.98558,105.04823a14.89275,14.89275,0,0,0-8.42031-3.03163,14.89272,14.89272,0,0,0-8.42031,3.03163,2.95857,2.95857,0,0,0-1.25455,2.87612,2.86249,2.86249,0,0,0,1.5827,2.60281,2.30831,2.30831,0,0,0,.82561.30831c.53586.0449,1.08772.01861,1.99194.01525h.00983c.05244-.00019.0935-.001.14835-.001,1.563-.33727,2.94106.94424,4.0213,3.24983.38021.8113.73822,1.25079,1.09513,1.36089.35691-.1101.71493-.54959,1.09507-1.36089,1.08031-2.30563,2.45836-3.58714,4.02129-3.24983.05493,0,.096.00078.14842.001h.00983c.90426.00333,1.45608.02962,1.99194-.01525a2.30824,2.30824,0,0,0,.82561-.30831,2.86262,2.86262,0,0,0,1.58271-2.60281A2.95868,2.95868,0,0,0,64.98558,105.04823Z"/></svg>