<svg id="Layer_1" data-name="Layer 1" xmlns="http://www.w3.org/2000/svg" viewBox="0 0 292.5 178"><defs><style>.cls-1{fill:none;}.cls-2{fill:#4a6ca4;}.cls-3{fill:#85c2d2;}.cls-4{fill:#444445;}.cls-5{fill:#fff;}.cls-6{fill:#141419;}</style></defs><path class="cls-1" d="M3.783,67.0943v41.367l53.658,29.598,53.721-29.633v-41.297l-53.721-29.633Z"/><path class="cls-2" d="M57.441,37.49629l53.721,29.633v-30.834l-.015-1.396L57.545,5.09729h-.208L3.783,34.87229v32.222Z"/><path class="cls-3" d="M57.441,139.67829,3.783,110.0803v32.222l53.554,29.775h.208l53.602-29.801.015-1.397v-30.834ZM4.492,66.12429v.097l.16-.095Z"/><path class="cls-4" d="M85.245,59.17729l4.491-.188,1.454,4.755-1.454-4.755Z"/><path class="cls-5" d="M17.11,51.78229l4.784,5.153,1.402,6.809,1.454-4.755,4.491.188-3.013-6.169,7.171-1.997-16.393-8.507,5.028,8.507Zm68.54,7.395,4.491-.188,1.454,4.755,1.401-6.809,4.784-5.153-4.924-.771,5.028-8.507-16.392,8.507,7.171,1.997Z"/><path class="cls-6" d="M42.72253,104.91945s7.33585-4.74774,6.86961-12.191c-.04457-.71267.50131-7.52611-6.35211-10.34993C36.21268,79.483,28.28649,83.9056,24.4636,85.342a7.85222,7.85222,0,0,0-2.78177,1.96871c-.22988.23659-.48685.50091-.25531.85815.1835.28331.50937.2284.78474.19123.28124-.038.55-.15714.83011-.21258.44313-.08783.97618-.43831,1.29113.11016.28878.50293-.14862.88321-.4948,1.19561a25.114,25.114,0,0,1-5.22287,3.42511,11.80421,11.80421,0,0,1-8.06646,1.08616,10.75531,10.75531,0,0,1-5.4725-3.40912c-.18766-.18779-.34747-.51718-.68812-.39041-.33674.12526-.23952.46962-.24746.73269a6.48014,6.48014,0,0,0,.78026,3.2368c1.96155,3.76276,5.27292,6.10524,8.95481,8.00933l32.565,19.43821C43.51869,117.69829,35.8575,111.18885,42.72253,104.91945ZM31.8202,89.89583a1.96235,1.96235,0,0,1,.14452-2.03411,5.942,5.942,0,0,1,5.21969-2.247,8.70418,8.70418,0,0,1,2.45544.26568,8.497,8.497,0,0,1,5.973,5.34021,1.609,1.609,0,0,1-.28558,1.5924,6.03332,6.03332,0,0,1-5.14188,2.24,9.80171,9.80171,0,0,1-5.15168-1.38791,8.12506,8.12506,0,0,1-3.21351-3.7693Zm78.68261.26922c-.34075-.12677-.50044.20269-.68812.39041a10.75509,10.75509,0,0,1-5.4725,3.40912,11.80422,11.80422,0,0,1-8.06646-1.08616,25.11178,25.11178,0,0,1-5.22288-3.42513c-.34611-.3124-.78357-.69268-.49486-1.19561.315-.54847.84806-.198,1.2912-.11016.28005.05545.54885.17459.8301.2126.27544.03714.60125.09207.78476-.19124.23145-.35723-.02552-.62155-.25531-.85815a7.85394,7.85394,0,0,0-2.7818-1.96874c-3.82288-1.43643-11.74912-5.859-18.77646-2.96351-6.85341,2.8238-6.30754,9.63726-6.35219,10.34993-.46621,7.44326,6.86963,12.191,6.86963,12.191,6.86512,6.26947-.79607,12.77886-3.71773,16.66258l32.565-19.43811c3.68187-1.90412,6.99325-4.24665,8.95481-8.00937a6.48014,6.48014,0,0,0,.78025-3.23674c-.00789-.26308.08931-.60746-.24742-.7327Zm-27.43253-.26922a8.12442,8.12442,0,0,1-3.21344,3.76934A9.80181,9.80181,0,0,1,74.7052,95.053a6.0334,6.0334,0,0,1-5.14194-2.24,1.60914,1.60914,0,0,1-.28552-1.5924,8.49678,8.49678,0,0,1,5.97294-5.34021,8.70539,8.70539,0,0,1,2.45556-.26568,5.94215,5.94215,0,0,1,5.21963,2.247A1.96224,1.96224,0,0,1,83.07028,89.89583Z"/><path class="cls-6" d="M8.88782,83.844c-.71494.93806-1.782,1.61141-2.33616,2.84117a7.38514,7.38514,0,0,0,4.04093-1.20984,53.40008,53.40008,0,0,0,5.8188-4.32569c.56565-.486,1.57366-.95582,1.42263-1.61758-.15649-.68565-1.27239-.50846-1.97963-.67524-.3141-.07412-.72117-.04145-.77272-.47241-.04645-.38856.28248-.56924.57171-.73191,5.22028-2.93584,12.81836-5.98532,21.10762-3.8974l-1.37578-3.57959s10.3063,6.07784,19.82045,7.65293c.75325.12467,1.50182.22319,2.2396.28618.73776-.063,1.48634-.16151,2.23959-.28618,9.51414-1.57511,19.82046-7.65293,19.82046-7.65293L78.1295,73.75513c8.28937-2.08789,15.88739.96157,21.10766,3.89739.28917.16268.61811.34339.5717.73191-.05153.431-.45868.3983-.7727.47242-.70725.16681-1.82321-.0104-1.97963.67524-.1511.66175.857,1.13156,1.42263,1.61757a53.39306,53.39306,0,0,0,5.81881,4.32569,7.385,7.385,0,0,0,4.04094,1.20985c-.5542-1.22976-1.62124-1.90311-2.33622-2.84118-.7128-.93518-1.50432-1.81331-2.21422-2.75041-.5205-.687-.24655-1.06637.58655-.98947.75917.07,1.509.239,2.26257.36649.40694.06884.889.344,1.15408-.15956.21972-.41729-.06012-.81318-.32782-1.1457-.82782-1.02835-1.68-2.038-2.503-3.07-.79358-.995-1.53618-2.02954-2.34715-3.01055-2.5954-3.13926-2.69906-6.67453-1.30934-10.19414A46.22332,46.22332,0,0,0,104.067,41.81645c-.1129-1.39657-.17828-2.79771-.323-4.19112-.2722-2.62162-1.82562-4.10484-4.51745-4.437-2.438-.30089-4.59391.611-6.80312,1.383-5.884,2.056-14.21522,8.36865-19.21727,12.65529-.30661.26275-.60391.51985-.88418.76592l-14.8766-.37194-14.8766.37194c-.28026-.24609-.57757-.50319-.88425-.76592-5.00207-4.28671-13.3333-10.59933-19.2173-12.65533-2.20928-.772-4.36511-1.68388-6.80311-1.383-2.69183.3322-4.24533,1.81541-4.51745,4.437-.14472,1.39341-.21011,2.79451-.323,4.19112a46.22245,46.22245,0,0,0,2.76257,21.07423c1.38971,3.5196,1.286,7.05487-1.30936,10.19413-.811.981-1.55361,2.01556-2.34715,3.01056-.823,1.032-1.67517,2.04171-2.503,3.07-.2677.33251-.54757.7284-.32783,1.14569.26511.50351.74715.22841,1.1541.15957.75357-.12748,1.50336-.29647,2.26256-.3665.83306-.07689,1.107.30246.58654.98947C10.39217,82.03072,9.60064,82.90886,8.88782,83.844ZM97.88474,42.50465l-5.02858,8.50686,4.92385.771-4.78379,5.15295-1.401,6.8092-1.45484-4.755-4.491.18747,3.01316-6.1688-7.17127-1.99682ZM33.39926,51.0115,26.228,53.00829,29.24116,59.177l-4.491-.18751-1.45485,4.75508-1.401-6.80923-4.78378-5.153,4.92381-.77095L17.00576,42.5046Zm32.46631,55.878a14.89272,14.89272,0,0,0-8.42031-3.03163,14.8927,14.8927,0,0,0-8.42031,3.03163,2.95855,2.95855,0,0,0-1.25455,2.87612,2.86249,2.86249,0,0,0,1.5827,2.60281,2.30843,2.30843,0,0,0,.82561.30831c.53586.0449,1.08772.01861,1.99194.01525h.00983c.05244-.00019.0935-.001.14835-.001,1.563-.33727,2.94106.94424,4.0213,3.24983.38021.81131.73822,1.2508,1.09513,1.3609.35691-.1101.71493-.54959,1.09507-1.3609,1.08031-2.30563,2.45836-3.58714,4.02128-3.24983.05494,0,.096.00078.14843.001h.00982c.90426.00333,1.45608.02962,1.992-.01525a2.30831,2.30831,0,0,0,.8256-.30831,2.86262,2.86262,0,0,0,1.58271-2.60282,2.95868,2.95868,0,0,0-1.25455-2.87609Z"/><path d="M129.19434,53.99086v-.062a11.0908,11.0908,0,0,1,11.37841-11.28515,11.25907,11.25907,0,0,1,8.604,3.3667l-3.05567,3.523a8.05023,8.05023,0,0,0-5.57959-2.46289c-3.67871,0-6.32812,3.05517-6.32812,6.79589v.0625c0,3.74073,2.5874,6.85791,6.32812,6.85791,2.49366,0,4.02149-.99755,5.73584-2.55615L149.332,61.317a11.15224,11.15224,0,0,1-8.94629,3.89648A11.01476,11.01476,0,0,1,129.19434,53.99086Z"/><path d="M153.168,43.01771h4.80078V60.47523h10.87988v4.36426H153.168Z"/><path d="M170.25293,53.99086v-.062a11.60194,11.60194,0,0,1,23.19336-.0625v.0625a11.60195,11.60195,0,0,1-23.19336.062Zm18.17383,0v-.062a6.62948,6.62948,0,0,0-6.6084-6.85839,6.52673,6.52673,0,0,0-6.54688,6.79589v.0625a6.62955,6.62955,0,0,0,6.60938,6.85791A6.52565,6.52565,0,0,0,188.42676,53.99086Z"/><path d="M197.376,55.48744V43.01771h4.80078V55.36293c0,3.55371,1.77734,5.39257,4.707,5.39257,2.93066,0,4.708-1.77685,4.708-5.23681v-12.501h4.80078v12.314c0,6.60888-3.71,9.85058-9.57031,9.85058C200.96094,65.18226,197.376,61.90931,197.376,55.48744Z"/><path d="M221.28809,43.01771h8.51074c6.8584,0,11.59668,4.70752,11.59668,10.84863v.0625c0,6.14112-4.73828,10.91065-11.59668,10.91065h-8.51074Zm8.51074,17.48877a6.21864,6.21864,0,0,0,6.57812-6.51562v-.062a6.26761,6.26761,0,0,0-6.57812-6.57763h-3.71V60.50648Z"/><path d="M130.16064,77.67591h4.42676l10.22461,13.436v-13.436h4.73877V99.49769h-4.084L134.89893,85.62562V99.49769h-4.73829Z"/><path d="M162.27148,77.52015h4.42676l9.35156,21.97754h-5.01855l-1.99512-4.89453h-9.22754l-1.99511,4.89453H152.919Zm5.04981,12.84375-2.89941-7.07666-2.89844,7.07666Z"/><path d="M181.69434,82.10267h-6.64063V77.67591h18.08106v4.42676h-6.63965v17.395h-4.80078Z"/><path d="M197.03418,77.67591H201.835V99.49769h-4.80078Z"/><path d="M205.41992,77.67591h5.29981l5.70507,15.36866,5.70411-15.36866h5.1748l-8.82226,21.978h-4.23926Z"/><path d="M230.67285,77.67591h16.46v4.271H235.44238v4.42676h10.28809v4.27051H235.44238v4.583h11.84668v4.27051H230.67285Z"/><path d="M128.66406,130.97718l2.83692-3.39843a10.011,10.011,0,0,0,6.51562,2.65039c1.96387,0,3.14844-.7793,3.14844-2.05762v-.0625c0-1.21582-.74854-1.83887-4.39551-2.77441-4.39551-1.12207-7.23242-2.33789-7.23242-6.6709v-.0625c0-3.959,3.17969-6.57813,7.63769-6.57813a12.63192,12.63192,0,0,1,8.10547,2.77539l-2.49414,3.61524a10.24416,10.24416,0,0,0-5.67383-2.15039c-1.83935,0-2.80566.84179-2.80566,1.90136v.0625c0,1.4336.93506,1.90137,4.707,2.86817,4.42676,1.15332,6.9209,2.74316,6.9209,6.5459v.0625c0,4.333-3.30469,6.76464-8.01172,6.76464A13.88754,13.88754,0,0,1,128.66406,130.97718Z"/><path d="M150.11328,112.33558h16.46v4.27051H154.88281v4.42676H165.1709v4.27051H154.88281v4.583h11.84668v4.27051H150.11328Z"/><path d="M170.03516,123.30824v-.0625a11.09017,11.09017,0,0,1,11.37793-11.28418,11.25925,11.25925,0,0,1,8.60449,3.36621l-3.05567,3.52246a8.05057,8.05057,0,0,0-5.58007-2.46191c-3.67774,0-6.32813,3.05468-6.32813,6.79492v.0625c0,3.74121,2.58789,6.8584,6.32813,6.8584,2.49414,0,4.02148-.99707,5.73632-2.55567l3.05469,3.08594a11.15294,11.15294,0,0,1-8.94629,3.89648A11.01505,11.01505,0,0,1,170.03516,123.30824Z"/><path d="M193.666,124.80433V112.33558h4.80078v12.34473c0,3.55371,1.77734,5.39258,4.707,5.39258,2.93066,0,4.708-1.77637,4.708-5.23731v-12.5h4.80078v12.31348c0,6.6084-3.71,9.85058-9.57032,9.85058C197.251,134.49964,193.666,131.22621,193.666,124.80433Z"/><path d="M217.57812,112.33558h9.97559a8.70081,8.70081,0,0,1,6.36035,2.21289,6.85433,6.85433,0,0,1,1.87012,4.98828v.06153a6.77746,6.77746,0,0,1-4.67578,6.76562l5.33008,7.793h-5.61133l-4.67578-6.9834h-3.77246v6.9834h-4.80079Zm9.66407,10.59864c2.33789,0,3.67871-1.24708,3.67871-3.08594v-.0625c0-2.05762-1.4336-3.11719-3.77246-3.11719h-4.76953v6.26563Z"/><path d="M240.33789,112.33558h4.80078v21.82129h-4.80078Z"/><path d="M255.67578,116.76234h-6.64062v-4.42676h18.08105v4.42676h-6.63965v17.39453h-4.80078Z"/><path d="M276.9375,125.55336l-8.38574-13.21778h5.61133l5.20605,8.75977,5.29981-8.75977H290.124l-8.38574,13.124v8.69726H276.9375Z"/></svg>