<?xml version="1.0" encoding="UTF-8" standalone="no"?> <!-- Created with Vectornator for iOS (http://vectornator.io/) --><!DOCTYPE svg PUBLIC "-//W3C//DTD SVG 1.1//EN" "http://www.w3.org/Graphics/SVG/1.1/DTD/svg11.dtd">
<svg height="100%" style="fill-rule:nonzero;clip-rule:evenodd;stroke-linecap:round;stroke-linejoin:round;" xmlns:xlink="http://www.w3.org/1999/xlink" xmlns="http://www.w3.org/2000/svg" xml:space="preserve" width="100%" xmlns:vectornator="http://vectornator.io" version="1.1" viewBox="0 0 117.09 249.34">
<metadata>
<vectornator:setting key="DimensionsVisible" value="0"/>
<vectornator:setting key="PencilOnly" value="0"/>
<vectornator:setting key="SnapToPoints" value="0"/>
<vectornator:setting key="OutlineMode" value="0"/>
<vectornator:setting key="CMYKEnabledKey" value="0"/>
<vectornator:setting key="RulersVisible" value="1"/>
<vectornator:setting key="SnapToEdges" value="0"/>
<vectornator:setting key="GuidesVisible" value="0"/>
<vectornator:setting key="DisplayWhiteBackground" value="0"/>
<vectornator:setting key="doHistoryDisabled" value="0"/>
<vectornator:setting key="SnapToGuides" value="1"/>
<vectornator:setting key="TimeLapseWatermarkDisabled" value="0"/>
<vectornator:setting key="Units" value="Points"/>
<vectornator:setting key="DynamicGuides" value="1"/>
<vectornator:setting key="IsolateActiveLayer" value="0"/>
<vectornator:setting key="SnapToGrid" value="0"/>
</metadata>
<defs/>
<g id="Untitled" vectornator:layerName="Untitled">
<path d="M5+63.805L5+105.172L58.658+134.77L112.379+105.137L112.379+63.84L58.658+34.207L5+63.805Z" opacity="1" fill="none"/>
<path d="M58.658+34.207L112.379+63.84L112.379+33.006L112.364+31.61L58.762+1.808L58.554+1.808L5+31.583L5+63.805L58.658+34.207Z" fill-rule="evenodd" fill="#4a6ca4" opacity="1"/>
<path d="M58.658+135.579L5+105.981L5+138.203L58.554+167.978L58.762+167.978L112.364+138.177L112.379+136.78L112.379+105.946L58.658+135.579Z" fill-rule="evenodd" fill="#85c2d2" opacity="1"/>
<path d="M87.271+55.888L91.762+55.7L93.217+60.455L91.762+55.7L87.271+55.888Z" fill-rule="evenodd" fill="#444445" opacity="1"/>
<path d="M18.327+48.493L23.111+53.646L24.512+60.455L25.967+55.7L30.458+55.888L27.445+49.719L34.616+47.722L18.222+39.215L23.251+47.722L18.327+48.493ZM86.867+55.888L91.357+55.7L92.812+60.455L94.213+53.646L98.996+48.493L94.073+47.722L99.101+39.215L82.708+47.722L89.879+49.719L86.867+55.888Z" fill-rule="evenodd" fill="#474756" opacity="1"/>
<path d="M43.9392+101.63C43.9392+101.63+51.2751+96.8823+50.8088+89.439C50.7643+88.7263+51.3101+81.9129+44.4567+79.0891C37.4294+76.1936+29.5032+80.6162+25.6803+82.0526C24.6201+82.4972+23.6705+83.1693+22.8985+84.0213C22.6686+84.2579+22.4117+84.5222+22.6432+84.8794C22.8267+85.1627+23.1526+85.1078+23.4279+85.0707C23.7092+85.0327+23.9779+84.9135+24.2581+84.8581C24.7012+84.7702+25.2342+84.4197+25.5492+84.9682C25.838+85.4711+25.4006+85.8514+25.0544+86.1638C23.4627+87.5184+21.7082+88.669+19.8315+89.589C17.3565+90.8959+14.4976+91.2809+11.7651+90.6752C9.63518+90.1251+7.72518+88.9353+6.29256+87.266C6.1049+87.0782+5.94509+86.7488+5.60444+86.8756C5.2677+87.0008+5.36492+87.3452+5.35698+87.6083C5.33072+88.7367+5.59969+89.8525+6.13724+90.8451C8.09879+94.6078+11.4102+96.9503+15.092+98.8544L47.657+118.293C44.7354+114.409+37.0742+107.899+43.9392+101.63ZM33.0369+86.6064C32.7013+85.9546+32.757+85.1701+33.1814+84.5723C34.4272+82.9859+36.3926+82.1398+38.4011+82.3253C39.228+82.2967+40.0548+82.3861+40.8565+82.591C43.6145+83.2617+45.8554+85.2652+46.8295+87.9312C47.0275+88.4747+46.9185+89.0827+46.544+89.5236C45.3023+91.0699+43.38+91.9073+41.4021+91.7636C39.5895+91.7862+37.8063+91.3058+36.2504+90.3757C34.813+89.4843+33.6896+88.1666+33.0369+86.6064ZM111.719+86.8756C111.379+86.7488+111.219+87.0783+111.031+87.266C109.599+88.9353+107.689+90.1251+105.559+90.6751C102.826+91.2808+99.9674+90.8959+97.4924+89.589C95.6157+88.6691+93.8612+87.5185+92.2695+86.1639C91.9234+85.8515+91.486+85.4712+91.7747+84.9683C92.0896+84.4198+92.6227+84.7703+93.0659+84.8581C93.3459+84.9136+93.6147+85.0327+93.896+85.0707C94.1714+85.1079+94.4972+85.1628+94.6807+84.8795C94.9122+84.5222+94.6552+84.2579+94.4254+84.0213C93.6534+83.1694+92.7038+82.4973+91.6436+82.0526C87.8207+80.6161+79.8945+76.1936+72.8671+79.0891C66.0137+81.9128+66.5596+88.7263+66.515+89.439C66.0488+96.8823+73.3846+101.63+73.3846+101.63C80.2497+107.899+72.5885+114.409+69.6669+118.293L102.232+98.8545C105.914+96.9504+109.225+94.6078+111.187+90.8451C111.724+89.8526+111.993+88.7368+111.967+87.6084C111.959+87.3452+112.056+87.0009+111.719+86.8756ZM84.287+86.6064C83.6343+88.1667+82.5109+89.4844+81.0736+90.3757C79.5177+91.3058+77.7344+91.7862+75.9219+91.7636C73.944+91.9074+72.0217+91.0699+70.78+89.5236C70.4055+89.0827+70.2965+88.4747+70.4945+87.9312C71.4685+85.2652+73.7095+83.2617+76.4674+82.591C77.2691+82.3862+78.096+82.2967+78.923+82.3253C80.9314+82.1399+82.8968+82.986+84.1426+84.5723C84.5669+85.1701+84.6226+85.9546+84.287+86.6064Z" fill-rule="evenodd" fill="#ffffff" opacity="1"/>
<path d="M10.1045+80.5546C9.38957+81.4926+8.32251+82.166+7.76835+83.3958C9.2043+83.3939+10.6086+82.9735+11.8093+82.1859C13.8446+80.8775+15.7887+79.4323+17.6281+77.8602C18.1937+77.3742+19.2017+76.9044+19.0507+76.2427C18.8942+75.557+17.7783+75.7342+17.0711+75.5674C16.757+75.4933+16.3499+75.526+16.2984+75.095C16.2519+74.7064+16.5808+74.5258+16.8701+74.3631C22.0904+71.4273+29.6884+68.3778+37.9777+70.4657L36.6019+66.8861C36.6019+66.8861+46.9082+72.9639+56.4224+74.539C57.1756+74.6637+57.9242+74.7622+58.6619+74.8252C59.3997+74.7622+60.1483+74.6637+60.9015+74.539C70.4157+72.9639+80.722+66.8861+80.722+66.8861L79.3462+70.4657C87.6355+68.3778+95.2336+71.4272+100.454+74.3631C100.743+74.5257+101.072+74.7064+101.026+75.095C100.974+75.526+100.567+75.4933+100.253+75.5674C99.5456+75.7342+98.4296+75.557+98.2732+76.2426C98.1221+76.9044+99.1302+77.3742+99.6959+77.8602C101.535+79.4323+103.479+80.8775+105.515+82.1859C106.715+82.9735+108.12+83.3939+109.556+83.3957C109.001+82.166+107.934+81.4926+107.219+80.5546C106.507+79.6194+105.715+78.7412+105.005+77.8041C104.485+77.1171+104.759+76.7378+105.592+76.8147C106.351+76.8847+107.101+77.0537+107.854+77.1811C108.261+77.25+108.743+77.5251+109.008+77.0216C109.228+76.6043+108.948+76.2084+108.681+75.8759C107.853+74.8475+107.001+73.8379+106.178+72.8059C105.384+71.8109+104.641+70.7763+103.83+69.7953C101.235+66.6561+101.131+63.1208+102.521+59.6012C105.066+52.8864+106.012+45.671+105.284+38.527C105.171+37.1304+105.105+35.7293+104.961+34.3359C104.688+31.7143+103.135+30.231+100.443+29.8989C98.0052+29.598+95.8493+30.5099+93.6401+31.2819C87.7561+33.3379+79.4248+39.6505+74.4228+43.9372C74.1162+44.1999+73.8189+44.457+73.5386+44.7031L58.662+44.3311L43.7854+44.703C43.5052+44.4569+43.2078+44.1998+42.9012+43.9371C37.8992+39.6504+29.5679+33.3378+23.6839+31.2818C21.4746+30.5098+19.3188+29.5979+16.8808+29.8988C14.189+30.231+12.6355+31.7142+12.3634+34.3358C12.2186+35.7292+12.1533+37.1303+12.0404+38.5269C11.3117+45.6709+12.2576+52.8864+14.8029+59.6011C16.1926+63.1207+16.0889+66.656+13.4936+69.7953C12.6826+70.7763+11.94+71.8108+11.1464+72.8058C10.3234+73.8378+9.47125+74.8475+8.64342+75.8758C8.37572+76.2083+8.09585+76.6042+8.31559+77.0215C8.58069+77.525+9.06274+77.2499+9.46969+77.1811C10.2233+77.0536+10.9731+76.8846+11.7323+76.8146C12.5653+76.7377+12.8393+77.117+12.3188+77.8041C11.6089+78.7413+10.8173+79.6194+10.1045+80.5546ZM99.1014+39.2152L94.0728+47.722L98.9967+48.493L94.2129+53.6459L92.8119+60.4551L91.3571+55.7001L86.8661+55.8876L89.8792+49.7188L82.708+47.722L99.1014+39.2152ZM34.616+47.722L27.4447+49.7188L30.4579+55.8876L25.9669+55.7L24.512+60.4552L23.111+53.6459L18.3272+48.493L23.251+47.722L18.2224+39.2151L34.616+47.722ZM67.0823+103.6C64.6527+101.75+61.7132+100.692+58.662+100.568C55.6108+100.692+52.6712+101.75+50.2417+103.6C49.3076+104.24+48.8206+105.356+48.9871+106.476C48.9709+107.576+49.5861+108.587+50.5698+109.079C50.8227+109.234+51.103+109.339+51.3954+109.387C51.9313+109.432+52.4831+109.406+53.3874+109.403L53.3972+109.403C53.4496+109.402+53.4907+109.402+53.5455+109.402C55.1085+109.064+56.4866+110.346+57.5668+112.651C57.947+113.463+58.3051+113.902+58.662+114.012C59.0189+113.902+59.3769+113.463+59.757+112.651C60.8374+110.346+62.2154+109.064+63.7783+109.402C63.8333+109.402+63.8743+109.402+63.9267+109.403L63.9366+109.403C64.8408+109.406+65.3926+109.432+65.9285+109.387C66.221+109.339+66.5013+109.234+66.7541+109.079C67.7378+108.587+68.353+107.576+68.3368+106.476C68.5033+105.356+68.0163+104.24+67.0823+103.6Z" fill-rule="evenodd" fill="#ffffff" opacity="1"/>
<path d="M18.3501+188.141L18.3501+188.097C18.3119+185.946+19.1539+183.874+20.6808+182.36C22.2078+180.845+24.2872+180.021+26.437+180.077C28.7237+179.963+30.9497+180.834+32.5518+182.47L30.3809+184.972C29.3391+183.892+27.9149+183.264+26.4145+183.222C25.171+183.247+23.9906+183.775+23.1431+184.685C22.2955+185.595+21.8531+186.81+21.917+188.053L21.917+188.097C21.8438+189.345+22.2817+190.57+23.13+191.49C23.9782+192.409+25.1639+192.944+26.4146+192.972C27.9667+192.957+29.4432+192.299+30.4912+191.154L32.6626+193.347C31.0807+195.198+28.7362+196.219+26.3037+196.117C24.1801+196.151+22.1336+195.322+20.6338+193.818C19.1341+192.314+18.3098+190.265+18.3501+188.141Z" fill-rule="evenodd" fill="#ffffff" opacity="1"/>
<path d="M35.3828+180.343L38.7944+180.343L38.7944+192.75L46.5269+192.75L46.5269+195.851L35.3829+195.851L35.3828+180.343Z" fill-rule="evenodd" fill="#ffffff" opacity="1"/>
<path d="M47.5195+188.414L47.5195+188.369C47.6417+183.914+51.2826+180.362+55.7399+180.35C60.1972+180.338+63.857+183.87+64.0029+188.325L64.0029+188.369C63.8814+192.825+60.2406+196.378+55.783+196.39C51.3255+196.402+47.6653+192.869+47.5195+188.414ZM60.4365+188.141L60.4365+188.097C60.4803+186.822+60.0053+185.583+59.1201+184.665C58.2348+183.746+57.015+183.226+55.7393+183.223C54.4726+183.217+53.259+183.731+52.3803+184.643C51.5015+185.555+51.0341+186.787+51.0864+188.053L51.0864+188.097C51.0424+189.372+51.5172+190.61+52.4025+191.529C53.2878+192.448+54.5078+192.968+55.7837+192.972C57.0503+192.976+58.2638+192.463+59.1425+191.551C60.0212+190.639+60.4887+189.407+60.4365+188.141Z" fill-rule="evenodd" fill="#ffffff" opacity="1"/>
<path d="M66.7891+189.205L66.7891+180.343L70.2012+180.343L70.2012+189.116C70.2012+191.641+71.4639+192.949+73.5469+192.949C75.6289+192.949+76.8926+191.686+76.8926+189.226L76.8926+180.343L80.3047+180.343L80.3047+189.094C80.3047+193.791+77.668+196.096+73.502+196.096C69.3369+196.096+66.7891+193.768+66.7891+189.205Z" fill-rule="evenodd" fill="#ffffff" opacity="1"/>
<path d="M83.7773+180.343L89.8252+180.343C94.7002+180.343+98.0674+183.688+98.0674+188.053L98.0674+188.097C98.0674+192.462+94.7002+195.851+89.8252+195.851L83.7773+195.851L83.7773+180.343ZM89.8252+193.044C91.0784+193.118+92.3041+192.656+93.1961+191.773C94.0881+190.889+94.5622+189.668+94.5+188.414L94.5+188.369C94.5641+187.111+94.0921+185.884+93.2012+184.993C92.3102+184.102+91.0836+183.63+89.8252+183.694L87.1895+183.694L87.1895+193.044L89.8252+193.044Z" fill-rule="evenodd" fill="#ffffff" opacity="1"/>
<path d="M16.9443+204.965L20.0903+204.965L27.3574+214.514L27.3574+204.965L30.7251+204.965L30.7251+220.473L27.8228+220.473L20.3115+210.614L20.3115+220.473L16.9443+220.473L16.9443+204.965Z" fill-rule="evenodd" fill="#ffffff" opacity="1"/>
<path d="M39.7588+204.853L42.9048+204.853L49.5513+220.473L45.9844+220.473L44.5664+216.995L38.0083+216.995L36.5903+220.473L33.1118+220.473L39.7588+204.853ZM43.3477+214.255L41.2871+209.225L39.2266+214.255L43.3477+214.255Z" fill-rule="evenodd" fill="#ffffff" opacity="1"/>
<path d="M53.5571+208.11L48.8379+208.11L48.8379+204.965L61.6885+204.965L61.6885+208.11L56.9687+208.11L56.9687+220.473L53.5571+220.473L53.5571+208.11Z" fill-rule="evenodd" fill="#ffffff" opacity="1"/>
<path d="M64.4531+204.965L67.8643+204.965L67.8643+220.473L64.4531+220.473L64.4531+204.965Z" fill-rule="evenodd" fill="#ffffff" opacity="1"/>
<path d="M70.4102+204.965L74.1768+204.965L78.2314+215.888L82.2861+204.965L85.9639+204.965L79.6943+220.584L76.6807+220.584L70.4102+204.965Z" fill-rule="evenodd" fill="#ffffff" opacity="1"/>
<path d="M88.3516+204.965L100.05+204.965L100.05+208L91.7412+208L91.7412+211.146L99.0527+211.146L99.0527+214.182L91.7412+214.182L91.7412+217.438L100.16+217.438L100.16+220.474L88.3516+220.474L88.3516+204.965Z" fill-rule="evenodd" fill="#ffffff" opacity="1"/>
<path d="M1.11816+242.837L3.13477+240.422C4.39956+241.589+6.04471+242.258+7.76514+242.305C9.16114+242.305+10.0029+241.751+10.0029+240.843L10.0029+240.799C10.0029+239.934+9.47119+239.491+6.87893+238.826C3.75493+238.029+1.73879+237.165+1.73879+234.085L1.73879+234.041C1.73879+231.227+3.99856+229.366+7.16701+229.366C9.25814+229.332+11.2955+230.03+12.9273+231.338L11.1548+233.908C9.9962+233.002+8.59033+232.469+7.12258+232.379C5.81545+232.379+5.12844+232.977+5.12844+233.73L5.12844+233.775C5.12844+234.794+5.79344+235.127+8.47414+235.813C11.6201+236.633+13.3926+237.763+13.3926+240.466L13.3926+240.511C13.3926+243.59+11.044+245.318+7.69875+245.318C5.27498+245.327+2.93273+244.444+1.11816+242.837Z" fill-rule="evenodd" fill="#ffffff" opacity="1"/>
<path d="M16.3574+229.588L28.0557+229.588L28.0557+232.623L19.7471+232.623L19.7471+235.769L27.0586+235.769L27.0586+238.805L19.7471+238.805L19.7471+242.061L28.166+242.061L28.166+245.097L16.3574+245.097L16.3574+229.588Z" fill-rule="evenodd" fill="#ffffff" opacity="1"/>
<path d="M30.5098+237.387L30.5098+237.342C30.4715+235.191+31.3134+233.119+32.8404+231.604C34.3674+230.09+36.4468+229.265+38.5967+229.321C40.8835+229.207+43.1095+230.079+44.7114+231.715L42.54+234.218C41.4985+233.137+40.0744+232.509+38.5742+232.468C37.3307+232.492+36.1504+233.02+35.3029+233.931C34.4553+234.841+34.0129+236.056+34.0766+237.298L34.0766+237.342C34.0035+238.59+34.4413+239.815+35.2896+240.735C36.1378+241.654+37.3235+242.189+38.5742+242.217C40.1263+242.202+41.6028+241.544+42.6508+240.399L44.8222+242.593C43.2405+244.443+40.8961+245.464+38.4638+245.362C36.3401+245.397+34.2935+244.567+32.7937+243.063C31.2938+241.559+30.4695+239.51+30.5098+237.387Z" fill-rule="evenodd" fill="#ffffff" opacity="1"/>
<path d="M47.2983+238.45L47.2983+229.588L50.7104+229.588L50.7104+238.361C50.7104+240.887+51.9736+242.194+54.0561+242.194C56.1387+242.194+57.4014+240.931+57.4014+238.472L57.4014+229.588L60.8135+229.588L60.8135+238.339C60.8135+243.036+58.1768+245.341+54.0117+245.341C49.8467+245.341+47.2983+243.014+47.2983+238.45Z" fill-rule="evenodd" fill="#ffffff" opacity="1"/>
<path d="M64.2871+229.86L71.3769+229.86C73.0336+229.756+74.6624+230.323+75.8965+231.434C76.8+232.387+77.2793+233.666+77.2256+234.979L77.2256+235.022C77.3279+237.191+75.9669+239.16+73.9023+239.83L77.6914+245.369L73.7031+245.369L70.3799+240.406L67.6992+240.406L67.6992+245.369L64.2871+245.369L64.2871+229.86ZM71.1553+237.393C72.8164+237.393+73.7695+236.507+73.7695+235.199L73.7695+235.155C73.7695+233.693+72.75+232.939+71.0889+232.939L67.6992+232.939L67.6992+237.393L71.1553+237.393Z" fill-rule="evenodd" fill="#ffffff" opacity="1"/>
<path d="M80.4551+229.86L83.8662+229.86L83.8662+245.369L80.4551+245.369L80.4551+229.86Z" fill-rule="evenodd" fill="#ffffff" opacity="1"/>
<path d="M91.3535+233.006L86.6338+233.006L86.6338+229.86L99.4844+229.86L99.4844+233.006L94.7656+233.006L94.7656+245.369L91.3535+245.369L91.3535+233.006Z" fill-rule="evenodd" fill="#ffffff" opacity="1"/>
<path d="M106.458+239.254L100.498+229.86L104.486+229.86L108.186+236.086L111.953+229.86L115.83+229.86L109.87+239.187L109.87+245.369L106.458+245.369L106.458+239.254Z" fill-rule="evenodd" fill="#ffffff" opacity="1"/>
</g>
</svg>
