<?xml version="1.0" encoding="UTF-8" standalone="no"?> <!-- Created with Vectornator for iOS (http://vectornator.io/) --><!DOCTYPE svg PUBLIC "-//W3C//DTD SVG 1.1//EN" "http://www.w3.org/Graphics/SVG/1.1/DTD/svg11.dtd">
<svg height="100%" style="fill-rule:nonzero;clip-rule:evenodd;stroke-linecap:round;stroke-linejoin:round;" xmlns:xlink="http://www.w3.org/1999/xlink" xmlns="http://www.w3.org/2000/svg" xml:space="preserve" width="100%" xmlns:vectornator="http://vectornator.io" version="1.1" viewBox="0 0 292.5 178">
<metadata>
<vectornator:setting key="DimensionsVisible" value="0"/>
<vectornator:setting key="PencilOnly" value="0"/>
<vectornator:setting key="SnapToPoints" value="0"/>
<vectornator:setting key="OutlineMode" value="0"/>
<vectornator:setting key="CMYKEnabledKey" value="0"/>
<vectornator:setting key="RulersVisible" value="1"/>
<vectornator:setting key="SnapToEdges" value="0"/>
<vectornator:setting key="GuidesVisible" value="0"/>
<vectornator:setting key="DisplayWhiteBackground" value="0"/>
<vectornator:setting key="doHistoryDisabled" value="0"/>
<vectornator:setting key="SnapToGuides" value="1"/>
<vectornator:setting key="TimeLapseWatermarkDisabled" value="0"/>
<vectornator:setting key="Units" value="Points"/>
<vectornator:setting key="DynamicGuides" value="1"/>
<vectornator:setting key="IsolateActiveLayer" value="0"/>
<vectornator:setting key="SnapToGrid" value="0"/>
</metadata>
<defs/>
<g id="Untitled" vectornator:layerName="Untitled">
<path d="M3.783+67.0943L3.783+108.461L57.441+138.059L111.162+108.426L111.162+67.1293L57.441+37.4963L3.783+67.0943Z" opacity="1" fill="none"/>
<path d="M57.441+37.4963L111.162+67.1293L111.162+36.2953L111.147+34.8993L57.545+5.09729L57.337+5.09729L3.783+34.8723L3.783+67.0943L57.441+37.4963Z" fill-rule="evenodd" fill="#4a6ca4" opacity="1"/>
<path d="M57.441+139.678L3.783+110.08L3.783+142.302L57.337+172.077L57.545+172.077L111.147+142.276L111.162+140.879L111.162+110.045L57.441+139.678ZM4.492+66.1243L4.492+66.2213L4.652+66.1263L4.492+66.1243Z" fill-rule="evenodd" fill="#85c2d2" opacity="1"/>
<path d="M85.245+59.1773L89.736+58.9893L91.19+63.7443L89.736+58.9893L85.245+59.1773Z" fill-rule="evenodd" fill="#444445" opacity="1"/>
<path d="M17.11+51.7823L21.894+56.9353L23.296+63.7443L24.75+58.9893L29.241+59.1773L26.228+53.0083L33.399+51.0113L17.006+42.5043L22.034+51.0113L17.11+51.7823ZM85.65+59.1773L90.141+58.9893L91.595+63.7443L92.996+56.9353L97.78+51.7823L92.856+51.0113L97.884+42.5043L81.492+51.0113L88.663+53.0083L85.65+59.1773Z" fill-rule="evenodd" fill="#474756" opacity="1"/>
<path d="M42.7225+104.919C42.7225+104.919+50.0584+100.172+49.5921+92.7284C49.5476+92.0158+50.0935+85.2023+43.24+82.3785C36.2127+79.483+28.2865+83.9056+24.4636+85.342C23.4034+85.7867+22.4538+86.4587+21.6818+87.3107C21.452+87.5473+21.195+87.8116+21.4265+88.1689C21.61+88.4522+21.9359+88.3973+22.2113+88.3601C22.4925+88.3221+22.7613+88.203+23.0414+88.1475C23.4845+88.0597+24.0176+87.7092+24.3325+88.2577C24.6213+88.7606+24.1839+89.1409+23.8377+89.4533C22.246+90.8079+20.4915+91.9585+18.6148+92.8784C16.1398+94.1853+13.2809+94.5703+10.5484+93.9646C8.4185+93.4145+6.50849+92.2247+5.07587+90.5554C4.88821+90.3676+4.7284+90.0383+4.38775+90.165C4.05101+90.2903+4.14823+90.6346+4.14029+90.8977C4.11403+92.0262+4.38299+93.142+4.92055+94.1345C6.8821+97.8973+10.1935+100.24+13.8754+102.144L46.4404+121.582C43.5187+117.698+35.8575+111.189+42.7225+104.919ZM31.8202+89.8958C31.4846+89.244+31.5404+88.4595+31.9647+87.8617C33.2105+86.2753+35.1759+85.4292+37.1844+85.6147C38.0114+85.5861+38.8382+85.6756+39.6398+85.8804C42.3978+86.5511+44.6387+88.5547+45.6128+91.2206C45.8108+91.7642+45.7018+92.3721+45.3273+92.813C44.0856+94.3594+42.1633+95.1968+40.1854+95.053C38.3729+95.0756+36.5896+94.5952+35.0337+93.6651C33.5963+92.7737+32.473+91.4561+31.8202+89.8958ZM110.503+90.165C110.162+90.0383+110.002+90.3677+109.815+90.5555C108.382+92.2247+106.472+93.4146+104.342+93.9646C101.61+94.5703+98.7508+94.1853+96.2757+92.8784C94.399+91.9585+92.6445+90.8079+91.0529+89.4533C90.7067+89.1409+90.2693+88.7606+90.558+88.2577C90.873+87.7092+91.4061+88.0597+91.8492+88.1475C92.1292+88.203+92.398+88.3221+92.6793+88.3601C92.9547+88.3973+93.2805+88.4522+93.4641+88.1689C93.6955+87.8116+93.4385+87.5473+93.2087+87.3107C92.4367+86.4588+91.4871+85.7867+90.4269+85.342C86.6041+83.9056+78.6778+79.483+71.6505+82.3785C64.7971+85.2023+65.3429+92.0157+65.2983+92.7284C64.8321+100.172+72.1679+104.919+72.1679+104.919C79.033+111.189+71.3719+117.698+68.4502+121.582L101.015+102.144C104.697+100.24+108.008+97.8972+109.97+94.1345C110.508+93.142+110.777+92.0262+110.75+90.8978C110.742+90.6347+110.84+90.2903+110.503+90.165ZM83.0703+89.8958C82.4176+91.4561+81.2942+92.7738+79.8568+93.6652C78.301+94.5952+76.5177+95.0756+74.7052+95.053C72.7272+95.1968+70.8049+94.3594+69.5633+92.813C69.1888+92.3721+69.0798+91.7641+69.2777+91.2206C70.2518+88.5546+72.4927+86.5511+75.2507+85.8804C76.0524+85.6756+76.8793+85.5861+77.7062+85.6147C79.7147+85.4293+81.6801+86.2754+82.9259+87.8617C83.3502+88.4595+83.4059+89.244+83.0703+89.8958Z" fill-rule="evenodd" fill="#ffffff" opacity="1"/>
<path d="M8.88782+83.844C8.17288+84.7821+7.10582+85.4554+6.55166+86.6852C7.98761+86.6833+9.39188+86.2629+10.5926+85.4753C12.628+84.1669+14.572+82.7217+16.4114+81.1496C16.977+80.6636+17.9851+80.1938+17.834+79.5321C17.6775+78.8464+16.5616+79.0236+15.8544+78.8568C15.5403+78.7827+15.1332+78.8154+15.0817+78.3844C15.0352+77.9959+15.3642+77.8152+15.6534+77.6525C20.8737+74.7167+28.4717+71.6672+36.761+73.7551L35.3852+70.1755C35.3852+70.1755+45.6915+76.2534+55.2057+77.8284C55.9589+77.9531+56.7075+78.0516+57.4453+78.1146C58.183+78.0516+58.9316+77.9531+59.6849+77.8284C69.199+76.2533+79.5053+70.1755+79.5053+70.1755L78.1295+73.7551C86.4189+71.6672+94.0169+74.7167+99.2372+77.6525C99.5263+77.8152+99.8553+77.9959+99.8089+78.3844C99.7573+78.8154+99.3502+78.7827+99.0362+78.8568C98.3289+79.0237+97.213+78.8464+97.0565+79.5321C96.9054+80.1938+97.9135+80.6636+98.4792+81.1497C100.319+82.7217+102.263+84.167+104.298+85.4753C105.499+86.2629+106.903+86.6834+108.339+86.6852C107.785+85.4554+106.718+84.7821+106.003+83.844C105.29+82.9088+104.498+82.0307+103.788+81.0936C103.268+80.4066+103.542+80.0272+104.375+80.1041C105.134+80.1741+105.884+80.3431+106.638+80.4706C107.045+80.5395+107.527+80.8146+107.792+80.3111C108.011+79.8938+107.732+79.4979+107.464+79.1654C106.636+78.137+105.784+77.1274+104.961+76.0954C104.167+75.1004+103.425+74.0658+102.614+73.0848C100.018+69.9456+99.9146+66.4103+101.304+62.8907C103.85+56.1759+104.796+48.9604+104.067+41.8164C103.954+40.4199+103.889+39.0187+103.744+37.6253C103.472+35.0037+101.918+33.5205+99.2266+33.1883C96.7886+32.8874+94.6326+33.7993+92.4234+34.5713C86.5394+36.6273+78.2082+42.94+73.2062+47.2266C72.8996+47.4894+72.6023+47.7465+72.322+47.9925L57.4454+47.6206L42.5688+47.9925C42.2885+47.7464+41.9912+47.4893+41.6845+47.2266C36.6825+42.9399+28.3512+36.6273+22.4672+34.5713C20.258+33.7993+18.1021+32.8874+15.6641+33.1883C12.9723+33.5205+11.4188+35.0037+11.1467+37.6253C11.002+39.0187+10.9366+40.4198+10.8237+41.8164C10.095+48.9604+11.0409+56.1759+13.5862+62.8906C14.976+66.4102+14.8722+69.9455+12.2769+73.0848C11.4659+74.0658+10.7233+75.1003+9.92973+76.0953C9.10673+77.1273+8.25456+78.137+7.42673+79.1653C7.15903+79.4978+6.87916+79.8937+7.0989+80.311C7.36401+80.8145+7.84605+80.5394+8.253+80.4706C9.00657+80.3431+9.75636+80.1741+10.5156+80.1041C11.3486+80.0272+11.6226+80.4065+11.1021+81.0936C10.3922+82.0307+9.60064+82.9089+8.88782+83.844ZM97.8847+42.5047L92.8562+51.0115L97.78+51.7825L92.9962+56.9355L91.5952+63.7447L90.1404+58.9897L85.6494+59.1771L88.6625+53.0083L81.4913+51.0115L97.8847+42.5047ZM33.3993+51.0115L26.228+53.0083L29.2412+59.177L24.7502+58.9895L23.2953+63.7446L21.8943+56.9353L17.1105+51.7823L22.0343+51.0114L17.0058+42.5046L33.3993+51.0115ZM65.8656+106.889C63.436+105.04+60.4965+103.981+57.4453+103.858C54.3941+103.981+51.4545+105.04+49.025+106.89C48.0909+107.529+47.6039+108.646+47.7704+109.766C47.7542+110.865+48.3694+111.877+49.3531+112.368C49.606+112.523+49.8863+112.628+50.1787+112.677C50.7146+112.722+51.2664+112.695+52.1707+112.692L52.1805+112.692C52.2329+112.692+52.274+112.691+52.3288+112.691C53.8918+112.354+55.2699+113.635+56.3501+115.941C56.7303+116.752+57.0884+117.192+57.4453+117.302C57.8022+117.192+58.1602+116.752+58.5403+115.941C59.6206+113.635+60.9987+112.354+62.5616+112.691C62.6166+112.691+62.6576+112.692+62.71+112.692L62.7199+112.692C63.6241+112.695+64.1759+112.722+64.7119+112.677C65.0043+112.628+65.2846+112.523+65.5375+112.368C66.5212+111.877+67.1363+110.865+67.1202+109.766C67.2867+108.646+66.7996+107.529+65.8656+106.889Z" fill-rule="evenodd" fill="#ffffff" opacity="1"/>
<path d="M129.194+53.9909L129.194+53.9289C129.14+50.9033+130.325+47.9871+132.473+45.8561C134.622+43.7252+137.548+42.5648+140.573+42.6437C143.79+42.4833+146.922+43.7089+149.177+46.0104L146.121+49.5334C144.656+48.0124+142.652+47.1279+140.541+47.0705C136.863+47.0705+134.213+50.1257+134.213+53.8664L134.213+53.9289C134.213+57.6696+136.801+60.7868+140.541+60.7868C143.035+60.7868+144.563+59.7893+146.277+58.2307L149.332+61.317C147.107+63.9208+143.808+65.3574+140.386+65.2135C137.398+65.2619+134.518+64.0941+132.408+61.9779C130.297+59.8617+129.138+56.9789+129.194+53.9909Z" fill-rule="evenodd" fill="#ffffff" opacity="1"/>
<path d="M153.168+43.0177L157.969+43.0177L157.969+60.4752L168.849+60.4752L168.849+64.8395L153.168+64.8395L153.168+43.0177Z" fill-rule="evenodd" fill="#ffffff" opacity="1"/>
<path d="M170.253+53.9909L170.253+53.9289C170.424+47.6591+175.547+42.6605+181.819+42.6436C188.091+42.6267+193.241+47.5976+193.446+53.8664L193.446+53.9289C193.275+60.1985+188.152+65.1967+181.88+65.2135C175.608+65.2303+170.458+60.2595+170.253+53.9909ZM188.427+53.9909L188.427+53.9289C188.489+52.1349+187.821+50.3926+186.575+49.1C185.33+47.8074+183.613+47.0751+181.818+47.0705C180.036+47.0635+178.329+47.7855+177.092+49.069C175.856+50.3524+175.198+52.0857+175.271+53.8664L175.271+53.9289C175.21+55.7229+175.878+57.4652+177.124+58.7577C178.369+60.0502+180.086+60.7824+181.881+60.7868C183.663+60.7938+185.37+60.0718+186.607+58.7882C187.843+57.5047+188.501+55.7714+188.427+53.9909Z" fill-rule="evenodd" fill="#ffffff" opacity="1"/>
<path d="M197.376+55.4874L197.376+43.0177L202.177+43.0177L202.177+55.3629C202.177+58.9166+203.954+60.7555+206.884+60.7555C209.814+60.7555+211.592+58.9787+211.592+55.5187L211.592+43.0177L216.393+43.0177L216.393+55.3317C216.393+61.9406+212.683+65.1823+206.822+65.1823C200.961+65.1823+197.376+61.9093+197.376+55.4874Z" fill-rule="evenodd" fill="#ffffff" opacity="1"/>
<path d="M221.288+43.0177L229.799+43.0177C236.657+43.0177+241.396+47.7252+241.396+53.8663L241.396+53.9288C241.396+60.07+236.657+64.8395+229.799+64.8395L221.288+64.8395L221.288+43.0177ZM229.799+60.5065C231.562+60.6108+233.287+59.9601+234.542+58.7169C235.797+57.4737+236.464+55.7553+236.377+53.9909L236.377+53.9289C236.467+52.1582+235.803+50.4323+234.549+49.1787C233.295+47.9251+231.569+47.2611+229.799+47.3512L226.089+47.3512L226.089+60.5065L229.799+60.5065Z" fill-rule="evenodd" fill="#ffffff" opacity="1"/>
<path d="M130.161+77.6759L134.587+77.6759L144.812+91.1119L144.812+77.6759L149.551+77.6759L149.551+99.4977L145.467+99.4977L134.899+85.6256L134.899+99.4977L130.161+99.4977L130.161+77.6759Z" fill-rule="evenodd" fill="#ffffff" opacity="1"/>
<path d="M162.271+77.5201L166.698+77.5201L176.05+99.4977L171.031+99.4977L169.036+94.6032L159.809+94.6032L157.813+99.4977L152.919+99.4977L162.271+77.5201ZM167.321+90.3639L164.422+83.2872L161.523+90.3639L167.321+90.3639Z" fill-rule="evenodd" fill="#ffffff" opacity="1"/>
<path d="M181.694+82.1027L175.054+82.1027L175.054+77.6759L193.135+77.6759L193.135+82.1027L186.495+82.1027L186.495+99.4977L181.694+99.4977L181.694+82.1027Z" fill-rule="evenodd" fill="#ffffff" opacity="1"/>
<path d="M197.034+77.6759L201.835+77.6759L201.835+99.4977L197.034+99.4977L197.034+77.6759Z" fill-rule="evenodd" fill="#ffffff" opacity="1"/>
<path d="M205.42+77.6759L210.72+77.6759L216.425+93.0446L222.129+77.6759L227.304+77.6759L218.481+99.6539L214.242+99.6539L205.42+77.6759Z" fill-rule="evenodd" fill="#ffffff" opacity="1"/>
<path d="M230.673+77.6759L247.133+77.6759L247.133+81.9469L235.442+81.9469L235.442+86.3737L245.73+86.3737L245.73+90.6442L235.442+90.6442L235.442+95.2272L247.289+95.2272L247.289+99.4977L230.673+99.4977L230.673+77.6759Z" fill-rule="evenodd" fill="#ffffff" opacity="1"/>
<path d="M128.664+130.977L131.501+127.579C133.281+129.221+135.596+130.163+138.017+130.229C139.98+130.229+141.165+129.45+141.165+128.172L141.165+128.109C141.165+126.893+140.417+126.27+136.77+125.335C132.374+124.213+129.537+122.997+129.537+118.664L129.537+118.601C129.537+114.642+132.717+112.023+137.175+112.023C140.117+111.976+142.984+112.957+145.28+114.798L142.786+118.414C141.155+117.14+139.177+116.391+137.112+116.263C135.273+116.263+134.307+117.105+134.307+118.165L134.307+118.227C134.307+119.661+135.242+120.129+139.014+121.095C143.44+122.249+145.935+123.839+145.935+127.641L145.935+127.704C145.935+132.037+142.63+134.468+137.923+134.468C134.513+134.481+131.217+133.238+128.664+130.977Z" fill-rule="evenodd" fill="#ffffff" opacity="1"/>
<path d="M150.113+112.336L166.573+112.336L166.573+116.606L154.883+116.606L154.883+121.033L165.171+121.033L165.171+125.303L154.883+125.303L154.883+129.886L166.729+129.886L166.729+134.157L150.113+134.157L150.113+112.336Z" fill-rule="evenodd" fill="#ffffff" opacity="1"/>
<path d="M170.035+123.308L170.035+123.246C169.981+120.22+171.166+117.304+173.314+115.174C175.463+113.043+178.388+111.883+181.413+111.962C184.631+111.801+187.763+113.026+190.018+115.328L186.962+118.85C185.497+117.33+183.493+116.445+181.382+116.388C177.704+116.388+175.054+119.443+175.054+123.183L175.054+123.246C175.054+126.987+177.642+130.104+181.382+130.104C183.876+130.104+185.403+129.107+187.118+127.548L190.173+130.634C187.947+133.238+184.649+134.675+181.227+134.531C178.238+134.579+175.359+133.411+173.249+131.295C171.138+129.179+169.978+126.296+170.035+123.308Z" fill-rule="evenodd" fill="#ffffff" opacity="1"/>
<path d="M193.666+124.804L193.666+112.336L198.467+112.336L198.467+124.68C198.467+128.234+200.244+130.073+203.174+130.073C206.104+130.073+207.882+128.297+207.882+124.836L207.882+112.336L212.683+112.336L212.683+124.649C212.683+131.257+208.973+134.5+203.112+134.5C197.251+134.5+193.666+131.226+193.666+124.804Z" fill-rule="evenodd" fill="#ffffff" opacity="1"/>
<path d="M217.578+112.336L227.554+112.336C229.885+112.19+232.177+112.987+233.914+114.548C235.185+115.891+235.859+117.69+235.784+119.537L235.784+119.598C235.928+122.649+234.014+125.42+231.108+126.364L236.438+134.157L230.827+134.157L226.151+127.173L222.379+127.173L222.379+134.157L217.578+134.157L217.578+112.336ZM227.242+122.934C229.58+122.934+230.921+121.687+230.921+119.848L230.921+119.786C230.921+117.728+229.487+116.669+227.148+116.669L222.379+116.669L222.379+122.934L227.242+122.934Z" fill-rule="evenodd" fill="#ffffff" opacity="1"/>
<path d="M240.338+112.336L245.139+112.336L245.139+134.157L240.338+134.157L240.338+112.336Z" fill-rule="evenodd" fill="#ffffff" opacity="1"/>
<path d="M255.676+116.762L249.035+116.762L249.035+112.336L267.116+112.336L267.116+116.762L260.477+116.762L260.477+134.157L255.676+134.157L255.676+116.762Z" fill-rule="evenodd" fill="#ffffff" opacity="1"/>
<path d="M276.938+125.553L268.552+112.336L274.163+112.336L279.369+121.095L284.669+112.336L290.124+112.336L281.738+125.46L281.738+134.157L276.938+134.157L276.938+125.553Z" fill-rule="evenodd" fill="#ffffff" opacity="1"/>
</g>
</svg>
