<svg width="1277" height="203" viewBox="0 0 1277 203" fill="none" xmlns="http://www.w3.org/2000/svg">
<g clip-path="url(#clip0_566_58)">
<rect x="254.749" y="162.422" width="172.311" height="15.189" fill="#FFB800"/>
<rect x="1101.88" y="162.422" width="172.459" height="15.189" fill="#FFB800"/>
<path d="M303.196 77.9338C308.091 78.031 312.94 76.9626 317.342 74.8168C321.743 72.671 325.572 69.5094 328.511 65.5928L342.117 79.516C331.359 91.5407 319.018 97.553 304.461 97.553C297.893 97.8036 291.341 96.7278 285.197 94.39C279.054 92.0522 273.444 88.5002 268.704 83.9462C264.088 79.4995 260.462 74.1291 258.063 68.1857C255.664 62.2422 254.545 55.8595 254.781 49.4545C254.601 42.9809 255.774 36.5411 258.226 30.5472C260.678 24.5533 264.355 19.1374 269.02 14.6463C274.039 9.91142 279.965 6.24241 286.44 3.86075C292.916 1.47909 299.806 0.434167 306.697 0.789039C313.587 1.14391 320.334 2.89122 326.531 5.92552C332.727 8.95981 338.245 13.2182 342.75 18.4436L329.776 33.3162C326.918 29.4678 323.195 26.3457 318.907 24.2019C314.62 22.0581 309.888 20.9527 305.094 20.9751C297.622 20.8313 290.377 23.5481 284.842 28.5696C281.97 31.2082 279.715 34.4479 278.238 38.0579C276.761 41.6679 276.099 45.5592 276.299 49.4545C276.098 53.3414 276.697 57.2281 278.058 60.8746C279.418 64.5211 281.512 67.85 284.209 70.6558C289.416 75.3536 296.183 77.9477 303.196 77.9338Z" fill="white"/>
<path d="M358.571 96.2871V2.30518H379.456V77.6173H419.644V96.2871H358.571Z" fill="white"/>
<path d="M511.411 83.3135C501.903 92.2579 489.34 97.2381 476.286 97.2381C463.232 97.2381 450.67 92.2579 441.162 83.3135C436.525 78.867 432.864 73.504 430.413 67.5659C427.961 61.6277 426.772 55.2444 426.922 48.8218C426.743 42.3954 427.918 36.0032 430.372 30.0607C432.825 24.1183 436.501 18.7586 441.162 14.3301C450.67 5.38566 463.232 0.405518 476.286 0.405518C489.34 0.405518 501.903 5.38566 511.411 14.3301C516.048 18.7766 519.708 24.1396 522.16 30.0777C524.611 36.0159 525.8 42.3992 525.651 48.8218C525.83 55.2482 524.654 61.6404 522.201 67.5829C519.748 73.5253 516.071 78.885 511.411 83.3135ZM504.133 48.8218C504.191 40.8703 501.254 33.1881 495.905 27.304C493.387 24.5158 490.311 22.2869 486.877 20.7614C483.443 19.2359 479.727 18.4477 475.97 18.4477C472.212 18.4477 468.497 19.2359 465.063 20.7614C461.629 22.2869 458.553 24.5158 456.034 27.304C450.625 33.1506 447.678 40.8577 447.807 48.8218C447.748 56.7733 450.686 64.4555 456.034 70.3396C458.553 73.1278 461.629 75.3567 465.063 76.8822C468.497 78.4077 472.212 79.1959 475.97 79.1959C479.727 79.1959 483.443 78.4077 486.877 76.8822C490.311 75.3567 493.387 73.1278 495.905 70.3396C498.646 67.4853 500.786 64.1103 502.199 60.4143C503.613 56.7183 504.27 52.7764 504.133 48.8218Z" fill="white"/>
<path d="M568.368 72.2373C570.038 74.4015 572.203 76.1342 574.68 77.2903C577.158 78.4464 579.876 78.9924 582.608 78.8825C585.299 79.0254 587.983 78.4922 590.415 77.3314C592.847 76.1707 594.949 74.4194 596.531 72.2373C600.165 67.0687 601.949 60.8252 601.594 54.5168V2.62109H622.479V55.1497C622.479 68.7565 618.681 79.199 611.087 86.477C607.264 90.1434 602.748 93.0112 597.804 94.9128C592.86 96.8144 587.586 97.7117 582.291 97.5523C576.949 97.7118 571.627 96.8157 566.632 94.9152C561.636 93.0147 557.064 90.1472 553.179 86.477C545.584 79.199 541.787 68.7565 541.787 55.1497V2.62109H562.672V54.5168C562.665 60.8748 564.658 67.074 568.368 72.2373Z" fill="white"/>
<path d="M716.147 14.6462C725.007 22.8736 729.754 34.2654 729.754 48.8215C729.754 63.3776 725.323 75.0858 716.78 83.6296C708.236 92.1734 694.629 96.2871 676.908 96.2871H644.315V2.30518H677.541C694.313 2.30518 707.286 6.41886 716.147 14.6462ZM700.958 70.6557C706.021 65.9091 708.552 58.6311 708.552 49.4544C708.552 40.2777 706.021 32.9996 700.958 28.2531C695.895 23.5065 687.984 20.6586 677.225 20.6586H665.517V77.9337H678.807C686.841 78.3617 694.743 75.7651 700.958 70.6557Z" fill="white"/>
<path d="M849.05 2.30518H869.935V96.2871H849.05L804.116 37.4297V96.2871H783.231V2.30518H802.851L849.05 62.7447V2.30518Z" fill="white"/>
<path d="M960.12 96.2871L951.26 76.0351H911.705L902.845 96.2871H880.378L920.882 2.30518H941.134L981.638 96.2871H960.12ZM931.957 30.4681L920.249 57.6817H943.665L931.957 30.4681Z" fill="white"/>
<path d="M1026.57 20.658V96.603H1005.69V20.658H979.106V2.62109H1053.47V20.658H1026.57Z" fill="white"/>
<path d="M1068.34 2.30518H1089.23V96.2871H1068.34V2.30518Z" fill="white"/>
<path d="M1147.13 62.1119L1171.18 2.30518H1193.97L1156.31 96.2871H1138.59L1100.93 2.30518H1123.72L1147.13 62.1119Z" fill="white"/>
<path d="M1272.76 2.30518V20.975H1225.93V40.2777H1268.01V58.3146H1225.93V77.9337H1274.34V96.6035H1205.04V2.62161H1272.76V2.30518Z" fill="white"/>
<path d="M28.8427 135.302H0.046875V202.925H67.4481V173.844H28.8427V135.302Z" fill="white"/>
<path d="M173.772 135.619V173.844H135.167V202.925H202.568V135.302H173.456L173.772 135.619Z" fill="white"/>
<path d="M0.046875 68.0282H29.1591L28.8427 67.7118V29.4861H67.4481V0.405518H0.046875V68.0282Z" fill="white"/>
<path d="M135.167 0.405518V29.4861H173.772V68.0282H202.568V0.405518H135.167Z" fill="white"/>
<path opacity="0.65" d="M131.368 68.0282L92.7623 29.4861H135.165V0.405518H67.4473V29.4861L106.053 68.0282H131.368Z" fill="white"/>
<path opacity="0.65" d="M96.5595 135.302H71.2445L103.205 167.231L109.533 173.844H67.4473V202.925H135.165V173.528L115.862 154.542L96.5595 135.302Z" fill="white"/>
<path opacity="0.65" d="M173.772 68.0281V110.051L167.127 103.406L135.167 71.4772V97.077L154.153 116.063L173.456 135.334H202.568V68.0281H173.772Z" fill="white"/>
<path opacity="0.65" d="M67.4481 106.254L29.1591 68.0281H0.046875V135.303H28.8427V93.2798L67.4481 131.854V106.254Z" fill="white"/>
<path d="M498.976 195.334H513.557L492.9 143.16H478.319L457.662 195.334H472.243L475.433 187.36H495.786L498.976 195.334ZM479.306 177.563L485.61 161.538L491.913 177.563H479.306ZM523.061 195.334H536.047V179.006H547.287C558.831 179.006 567.109 171.639 567.109 161.083C567.109 150.526 558.831 143.16 547.287 143.16H523.061V195.334ZM536.047 167.158V155.007H546.148C550.629 155.007 553.742 157.437 553.742 161.083C553.742 164.728 550.629 167.158 546.148 167.158H536.047ZM577.682 195.334H590.668V179.006H601.908C613.452 179.006 621.73 171.639 621.73 161.083C621.73 150.526 613.452 143.16 601.908 143.16H577.682V195.334ZM590.668 167.158V155.007H600.769C605.25 155.007 608.364 157.437 608.364 161.083C608.364 164.728 605.25 167.158 600.769 167.158H590.668ZM654.44 195.334H673.502C691.425 195.334 704.108 184.474 704.108 169.209C704.108 153.944 691.425 143.16 673.502 143.16H654.44V195.334ZM667.426 183.563V154.931H675.476C684.438 154.931 690.741 160.855 690.741 169.209C690.741 177.563 684.438 183.563 675.476 183.563H667.426ZM756.006 154.779V143.16H714.92V195.334H756.006V183.714H727.906V174.525H753.424V162.905H727.906V154.779H756.006ZM780.822 183.714V143.16H767.835V195.334H805.959V183.714H780.822ZM816.152 195.334H829.139V143.16H816.152V195.334ZM880.026 143.16L866.736 176.803L853.369 143.16H838.788L859.369 195.334H874.026L894.607 143.16H880.026ZM945.343 154.779V143.16H904.257V195.334H945.343V183.714H917.244V174.525H942.761V162.905H917.244V154.779H945.343ZM1001.52 195.334L989.145 177.791C996.512 175.209 1001.22 169.057 1001.22 161.083C1001.22 150.526 992.943 143.16 981.399 143.16H957.172V195.334H970.159V179.006H975.323L986.791 195.334H1001.52ZM970.159 155.007H980.26C984.741 155.007 987.854 157.437 987.854 161.083C987.854 164.728 984.741 167.158 980.26 167.158H970.159V155.007ZM1028.48 195.334H1041.55V177.335L1061.75 143.16H1047.32L1035.01 165.184L1023.24 143.16H1008.28L1028.48 177.335V195.334Z" fill="white"/>
</g>
<defs>
<clipPath id="clip0_566_58">
<rect width="1276.19" height="202.52" fill="white" transform="translate(0.046875 0.405518)"/>
</clipPath>
</defs>
</svg>
