<?xml version="1.0" encoding="UTF-8"?> <svg xmlns="http://www.w3.org/2000/svg" xmlns:xlink="http://www.w3.org/1999/xlink" version="1.1" id="Layer_1" x="0px" y="0px" viewBox="0 0 250 40" style="enable-background:new 0 0 250 40;" xml:space="preserve"> <style type="text/css"> .st0{fill:#FFFFFF;} .st1{opacity:0.8;} .st2{opacity:0.8;fill:#FFFFFF;enable-background:new ;} </style> <path class="st0" d="M59.4,17.1c1,0,1.9-0.2,2.8-0.6c0.9-0.4,1.6-1,2.2-1.8l2.7,2.7c-2.1,2.3-4.5,3.4-7.4,3.4 c-1.3,0.1-2.6-0.2-3.8-0.6c-1.2-0.4-2.3-1.1-3.2-2c-0.9-0.8-1.6-1.9-2.1-3c-0.5-1.1-0.7-2.4-0.6-3.6c0-1.2,0.2-2.5,0.7-3.6 c0.5-1.1,1.2-2.2,2.1-3c1-0.9,2.1-1.6,3.4-2.1c1.3-0.5,2.6-0.7,4-0.6c1.3,0.1,2.7,0.4,3.9,1s2.3,1.4,3.2,2.4l-2.5,2.8 c-0.6-0.7-1.3-1.3-2.1-1.7c-0.8-0.4-1.8-0.6-2.7-0.6c-1.5,0-2.9,0.5-4,1.5c-0.6,0.5-1,1.1-1.3,1.8c-0.3,0.7-0.4,1.4-0.4,2.2 c0,0.7,0.1,1.5,0.3,2.2c0.3,0.7,0.7,1.3,1.2,1.9C56.7,16.6,58,17.1,59.4,17.1L59.4,17.1z"></path> <path class="st0" d="M70.2,20.6v-18h4.1v14.4h7.9v3.6L70.2,20.6z"></path> <path class="st0" d="M100.2,18.2c-1.9,1.7-4.3,2.7-6.9,2.7s-5-1-6.9-2.7c-0.9-0.8-1.6-1.9-2.1-3c-0.5-1.1-0.7-2.4-0.7-3.6 c0-1.2,0.2-2.4,0.7-3.6c0.5-1.1,1.2-2.2,2.1-3c1.9-1.7,4.3-2.7,6.9-2.7s5,1,6.9,2.7c0.9,0.8,1.6,1.9,2.1,3c0.5,1.1,0.7,2.4,0.7,3.6 c0,1.2-0.2,2.4-0.7,3.6C101.8,16.3,101.1,17.3,100.2,18.2L100.2,18.2z M98.7,11.6c0-1.5-0.6-3-1.6-4.1c-0.5-0.5-1.1-1-1.8-1.3 c-0.7-0.3-1.4-0.4-2.1-0.4c-0.7,0-1.5,0.2-2.1,0.4c-0.7,0.3-1.3,0.7-1.8,1.3c-1.1,1.1-1.6,2.6-1.6,4.1c0,1.5,0.6,3,1.6,4.1 c0.5,0.5,1.1,1,1.8,1.3c0.7,0.3,1.4,0.4,2.1,0.4c0.7,0,1.5-0.2,2.1-0.4c0.7-0.3,1.3-0.7,1.8-1.3c0.5-0.5,1-1.2,1.2-1.9 C98.6,13.1,98.8,12.3,98.7,11.6L98.7,11.6z"></path> <path class="st0" d="M111.3,16c0.3,0.4,0.8,0.7,1.2,1c0.5,0.2,1,0.3,1.6,0.3c0.5,0,1.1-0.1,1.5-0.3c0.5-0.2,0.9-0.6,1.2-1 c0.7-1,1.1-2.2,1-3.4V2.7h4.1v10c0,2.6-0.7,4.6-2.2,6c-0.7,0.7-1.6,1.2-2.6,1.6c-1,0.4-2,0.5-3,0.5c-1,0-2.1-0.1-3.1-0.5 c-1-0.4-1.9-0.9-2.6-1.6c-1.5-1.4-2.2-3.4-2.2-6v-10h4.1v9.9C110.2,13.9,110.6,15,111.3,16z"></path> <path class="st0" d="M140.3,5c1.7,1.6,2.7,3.7,2.7,6.5c0,2.8-0.9,5-2.5,6.7c-1.7,1.6-4.3,2.4-7.8,2.4h-6.4v-18h6.5 C136,2.7,138.5,3.5,140.3,5z M137.3,15.7c1-0.9,1.5-2.3,1.5-4.1c0-1.8-0.5-3.1-1.5-4.1c-1-0.9-2.5-1.5-4.6-1.5h-2.3v10.9h2.6 C134.5,17.2,136.1,16.7,137.3,15.7L137.3,15.7z"></path> <path class="st0" d="M166.3,2.7h4.1v18h-4.1l-8.8-11.2v11.2h-4.1v-18h3.8l9.1,11.6V2.7z"></path> <path class="st0" d="M188.1,20.6l-1.7-3.9h-7.7l-1.7,3.9h-4.4l7.9-18h4l7.9,18H188.1z M182.6,8.1l-2.3,5.2h4.6L182.6,8.1L182.6,8.1z "></path> <path class="st0" d="M201.1,6.2v14.5H197V6.2h-5.2V2.8h14.6v3.4H201.1z"></path> <path class="st0" d="M209.3,2.7h4.1v18h-4.1V2.7z"></path> <path class="st0" d="M224.7,14.1l4.7-11.4h4.5l-7.4,18H223l-7.4-18h4.5L224.7,14.1z"></path> <path class="st0" d="M249.3,2.7v3.6h-9.2v3.7h8.2v3.4h-8.2v3.7h9.5v3.6H236v-18L249.3,2.7L249.3,2.7z"></path> <path class="st0" d="M54.7,35.9c0.5,0,1.1-0.1,1.6-0.3s0.9-0.6,1.2-1l1.5,1.5c-0.5,0.6-1.1,1.1-1.9,1.4c-0.7,0.3-1.5,0.5-2.3,0.5 c-0.7,0-1.4-0.1-2.1-0.3c-0.7-0.2-1.3-0.6-1.8-1.1c-0.5-0.5-0.9-1-1.2-1.7c-0.3-0.6-0.4-1.3-0.4-2c0-0.7,0.1-1.4,0.4-2 s0.7-1.2,1.2-1.7c0.5-0.5,1.1-0.9,1.8-1.1c0.7-0.3,1.4-0.4,2.1-0.4c0.8,0,1.6,0.1,2.4,0.5c0.7,0.3,1.4,0.8,1.9,1.4l-1.4,1.6 c-0.3-0.4-0.7-0.8-1.2-1c-0.5-0.2-1-0.3-1.5-0.3c-0.8,0-1.6,0.3-2.2,0.8c-0.3,0.3-0.6,0.6-0.7,1c-0.2,0.4-0.2,0.8-0.2,1.2 c0,0.4,0,0.8,0.2,1.2c0.1,0.4,0.4,0.7,0.7,1c0.3,0.3,0.6,0.5,1,0.6C53.9,35.9,54.3,35.9,54.7,35.9L54.7,35.9z"></path> <path class="st0" d="M69.2,36.5c-1,1-2.4,1.5-3.8,1.5c-0.7,0-1.4-0.1-2.1-0.4c-0.7-0.3-1.3-0.7-1.8-1.2c-1-1-1.6-2.3-1.6-3.7 c0-1.4,0.6-2.7,1.6-3.7c1-1,2.4-1.5,3.8-1.5c0.7,0,1.4,0.1,2.1,0.4c0.7,0.3,1.3,0.7,1.8,1.2c1,1,1.6,2.3,1.6,3.7 C70.7,34.2,70.2,35.6,69.2,36.5L69.2,36.5z M68.4,32.8c0-0.8-0.3-1.7-0.9-2.3c-0.3-0.3-0.6-0.5-1-0.7c-0.4-0.2-0.8-0.3-1.2-0.3 c-0.4,0-0.8,0.1-1.2,0.2c-0.4,0.2-0.7,0.4-1,0.7c-0.3,0.3-0.5,0.7-0.7,1.1c-0.1,0.4-0.2,0.8-0.2,1.2c0,0.8,0.3,1.7,0.9,2.3 c0.3,0.3,0.6,0.5,1,0.7c0.4,0.2,0.8,0.3,1.2,0.3c0.4,0,0.8-0.1,1.2-0.2c0.4-0.2,0.7-0.4,1-0.7C68.1,34.5,68.5,33.7,68.4,32.8 L68.4,32.8z"></path> <path class="st0" d="M81.9,31.6l-2.8,5.5h-1.4L75,31.6v6.3h-2.3V27.8h3.1l2.7,5.5l2.7-5.5h3.1v10.1h-2.3V31.6L81.9,31.6z"></path> <path class="st0" d="M93.9,28.8c0.4,0.3,0.7,0.8,0.9,1.3c0.2,0.5,0.3,1,0.2,1.5c0,1.3-0.4,2.2-1.1,2.7c-0.7,0.6-1.9,0.8-3.4,0.8 h-1.4v2.8h-2.3V27.8h3.7C92.1,27.9,93.2,28.2,93.9,28.8z M92.2,32.7c0.3-0.4,0.5-0.9,0.4-1.3c0-0.2,0-0.5-0.1-0.7 c-0.1-0.2-0.3-0.4-0.4-0.5c-0.5-0.3-1.1-0.4-1.7-0.4h-1.3v3.4h1.5c0.3,0,0.6,0,0.8-0.1C91.8,33,92,32.9,92.2,32.7L92.2,32.7z"></path> <path class="st0" d="M99.6,35.3c0.2,0.2,0.4,0.4,0.7,0.5c0.3,0.1,0.6,0.2,0.9,0.2c0.3,0,0.6-0.1,0.9-0.2c0.3-0.1,0.5-0.3,0.7-0.5 c0.4-0.6,0.6-1.2,0.6-1.9v-5.6h2.3v5.6c0,0.6-0.1,1.2-0.3,1.8c-0.2,0.6-0.5,1.1-1,1.6c-0.9,0.8-2,1.2-3.2,1.1 c-1.2,0-2.3-0.4-3.2-1.2c-0.4-0.5-0.8-1-1-1.6c-0.2-0.6-0.3-1.2-0.3-1.8v-5.6H99v5.6C98.9,34,99.1,34.7,99.6,35.3L99.6,35.3z"></path> <path class="st0" d="M112.3,29.8v8.1H110v-8.1h-2.9v-1.9h8.2v1.9H112.3z"></path> <path class="st0" d="M116.9,27.9h2.3V38h-2.3V27.9z"></path> <path class="st0" d="M128.9,27.9h2.3V38h-2.3l-4.9-6.3V38h-2.3V27.9h2.2l5.1,6.5L128.9,27.9L128.9,27.9z"></path> <path class="st0" d="M140.5,32.8h2.3v3.6c-0.5,0.6-1.2,1-2,1.3c-0.7,0.3-1.5,0.4-2.3,0.4c-1.4,0-2.8-0.5-3.8-1.5 c-0.5-0.5-0.9-1-1.2-1.7c-0.3-0.6-0.4-1.3-0.4-2c0-0.7,0.1-1.4,0.4-2c0.3-0.6,0.7-1.2,1.2-1.7c0.5-0.5,1.1-0.9,1.7-1.1 c0.7-0.3,1.4-0.4,2.1-0.4c1.4,0,2.8,0.5,3.8,1.5l-1.2,1.7c-0.4-0.4-0.8-0.6-1.3-0.8c-0.4-0.1-0.8-0.2-1.2-0.2 c-0.8,0-1.6,0.3-2.2,0.8c-0.3,0.3-0.6,0.7-0.7,1.1c-0.2,0.4-0.2,0.8-0.2,1.2c0,0.8,0.3,1.7,0.9,2.3c0.3,0.3,0.6,0.5,0.9,0.6 c0.4,0.1,0.7,0.2,1.1,0.2c0.7,0,1.4-0.1,2-0.4v-2.8L140.5,32.8z"></path> <path class="st0" d="M155.8,27.9v2h-4.8v2.2h4.5v2h-4.5V38h-2.3V27.9H155.8z"></path> <path class="st0" d="M166.5,36.5c-1,1-2.4,1.5-3.8,1.5c-0.7,0-1.4-0.1-2.1-0.4c-0.7-0.3-1.3-0.7-1.8-1.2c-1-1-1.6-2.3-1.6-3.7 c0-1.4,0.6-2.7,1.6-3.7c1-1,2.4-1.5,3.8-1.5c0.7,0,1.4,0.1,2.1,0.4c0.7,0.3,1.3,0.7,1.8,1.2c1,1,1.5,2.3,1.5,3.7 C168.1,34.2,167.5,35.6,166.5,36.5L166.5,36.5z M165.7,32.8c0-0.8-0.3-1.7-0.9-2.3c-0.3-0.3-0.6-0.5-1-0.7c-0.4-0.2-0.8-0.3-1.2-0.3 c-0.4,0-0.8,0.1-1.2,0.2c-0.4,0.2-0.7,0.4-1,0.7c-0.3,0.3-0.5,0.7-0.7,1.1c-0.1,0.4-0.2,0.8-0.2,1.2c0,0.8,0.3,1.7,0.9,2.3 c0.3,0.3,0.6,0.5,1,0.7c0.4,0.2,0.8,0.3,1.2,0.3c0.4,0,0.8-0.1,1.2-0.2c0.4-0.2,0.7-0.4,1-0.7c0.3-0.3,0.5-0.7,0.7-1.1 S165.7,33.3,165.7,32.8L165.7,32.8z"></path> <path class="st0" d="M172.8,35.3c0.2,0.2,0.4,0.4,0.7,0.5c0.3,0.1,0.6,0.2,0.9,0.2c0.3,0,0.6-0.1,0.9-0.2c0.3-0.1,0.5-0.3,0.7-0.5 c0.4-0.6,0.6-1.2,0.6-1.9v-5.6h2.3v5.6c0,0.6-0.1,1.2-0.3,1.8c-0.2,0.6-0.5,1.1-1,1.6c-0.9,0.8-2,1.2-3.2,1.1 c-1.2,0-2.3-0.4-3.1-1.2c-0.4-0.5-0.8-1-1-1.6c-0.2-0.6-0.3-1.2-0.3-1.8v-5.6h2.3v5.6C172.1,34,172.3,34.8,172.8,35.3L172.8,35.3z"></path> <path class="st0" d="M188.3,27.9h2.3V38h-2.3l-4.9-6.3V38h-2.3V27.9h2.2l5.1,6.5L188.3,27.9L188.3,27.9z"></path> <path class="st0" d="M201,29.2c0.5,0.5,0.9,1.1,1.2,1.7c0.3,0.6,0.4,1.3,0.3,2c0,0.7-0.1,1.4-0.3,2c-0.2,0.6-0.6,1.2-1.1,1.7 c-0.9,0.9-2.4,1.4-4.4,1.4h-3.5V27.9h3.7C198.7,27.9,200.1,28.3,201,29.2L201,29.2z M199.4,35.2c0.3-0.3,0.5-0.6,0.7-1 c0.1-0.4,0.2-0.8,0.2-1.2c0-0.4,0-0.8-0.2-1.2c-0.1-0.4-0.4-0.8-0.7-1.1c-0.4-0.3-0.8-0.5-1.2-0.6c-0.4-0.1-0.9-0.2-1.4-0.1h-1.3V36 h1.5C197.8,36,198.7,35.7,199.4,35.2L199.4,35.2z"></path> <path class="st0" d="M211.6,37.9l-0.9-2.2h-4.3l-0.9,2.2h-2.5l4.5-10.1h2.2l4.5,10.1H211.6z M208.5,30.8l-1.3,2.9h2.6L208.5,30.8z"></path> <path class="st0" d="M218.9,29.8v8.1h-2.3v-8.1h-3v-1.9h8.2v1.9H218.9z"></path> <path class="st0" d="M223.5,27.9h2.3V38h-2.3V27.9z"></path> <path class="st0" d="M237,36.5c-1,1-2.4,1.5-3.8,1.5c-0.7,0-1.4-0.1-2.1-0.4c-0.7-0.3-1.3-0.7-1.8-1.2c-1-1-1.6-2.3-1.6-3.7 c0-1.4,0.6-2.7,1.6-3.7c1-1,2.4-1.5,3.8-1.5c0.7,0,1.4,0.1,2.1,0.4c0.7,0.3,1.3,0.7,1.8,1.2c1,1,1.6,2.3,1.6,3.7 C238.5,34.2,238,35.6,237,36.5L237,36.5z M236.2,32.8c0-0.8-0.3-1.7-0.9-2.3c-0.3-0.3-0.6-0.5-1-0.7c-0.4-0.2-0.8-0.3-1.2-0.3 c-0.4,0-0.8,0.1-1.2,0.2c-0.4,0.2-0.7,0.4-1,0.7c-0.3,0.3-0.5,0.7-0.7,1.1c-0.1,0.4-0.2,0.8-0.2,1.2c0,0.8,0.3,1.7,0.9,2.3 c0.3,0.3,0.6,0.5,1,0.7c0.4,0.2,0.8,0.3,1.2,0.3c0.4,0,0.8-0.1,1.2-0.2c0.4-0.2,0.7-0.4,1-0.7C235.9,34.5,236.3,33.7,236.2,32.8 L236.2,32.8z"></path> <path class="st0" d="M247.7,27.9h2.3V38h-2.3l-4.9-6.3V38h-2.3V27.9h2.2l5.1,6.5L247.7,27.9z"></path> <g class="st1"> <path class="st2" d="M25.3,13.2l-7.4-7.4H26V0.2H13v5.6l7.4,7.4H25.3z"></path> <path class="st2" d="M18.6,26.1h-4.9l6.1,6.1l1.2,1.3H13v5.6h13v-5.6l-3.7-3.6L18.6,26.1z"></path> <path class="st2" d="M33.4,13.2v8.1L32.1,20L26,13.9v4.9l3.7,3.6l3.7,3.7H39V13.2H33.4z"></path> <path class="st2" d="M13,20.5l-7.4-7.3H0v12.9h5.5V18l7.4,7.4V20.5z"></path> <path class="st0" d="M5.5,26.1H0v13h13v-5.6H5.5V26.1z"></path> <path class="st0" d="M33.4,26.2v7.4H26v5.6h13v-13L33.4,26.2L33.4,26.2z"></path> <path class="st0" d="M0,13.2h5.6l-0.1-0.1V5.8H13V0.2H0V13.2z"></path> <path class="st0" d="M26,0.2v5.6h7.4v7.4H39v-13H26z"></path> </g> </svg> 