<?xml version="1.0" encoding="utf-8"?>
<!-- Generator: Adobe Illustrator 26.1.0, SVG Export Plug-In . SVG Version: 6.00 Build 0)  -->
<svg version="1.1" id="Layer_1" xmlns="http://www.w3.org/2000/svg" xmlns:xlink="http://www.w3.org/1999/xlink" x="0px" y="0px"
	 viewBox="0 0 239.6 360.4" style="enable-background:new 0 0 239.6 360.4;" xml:space="preserve">
<style type="text/css">
	.st0{fill:none;}
	.st1{fill:#0086FF;}
	.st2{fill:#93EAFF;}
	.st3{fill:#444445;}
	.st4{fill:#FFFFFF;}
	.st5{fill:#141419;}
</style>
<path class="st0" d="M7.1,137.3v86.9l112.7,62.2l112.9-62.3v-86.8L119.9,75.1L7.1,137.3z"/>
<path class="st1" d="M119.9,75.1l112.9,62.3V72.6l0-2.9L120.1,7h-0.4L7.1,69.6v67.7L119.9,75.1z"/>
<path class="st2" d="M119.9,285.5L7.1,223.4v67.7l112.5,62.6h0.4L232.7,291l0-2.9v-64.8L119.9,285.5L119.9,285.5z"/>
<path class="st3" d="M180,120.7l9.4-0.4l3.1,10l-3.1-10L180,120.7z"/>
<path class="st4" d="M35.1,105.1l10.1,10.8l2.9,14.3l3.1-10l9.4,0.4l-6.3-13l15.1-4.2L34.9,85.6l10.6,17.9
	C45.5,103.5,35.1,105.1,35.1,105.1z M179.2,120.7l9.4-0.4l3.1,10l2.9-14.3l10.1-10.8l-10.3-1.6l10.6-17.9l-34.4,17.9l15.1,4.2
	C185.5,107.7,179.2,120.7,179.2,120.7z"/>
<path class="st5" d="M89,216.8c0,0,15.4-10,14.4-25.6c-0.1-1.5,1.1-15.8-13.3-21.7c-14.8-6.1-31.4,3.2-39.5,6.2
	c-2.2,0.9-4.2,2.3-5.8,4.1c-0.5,0.5-1,1.1-0.5,1.8c0.4,0.6,1.1,0.5,1.6,0.4c0.6-0.1,1.2-0.3,1.7-0.4c0.9-0.2,2.1-0.9,2.7,0.2
	c0.6,1.1-0.3,1.9-1,2.5c-3.3,2.8-7,5.3-11,7.2c-5.2,2.7-11.2,3.6-16.9,2.3c-4.5-1.2-8.5-3.7-11.5-7.2c-0.4-0.4-0.7-1.1-1.4-0.8
	c-0.7,0.3-0.5,1-0.5,1.5c-0.1,2.4,0.5,4.7,1.6,6.8c4.1,7.9,11.1,12.8,18.8,16.8l68.4,40.8C90.6,243.6,74.5,229.9,89,216.8L89,216.8z
	 M66.1,185.2c-0.7-1.4-0.6-3,0.3-4.3c2.6-3.3,6.7-5.1,11-4.7c1.7-0.1,3.5,0.1,5.2,0.6c5.8,1.4,10.5,5.6,12.6,11.2
	c0.4,1.1,0.2,2.4-0.6,3.3c-2.6,3.2-6.6,5-10.8,4.7c-3.8,0-7.6-1-10.8-2.9C69.8,191.2,67.4,188.5,66.1,185.2L66.1,185.2z
	 M231.4,185.8c-0.7-0.3-1.1,0.4-1.4,0.8c-3,3.5-7,6-11.5,7.2c-5.7,1.3-11.7,0.5-16.9-2.3c-3.9-1.9-7.6-4.4-11-7.2
	c-0.7-0.7-1.6-1.5-1-2.5c0.7-1.2,1.8-0.4,2.7-0.2c0.6,0.1,1.2,0.4,1.7,0.4c0.6,0.1,1.3,0.2,1.6-0.4c0.5-0.8-0.1-1.3-0.5-1.8
	c-1.6-1.8-3.6-3.2-5.8-4.1c-8-3-24.7-12.3-39.5-6.2c-14.4,5.9-13.3,20.2-13.3,21.7c-1,15.6,14.4,25.6,14.4,25.6
	c14.4,13.2-1.7,26.9-7.8,35l68.4-40.8c7.7-4,14.7-8.9,18.8-16.8c1.1-2.1,1.7-4.4,1.6-6.8C231.9,186.8,232.1,186,231.4,185.8
	L231.4,185.8z M173.7,185.2c-1.4,3.3-3.7,6-6.8,7.9c-3.3,2-7,3-10.8,2.9c-4.2,0.3-8.2-1.5-10.8-4.7c-0.8-0.9-1-2.2-0.6-3.3
	c2-5.6,6.8-9.8,12.6-11.2c1.7-0.4,3.4-0.6,5.2-0.6c4.2-0.4,8.3,1.4,11,4.7C174.3,182.2,174.4,183.8,173.7,185.2L173.7,185.2z"/>
<path class="st5" d="M17.9,172.5c-1.5,2-3.7,3.4-4.9,6c3,0,6-0.9,8.5-2.5c4.3-2.7,8.4-5.8,12.2-9.1c1.2-1,3.3-2,3-3.4
	c-0.3-1.4-2.7-1.1-4.2-1.4c-0.7-0.2-1.5-0.1-1.6-1c-0.1-0.8,0.6-1.2,1.2-1.5c11-6.2,26.9-12.6,44.4-8.2l-2.9-7.5
	c0,0,21.7,12.8,41.6,16.1c1.6,0.3,3.2,0.5,4.7,0.6c1.6-0.1,3.1-0.3,4.7-0.6c20-3.3,41.6-16.1,41.6-16.1l-2.9,7.5
	c17.4-4.4,33.4,2,44.4,8.2c0.6,0.3,1.3,0.7,1.2,1.5c-0.1,0.9-1,0.8-1.6,1c-1.5,0.4-3.8,0-4.2,1.4c-0.3,1.4,1.8,2.4,3,3.4
	c3.9,3.3,7.9,6.3,12.2,9.1c2.5,1.7,5.5,2.5,8.5,2.5c-1.2-2.6-3.4-4-4.9-6c-1.5-2-3.2-3.8-4.7-5.8c-1.1-1.4-0.5-2.2,1.2-2.1
	c1.6,0.1,3.2,0.5,4.8,0.8c0.9,0.1,1.9,0.7,2.4-0.3c0.5-0.9-0.1-1.7-0.7-2.4c-1.7-2.2-3.5-4.3-5.3-6.5c-1.7-2.1-3.2-4.3-4.9-6.3
	c-5.5-6.6-5.7-14-2.8-21.4c5.3-14.1,7.3-29.3,5.8-44.3c-0.2-2.9-0.4-5.9-0.7-8.8c-0.6-5.5-3.8-8.6-9.5-9.3
	c-5.1-0.6-9.7,1.3-14.3,2.9C181,73.3,163.5,86.5,153,95.5c-0.6,0.6-1.3,1.1-1.9,1.6l-31.3-0.8l-31.3,0.8c-0.6-0.5-1.2-1.1-1.9-1.6
	c-10.5-9-28-22.3-40.4-26.6c-4.6-1.6-9.2-3.5-14.3-2.9c-5.7,0.7-8.9,3.8-9.5,9.3c-0.3,2.9-0.4,5.9-0.7,8.8
	c-1.5,15,0.5,30.2,5.8,44.3c2.9,7.4,2.7,14.8-2.8,21.4c-1.7,2.1-3.3,4.2-4.9,6.3c-1.7,2.2-3.5,4.3-5.3,6.5c-0.6,0.7-1.2,1.5-0.7,2.4
	c0.6,1.1,1.6,0.5,2.4,0.3c1.6-0.3,3.2-0.6,4.8-0.8c1.8-0.2,2.3,0.6,1.2,2.1C21,168.7,19.4,170.5,17.9,172.5L17.9,172.5z M204.9,85.6
	l-10.6,17.9l10.3,1.6l-10.1,10.8l-2.9,14.3l-3.1-10l-9.4,0.4l6.3-13l-15.1-4.2L204.9,85.6z M69.4,103.5l-15.1,4.2l6.3,13l-9.4-0.4
	l-3.1,10l-2.9-14.3l-10.1-10.8l10.3-1.6L34.9,85.6L69.4,103.5z M137.6,220.9c-5.1-3.9-11.3-6.1-17.7-6.4c-6.4,0.3-12.6,2.5-17.7,6.4
	c-2,1.3-3,3.7-2.6,6c0,2.3,1.3,4.4,3.3,5.5c0.5,0.3,1.1,0.5,1.7,0.6c1.1,0.1,2.3,0,4.2,0h0c0.1,0,0.2,0,0.3,0c3.3-0.7,6.2,2,8.4,6.8
	c0.8,1.7,1.6,2.6,2.3,2.9c0.7-0.2,1.5-1.2,2.3-2.9c2.3-4.8,5.2-7.5,8.4-6.8c0.1,0,0.2,0,0.3,0h0c1.9,0,3.1,0.1,4.2,0
	c0.6-0.1,1.2-0.3,1.7-0.6c2.1-1,3.4-3.2,3.3-5.5C140.6,224.6,139.6,222.3,137.6,220.9z"/>
</svg>
