<svg id="Layer_1" data-name="Layer 1" xmlns="http://www.w3.org/2000/svg" viewBox="0 0 408 202"><defs><style>.cls-1{fill:none;}.cls-2{fill:#326ce4;}.cls-3{fill:#fcdeb7;}.cls-4{fill:#e2c4a3;}.cls-5{fill:#b08c67;}.cls-6{fill:#9a7957;}.cls-7{fill:#d6ad80;}</style></defs><path class="cls-1" d="M236.99391,129.91838c-.23456,2.30371-.821,6.11581-1.38956,9.6227H238.551c-.54556-3.50478-1.07121-7.41428-1.37489-9.6227Z"/><path class="cls-1" d="M313.89474,134.31586c-1.71624,0-1.87121,1.78326-1.87121,3.51h3.64719C315.67068,136.007,315.589,134.31586,313.89474,134.31586Z"/><path class="cls-1" d="M272.24271,134.62056c-1.555,0-1.86078,1.38538-1.86078,5.12312,0,4.18489.19058,5.61162,1.82306,5.61162,1.38012,0,2.01153-1.33929,2.01153-5.51057C274.21655,135.5321,273.6019,134.62056,272.24271,134.62056Z"/><path class="cls-1" d="M295.12164,129.5435h-1.06076v15.58771H295.086c2.56759,0,3.32046-1.81261,3.32046-8.36664C298.40652,131.27914,297.73007,129.5435,295.12164,129.5435Z"/><path class="cls-1" d="M255.0246,134.62056c-1.555,0-1.86077,1.38538-1.86077,5.12312,0,4.18489.19059,5.61162,1.82308,5.61162,1.38012,0,2.01156-1.33929,2.01156-5.51057C256.99847,135.5321,256.38379,134.62056,255.0246,134.62056Z"/><path class="cls-1" d="M363.13123,134.31586c-1.71625,0-1.87125,1.78326-1.87125,3.51h3.64719C364.90717,136.007,364.8255,134.31586,363.13123,134.31586Z"/><path class="cls-2" d="M233.30064,125.30417l-4.73829,24.02032h5.51947l.81781-5.14145h4.38228l.8419,5.14145h5.73309l-4.799-24.02032Zm2.30371,14.23691c.56861-3.50687,1.155-7.319,1.38956-9.6227h.18221c.30368,2.20842.82934,6.11791,1.37489,9.6227Z"/><path class="cls-2" d="M257.22568,130.30792a4.19252,4.19252,0,0,0-4.09119,2.22884,16.99741,16.99741,0,0,0-.15393-1.921h-5.20847c.03562,1.14872.04818,2.89534.04818,5.398v19.75009h5.4357v-7.843a3.58386,3.58386,0,0,0,3.4,1.74719c3.60739,0,5.85141-2.54874,5.85141-9.98656C262.50745,133.00012,260.53989,130.30792,257.22568,130.30792Zm-2.23879,15.0474c-1.63249,0-1.82307-1.42673-1.82307-5.61162,0-3.73776.30577-5.12313,1.86076-5.12313,1.35918,0,1.97386.91155,1.97386,5.22419C256.99847,144.016,256.367,145.35532,254.98689,145.35532Z"/><path class="cls-2" d="M274.44379,130.30792a4.1925,4.1925,0,0,0-4.09116,2.22884,17.00224,17.00224,0,0,0-.15393-1.921h-5.20847c.03562,1.14872.04816,2.89534.04816,5.398v19.75009h5.4357v-7.843a3.58383,3.58383,0,0,0,3.40006,1.74714c3.60739,0,5.85141-2.54873,5.85141-9.98655C279.72556,133.00012,277.758,130.30792,274.44379,130.30792Zm-2.2388,15.0474c-1.63248,0-1.82306-1.42673-1.82306-5.61162,0-3.73776.30575-5.12313,1.86078-5.12313,1.35919,0,1.97384.91155,1.97384,5.22419C274.21655,144.016,273.58514,145.35532,272.205,145.35532Z"/><path class="cls-2" d="M295.37924,125.30417h-6.86191v24.02032h6.66608c6.49854,0,9.02319-3.9629,9.02319-12.47247C304.20663,128.86339,301.64847,125.30417,295.37924,125.30417Zm-.29321,19.82706h-1.02515V129.5435h1.06076c2.60843,0,3.28488,1.73563,3.28488,7.22107,0,6.55405-.75289,8.36666-3.32052,8.36666Z"/><path class="cls-2" d="M313.90732,130.30792c-4.81684,0-7.3436,3.22-7.3436,9.52635,0,5.08229,1.01679,9.83368,7.23468,9.83368,6.421,0,6.97394-4.9425,7.108-6.197h-5.198c-.05865.85237-.28271,2.10318-1.80108,2.10318-1.69217,0-1.92987-1.86495-1.92987-4.30269h9.00015c.023-.38483.04608-1.40946.04608-2.04611C321.02368,134.05249,319.43411,130.30792,313.90732,130.30792Zm-1.88379,7.518c0-1.72675.155-3.51,1.87121-3.51,1.69428,0,1.776,1.69112,1.776,3.51Z"/><rect class="cls-2" x="323.55984" y="124.16959" width="5.4357" height="25.1549"/><rect class="cls-2" x="332.22806" y="124.16959" width="5.4357" height="4.40427"/><rect class="cls-2" x="332.20502" y="130.61578" width="5.4357" height="18.70871"/><path class="cls-2" d="M347.34039,143.99612h-.12253c-.35183-3.16026-1.24295-8.89335-2.03457-13.38034h-5.81894l4.53619,18.70871h6.36661l4.70795-18.70871h-5.41162C348.65244,135.79649,347.67126,140.84737,347.34039,143.99612Z"/><path class="cls-2" d="M363.1438,130.30792c-4.81683,0-7.3436,3.22-7.3436,9.52635,0,5.08229,1.01679,9.83368,7.23468,9.83368,6.42105,0,6.974-4.9425,7.108-6.197h-5.198c-.05866.85237-.28272,2.10318-1.80109,2.10318-1.69217,0-1.92987-1.86495-1.92987-4.30269h9.00015c.023-.38483.04608-1.40946.04608-2.04611C370.26016,134.05249,368.67059,130.30792,363.1438,130.30792Zm-1.88379,7.518c0-1.72675.155-3.51,1.87125-3.51,1.69427,0,1.77594,1.69112,1.77594,3.51Z"/><path class="cls-2" d="M378.06448,133.65353a29.19826,29.19826,0,0,0-.11831-3.03775h-5.198c.03561,1.266.04816,3.18854.04816,6.36032v12.34839h5.4357v-9.06875c0-3.32152,1.39477-4.13672,4.58334-4.0671v-5.88073A4.61428,4.61428,0,0,0,378.06448,133.65353Z"/><path class="cls-2" d="M392.338,142.94794h-.12356c-.18848-2.376-1.23352-7.72-2.12989-12.33216h-5.93832l5.40952,18.87206c-.289,1.56547-.85865,2.12674-2.33616,2.12674-.377,0-.96545-.0356-1.3016-.0712v4.2896a15.03209,15.03209,0,0,0,2.243.167c3.71,0,5.34039-.99844,6.87866-6.8441l4.88806-18.54011h-5.46081C393.5527,135.37817,392.70245,140.13428,392.338,142.94794Z"/><path class="cls-2" d="M205.1507,125.77435c-.57735-3.16046-1.39466-6.27728-2.11353-9.41162q-3.74076-16.31-7.48791-32.61841c-2.404-10.45581-4.87519-20.89661-7.19611-31.37072-1.063-4.7973-3.49988-8.37249-8.00641-10.48779-5.44287-2.55505-10.8587-5.168-16.28491-7.75867Q137.9747,21.67287,111.88605,9.22241a12.7751,12.7751,0,0,0-11.44812-.03522Q81.48633,18.1948,62.567,27.27026c-10.44123,4.99048-20.89264,9.9599-31.31507,14.98938a12.35263,12.35263,0,0,0-6.90655,8.5224c-1.88666,7.84125-3.65149,15.712-5.45948,23.57221-3.81848,16.59991-7.60479,33.20727-11.46624,49.7973-1.02979,4.42383-.46619,8.47144,2.37866,12.05151,5.33417,6.71265,10.73022,13.37616,16.10528,20.0564q1.49982,1.864,3.00055,3.72742H183.35626q9.63741-11.97684,19.2511-23.97254A12.30453,12.30453,0,0,0,205.1507,125.77435Z"/><path class="cls-2" d="M52.71429,97.33A13.04078,13.04078,0,0,1,48.288,92.2406c-.02014.045-.04608.07922-.06518.12622-.82808,2.03509.28973,3.4599,1.60492,4.81317a5.76029,5.76029,0,0,0,3.22937,1.87574A13.5742,13.5742,0,0,0,58.09393,106.22q8.1048,6.15966,17.0683,2.23163c-1.021-3.32636-1.96533-6.67829-3.96313-9.67981Q61.46311,103.46147,52.71429,97.33Z"/><path class="cls-2" d="M151.37274,70.56445a15.01683,15.01683,0,0,0-1.67493-1.01434,10.28529,10.28529,0,0,1,.23316,1.32727Z"/><path class="cls-2" d="M130.37152,68.20837c.12592-.2539.26013-.50312.37415-.76379v-.00006C130.63159,67.70526,130.49738,67.9544,130.37152,68.20837Z"/><path class="cls-2" d="M65.92383,76.89343a13.76471,13.76471,0,0,0,.2091,1.80817l.00074.00042A13.74946,13.74946,0,0,1,65.92383,76.89343Z"/><path class="cls-3" d="M109.66589,166.09937c6.16285-5.80408,12.62239-11.33973,17.83545-17.9657.75647-.96149,1.46265-1.94586,2.1474-2.94007a88.81446,88.81446,0,0,0,8.68854-16.689q3.34131-8.08421,6.201-16.33661a99.1559,99.1559,0,0,0,5.5091-23.46216c.5367-5.97888.08539-11.87049-.11247-17.802l-.00391-.02643a10.28526,10.28526,0,0,0-.23315-1.32727A8.23055,8.23055,0,0,0,145.9931,64.363c-5.01019-3.23175-9.48242-2.59063-14.66577,2.09082a.98025.98025,0,0,1-.58172.99463l.00006-.00384c-.114.26068-.24823.50989-.37415.76379-.19055.38421-.38989.76349-.6037,1.1344a35.55013,35.55013,0,0,1-2.358,3.51557c-1.28339,1.71612-2.64184,3.39-3.79681,5.18188-2.96649,4.60241-6.259,9.02655-9.47187,13.49016a11.37153,11.37153,0,0,1-1.95953,1.70642c-2.6665,4.46528-6.635,7.92145-10.56372,11.36274A97.75632,97.75632,0,0,1,80.633,118.5688c-.06392.0318-.126.066-.19.09766a5.218,5.218,0,0,1-1.03.26849q-1.50122.7004-3.00258,1.40094-3.9904,1.86183-7.98107,3.72376-.2136.47361-.42627.94648c-.0766,1.915-.36573,3.8026.44983,5.70537,2.076,4.84339,4.17462,9.67768,6.34748,14.48212,2.96453,6.55487,6.07164,13.05237,9.4879,19.42572,2.12342,3.96149,3.96308,8.07635,6.91883,11.61761,2.54864-1.447,5.58056-1.74768,8.2-3.18017A48.53419,48.53419,0,0,0,109.66589,166.09937Z"/><path class="cls-4" d="M153.65179,88.01483c-.2832-5.83856-.72509-11.73554-3.7169-17.111.19788,5.93151.64917,11.82312.11247,17.802a99.15588,99.15588,0,0,1-5.50909,23.46216q-2.84106,8.24569-6.201,16.33662a88.81446,88.81446,0,0,1-8.68854,16.689c-.68476.99421-1.39093,1.97858-2.1474,2.94007-5.21308,6.626-11.6726,12.16163-17.83545,17.9657a48.53422,48.53422,0,0,1-10.2586,6.95739c-2.61945,1.4325-5.65137,1.73316-8.2,3.18018a58.69023,58.69023,0,0,0,12.91516,17.02569c4.53326,4.04285,8.66986,4.16523,13.4508.42395,4.9693-3.88855,8.30591-8.88269,11.32019-14.08264a173.4126,173.4126,0,0,0,14.88269-34.41034c1.64246-5.1325,3.11518-10.32055,4.47168-15.5451C151.79846,115.97357,154.33728,102.14825,153.65179,88.01483Z"/><path class="cls-3" d="M52.71429,97.33q8.74338,6.14394,18.48481,1.44178A10.55235,10.55235,0,0,0,72.545,88.71557a40.66573,40.66573,0,0,0-4.05584-7.40826q-.3209-.51984-.63147-1.04511-.86172-.78039-1.72406-1.56018l-.00074-.00042q-1.986-1.10889-3.97094-2.21869a7.70024,7.70024,0,0,0-3.15088.63592c-3.94281,1.84388-7.9187,3.62732-11.88226,5.43323,3.6975,1.66845,3.95587,5.50982.54858,8.15386A11.74767,11.74767,0,0,0,48.288,92.2406,13.04078,13.04078,0,0,0,52.71429,97.33Z"/><path class="cls-5" d="M81.86273,111.46759a15.08,15.08,0,0,1-2.61181,2.4104,4.37315,4.37315,0,0,1-1.54017.58972c-.05565,1.69208,1.32521,2.91614,1.70234,4.467l.00006.00023a5.21787,5.21787,0,0,0,1.03-.26849c.064-.03168.126-.06586.18994-.09766a97.75583,97.75583,0,0,0,20.98486-13.96923c3.92871-3.44129,7.89722-6.89746,10.56372-11.36274a12.36679,12.36679,0,0,1-4.94446-6.40228q-.56039-.576-1.12042-1.15344c-3.95074,5.33123-8.65387,10.09436-13.15363,15.01666C89.48767,104.49951,85.52075,107.84271,81.86273,111.46759Z"/><path class="cls-6" d="M88.60272,58.64526c.29114-1.56378.38562-3.1579.62665-4.73071,1.095-7.14728,3.16827-13.87854,8.49207-19.52265a45.18924,45.18924,0,0,1,4.18689-4.46948c.27325-.2232.537-.42883.80188-.63641-.64917-1.40546-2.48267-1.56323-4.09107-.75672A28.02888,28.02888,0,0,0,85.97125,40.36822c-3.57672,6.689-3.68426,13.79-2.84594,20.996C85.57294,61.52459,88.04126,61.66052,88.60272,58.64526Z"/><path class="cls-4" d="M112.18164,93.23681a11.37153,11.37153,0,0,0,1.95953-1.70642c3.21283-4.46363,6.50538-8.88775,9.47187-13.49017,1.155-1.79193,2.51342-3.46576,3.79681-5.18187a35.55027,35.55027,0,0,0,2.358-3.51558c.21381-.37091.41315-.75018.6037-1.1344.12586-.254.26007-.50311.37415-.76384v.00006l-.00006.00384a.98026.98026,0,0,0,.58172-.99463.86513.86513,0,0,0-.58148.96888c-.8158-.10376-1.26868.36615-1.83112.83306-3.841,3.18836-7.84752,6.21338-11.57788,9.5066-3.39331,2.99566-7.35662,5.45923-10.09967,9.07219A12.36683,12.36683,0,0,0,112.18164,93.23681Z"/><path class="cls-4" d="M76.41058,120.33587l3.00257-1.40094-.00006-.00024c-.37713-1.55084-1.758-2.7749-1.70234-4.467l-.2072-.31641q-.39807-.60791-.79626-1.21582c-.96808.98163-1.99677,1.91841-2.89185,2.95386-2.16925,2.50928-4.83229,4.75177-5.39868,8.16943a.84959.84959,0,0,0-.41353.94732q.21232-.4725.42627-.94647Q72.4202,122.19765,76.41058,120.33587Z"/><path class="cls-6" d="M47.12885,82.55206c-1.81482-.06041-3.49616.17517-4.28571,1.9693-.82806,1.88166.28973,3.199,1.60492,4.45026a5.87805,5.87805,0,0,0,3.22937,1.7343C51.08472,88.06189,50.82635,84.22052,47.12885,82.55206Z"/><path class="cls-6" d="M67.85773,80.2622c1.80554-1.47326,2.95233-3.13385,1.82684-5.44891a1.84,1.84,0,0,0-1.80933-1.25854c-.90985.02526-1.14465.68615-1.47815,1.27484a3.54181,3.54181,0,0,0-.22424.47375,3.73146,3.73146,0,0,0-.22619.95935,4.96707,4.96707,0,0,0-.02442.60578l.00159.025a13.74926,13.74926,0,0,0,.20984,1.80859Q66.99637,79.48151,67.85773,80.2622Z"/><path class="cls-6" d="M112.57251,33.1867c.2641-1.60656.98633-3.84771-.36353-4.6878-.88415-.55017-2.76617,1.33093-3.98608,2.423-9.59216,8.58673-12.73114,19.54151-13.81818,31.893a24.09551,24.09551,0,0,0,2.62886-1.95227C104.77838,52.87188,110.79053,44.02966,112.57251,33.1867Z"/><path class="cls-7" d="M79.25092,113.878a15.08,15.08,0,0,0,2.61181-2.4104c3.658-3.62488,7.62494-6.96808,11.1004-10.76985,4.49977-4.9223,9.20289-9.68541,13.15364-15.01666a77.29146,77.29146,0,0,1-5.5329-18.1604,4.513,4.513,0,0,1,1.29364-4.07825c5.06708-5.969,9.87152-12.11145,13.2049-19.10168,2.29956-4.82233,4.14685-9.75086,2.60187-15.143-1.207-4.21289-2.76392-5.85583-7.10364-4.36114a25.88957,25.88957,0,0,0-7.87042,4.44934c-.2649.20758-.52863.41321-.80188.63641a45.18917,45.18917,0,0,0-4.18689,4.46948c-5.3238,5.64411-7.397,12.37537-8.49207,19.52265-.241,1.57281-.33551,3.16693-.62665,4.73071-.56146,3.01526-3.02978,2.87933-5.47741,2.719-.90735-.00843-1.816-.051-2.72168-.0196-7.45447.2591-13.04352,3.1269-15.91645,9.7713q-1.16061,2.68424-2.32519,5.367,1.98513,1.10962,3.97094,2.21869a13.76811,13.76811,0,0,1-.2091-1.80817l-.00158-.025a4.96506,4.96506,0,0,1,.02442-.60578,3.73114,3.73114,0,0,1,.22619-.95935,3.54058,3.54058,0,0,1,.22424-.47375c.3335-.58869.5683-1.24958,1.47815-1.27484a1.84,1.84,0,0,1,1.80933,1.25854c1.12548,2.31506-.02131,3.97565-1.82685,5.44891q.30934.52589.63147,1.04512a40.6649,40.6649,0,0,1,4.05579,7.4083,10.55237,10.55237,0,0,1-1.3459,10.05622c1.9978,3.00152,2.94214,6.35345,3.96312,9.67981.464,1.51159.94226,3.01843,1.54518,4.48388l.79614,1.21582.20721.3164A4.37338,4.37338,0,0,0,79.25092,113.878Zm28.972-82.95606c1.21991-1.0921,3.10193-2.9732,3.98608-2.423,1.34986.84009.62763,3.08124.36353,4.6878-1.782,10.843-7.79413,19.68518-15.53894,27.67591a24.09539,24.09539,0,0,1-2.62885,1.95227c1.087-12.35148,4.226-23.30626,13.81816-31.893Z"/><path class="cls-2" d="M233.81348,58.91211H215.63184V45.7583h55.71582V58.91211H253.27441v50.02344H233.81348Z"/><path class="cls-2" d="M289.50879,96.1416l-3.55078,12.794H266.90723L286.61816,45.7583h26.12012l20.626,63.17725h-20.1875L309.251,96.1416Zm16.542-13.57519c-2.85644-9.49952-5.30273-18.61182-6.76855-25.12305H298.999c-1.42968,6.95264-3.8291,16.11279-6.46582,25.12305Z"/><path class="cls-2" d="M399.13086,108.93555H385.43457a48.97982,48.97982,0,0,1-1.13086-6.33692c-3.709,5.66895-10.44629,7.51856-19.02148,7.51856-20.4375,0-28.97754-15.04883-28.97754-32.07715,0-18.79785,11.48047-33.40381,33.624-33.40381,19.49219,0,27.9834,9.354,29.30469,19.97461H380.18359c-.95117-3.22461-3.01171-7.15723-10.81933-7.15723-9.48828,0-12.92774,8.33008-12.92774,20.3545,0,11.46386,3.59278,19.55224,13.06055,19.55224,8.08594,0,10.55859-5.25293,10.55859-11.40771v-.47119H368.69629V72.89307h30.43457Z"/></svg>