<svg id="Layer_1" data-name="Layer 1" xmlns="http://www.w3.org/2000/svg" viewBox="0 0 117.09 249.34"><defs><style>.cls-1{fill:none;}.cls-2{fill:#4a6ca4;}.cls-3{fill:#85c2d2;}.cls-4{fill:#444445;}.cls-5{fill:#fff;}.cls-6{fill:#141419;}</style></defs><path class="cls-1" d="M5,63.805v41.367L58.658,134.77l53.721-29.633V63.84L58.658,34.207Z"/><path class="cls-2" d="M58.658,34.207,112.379,63.84V33.006l-.015-1.396L58.762,1.808h-.208L5,31.583V63.805Z"/><path class="cls-3" d="M58.658,135.579,5,105.981v32.222l53.554,29.775h.208l53.602-29.801.015-1.397V105.946Z"/><path class="cls-4" d="M87.271,55.888l4.491-.188,1.455,4.755L91.762,55.7Z"/><path class="cls-5" d="M18.327,48.493l4.784,5.153,1.401,6.809L25.967,55.7l4.491.188-3.013-6.169,7.171-1.997L18.222,39.215l5.029,8.507Zm68.54,7.395,4.49-.188,1.455,4.755,1.401-6.809,4.783-5.153-4.923-.771,5.028-8.507L82.708,47.722l7.171,1.997Z"/><path class="cls-6" d="M43.93922,101.63s7.33585-4.74774,6.86961-12.191c-.04457-.71267.50131-7.52611-6.35211-10.3499-7.02735-2.89551-14.95355,1.52706-18.77643,2.96347a7.85181,7.85181,0,0,0-2.78177,1.96872c-.22988.23657-.48686.50092-.25531.85813.1835.28331.50937.22841.78474.19124.28124-.038.55-.15715.83011-.2126.44313-.08783.97618-.43831,1.29113.11016.28878.50293-.14862.88321-.4948,1.19561A25.11442,25.11442,0,0,1,19.83152,89.589a11.8043,11.8043,0,0,1-8.06647,1.08616A10.75555,10.75555,0,0,1,6.29256,87.266c-.18766-.18779-.34747-.51719-.68812-.39042-.33674.12527-.23952.46962-.24746.73269a6.48024,6.48024,0,0,0,.78026,3.2368c1.96155,3.76276,5.27292,6.10524,8.9548,8.00933l32.565,19.43821C44.73538,114.40885,37.07419,107.89939,43.93922,101.63ZM33.03689,86.60639a1.96232,1.96232,0,0,1,.14452-2.03412,5.942,5.942,0,0,1,5.21969-2.247,8.70426,8.70426,0,0,1,2.45544.26568,8.497,8.497,0,0,1,5.973,5.34021,1.609,1.609,0,0,1-.28558,1.5924,6.03332,6.03332,0,0,1-5.14188,2.24,9.80183,9.80183,0,0,1-5.15169-1.3879A8.12513,8.12513,0,0,1,33.03689,86.60639Zm78.6826.26921c-.34075-.12677-.50044.20269-.68813.39041a10.755,10.755,0,0,1-5.47249,3.40912A11.80427,11.80427,0,0,1,97.49241,89.589a25.112,25.112,0,0,1-5.22287-3.42511c-.3461-.3124-.78357-.69269-.49485-1.19561.31494-.5485.84806-.198,1.29119-.11016.28006.05545.54886.17458.83011.21259.27542.03715.60125.09207.78472-.19123.23147-.35724-.02549-.62156-.2553-.85816a7.85359,7.85359,0,0,0-2.78179-1.96875c-3.8229-1.43644-11.74913-5.859-18.77649-2.9635C66.01374,81.91284,66.5596,88.7263,66.515,89.439c-.46622,7.44327,6.86962,12.191,6.86962,12.191,6.86512,6.26948-.79607,12.77887-3.71773,16.66259l32.565-19.43811c3.68187-1.90412,6.99325-4.24665,8.95482-8.00937a6.48037,6.48037,0,0,0,.78025-3.23674C111.959,87.34522,112.05623,87.00086,111.71949,86.8756ZM84.287,86.60639a8.12458,8.12458,0,0,1-3.21344,3.76934,9.80181,9.80181,0,0,1-5.15164,1.38784,6.03338,6.03338,0,0,1-5.14194-2.24,1.60912,1.60912,0,0,1-.28552-1.59239A8.4968,8.4968,0,0,1,76.4674,82.591a8.70577,8.70577,0,0,1,2.45556-.2657,5.94216,5.94216,0,0,1,5.21962,2.247A1.96222,1.96222,0,0,1,84.287,86.60639Z"/><path class="cls-6" d="M10.10451,80.55458c-.71494.93806-1.782,1.61141-2.33616,2.84117a7.38506,7.38506,0,0,0,4.04093-1.20984,53.40008,53.40008,0,0,0,5.8188-4.32569c.56565-.486,1.57366-.95581,1.42263-1.61757-.15649-.68566-1.27239-.50846-1.97963-.67524-.3141-.07412-.72117-.04145-.77272-.47241-.04645-.38856.28248-.56924.57171-.73192,5.22028-2.93583,12.81836-5.98532,21.10762-3.8974l-1.37578-3.57959S46.90822,72.96394,56.42235,74.539c.75325.12467,1.50182.22319,2.23959.28617.73777-.063,1.48635-.1615,2.2396-.28617C70.41568,72.9639,80.722,66.88607,80.722,66.88607l-1.37582,3.57959c8.28937-2.08789,15.88739.96158,21.10766,3.89739.28918.16268.61811.34339.5717.73191-.05153.431-.45868.3983-.77269.47242-.70726.16681-1.82322-.0104-1.97963.67523-.1511.66176.857,1.13157,1.42263,1.61758a53.39566,53.39566,0,0,0,5.81881,4.32569,7.385,7.385,0,0,0,4.04093,1.20985c-.5542-1.22976-1.62123-1.90311-2.33621-2.84118-.7128-.93518-1.50432-1.81331-2.21422-2.75042-.5205-.687-.24655-1.06636.58654-.98946.75918.07,1.509.239,2.26258.36647.40693.06884.889.344,1.15408-.15956.21971-.41731-.06012-.8132-.32782-1.14569-.82782-1.02836-1.68-2.038-2.503-3.07-.79358-.995-1.53617-2.02955-2.34716-3.01056-2.59539-3.13926-2.699-6.67453-1.30935-10.19413a46.22317,46.22317,0,0,0,2.7626-21.0742c-.1129-1.39656-.17829-2.79771-.323-4.19112-.2722-2.62162-1.82562-4.10484-4.51745-4.437-2.438-.30088-4.59391.611-6.80312,1.383-5.884,2.056-14.21522,8.36865-19.21727,12.65529-.30661.26275-.60392.51985-.88418.76592l-14.8766-.372-14.8766.37189c-.28026-.24609-.57758-.50319-.88426-.76591-5.002-4.28669-13.33322-10.59929-19.21723-12.65529-2.20928-.772-4.36511-1.68389-6.80311-1.383-2.69183.33218-4.24533,1.8154-4.51745,4.437-.14472,1.39341-.21011,2.79451-.323,4.19113a46.22249,46.22249,0,0,0,2.76257,21.07423c1.38971,3.5196,1.286,7.05487-1.30936,10.19413-.811.981-1.55361,2.01554-2.34715,3.01055-.823,1.032-1.67517,2.04171-2.503,3.07-.2677.33251-.54757.7284-.32783,1.14569.2651.50348.74715.22841,1.1541.15957.75357-.12748,1.50336-.29647,2.26256-.36648.83306-.07691,1.107.30245.58654.98946C11.60887,78.74126,10.81734,79.61939,10.10451,80.55458ZM99.10143,39.2152,94.07284,47.722l4.92388.771-4.78379,5.1529-1.401,6.80922-1.45484-4.755-4.491.18747,3.01316-6.16875L82.708,47.722ZM34.616,47.722l-7.17129,1.99681,3.01315,6.16875L25.96686,55.7,24.512,60.45517l-1.401-6.80923L18.3272,48.493l4.9238-.771-5.02858-8.50685Zm32.46628,55.87805a14.89278,14.89278,0,0,0-8.42032-3.03163,14.89275,14.89275,0,0,0-8.42031,3.03163,2.95859,2.95859,0,0,0-1.25455,2.87612,2.8625,2.8625,0,0,0,1.5827,2.60282,2.30822,2.30822,0,0,0,.82561.3083c.53586.0449,1.08772.01862,1.99194.01526h.00983c.05244-.0002.09349-.001.14835-.001,1.563-.33728,2.94106.94423,4.0213,3.24984.38021.81128.73822,1.25078,1.09513,1.36088.35692-.1101.71494-.5496,1.09507-1.36088,1.08032-2.30564,2.45836-3.58715,4.02129-3.24984.05494,0,.096.00078.14842.001h.00983c.90425.00332,1.45607.02961,1.99194-.01526a2.30822,2.30822,0,0,0,.82561-.3083,2.86266,2.86266,0,0,0,1.58271-2.60282A2.95873,2.95873,0,0,0,67.08228,103.60005Z"/><path d="M18.3501,188.41406v-.04492a7.88214,7.88214,0,0,1,8.08691-8.01953,8.00108,8.00108,0,0,1,6.11475,2.39258l-2.1709,2.50293a5.727,5.727,0,0,0-3.96631-1.75A4.59494,4.59494,0,0,0,21.917,188.3252v.04394a4.6067,4.6067,0,0,0,4.49756,4.875,5.59569,5.59569,0,0,0,4.07666-1.81738l2.17139,2.19336a7.92752,7.92752,0,0,1-6.35889,2.76953A7.828,7.828,0,0,1,18.3501,188.41406Z"/><path d="M35.38281,180.61523h3.41162v12.40723h7.73243V196.124h-11.144Z"/><path d="M47.51953,188.41406v-.04492a8.24546,8.24546,0,0,1,16.4834-.04394v.04394a8.24544,8.24544,0,0,1-16.4834.04492Zm12.917,0v-.04492a4.71229,4.71229,0,0,0-4.69726-4.874,4.63831,4.63831,0,0,0-4.65283,4.83008v.04394a4.71224,4.71224,0,0,0,4.69726,4.875A4.63888,4.63888,0,0,0,60.43652,188.41406Z"/><path d="M66.78906,189.47754v-8.86231h3.41211v8.77344c0,2.52539,1.2627,3.833,3.34571,3.833,2.082,0,3.3457-1.2627,3.3457-3.72266v-8.88379h3.41211v8.751c0,4.69727-2.63672,7.00195-6.80274,7.00195C69.33691,196.36816,66.78906,194.041,66.78906,189.47754Z"/><path d="M83.77734,180.61523H89.8252c4.875,0,8.24218,3.34571,8.24218,7.71v.04394c0,4.36524-3.36718,7.75488-8.24218,7.75488H83.77734ZM89.8252,193.044A4.41864,4.41864,0,0,0,94.5,188.41406v-.04492a4.4541,4.4541,0,0,0-4.6748-4.6748H87.18945V193.044Z"/><path d="M16.94434,205.2373h3.146l7.26709,9.54883V205.2373H30.7251v15.50879H27.82275l-7.51123-9.85937v9.85937H16.94434Z"/><path d="M39.75879,205.126h3.146l6.64648,15.62011H45.98438l-1.418-3.47851H38.0083l-1.418,3.47851H33.11182Zm3.58887,9.1289-2.06055-5.03027-2.06055,5.03027Z"/><path d="M53.55713,208.38281H48.83789V205.2373H61.68848v3.14551H56.96875v12.36328H53.55713Z"/><path d="M64.45312,205.2373h3.41114v15.50879H64.45312Z"/><path d="M70.41016,205.2373h3.7666l4.05469,10.92286,4.05468-10.92286h3.67774l-6.26953,15.61915H76.68066Z"/><path d="M88.35156,205.2373H100.0498v3.03516H91.74121V211.419h7.31152v3.03515H91.74121v3.25684h8.419v3.03515H88.35156Z"/><path d="M1.11816,243.10938l2.01661-2.415a7.11182,7.11182,0,0,0,4.63037,1.88281c1.396,0,2.23779-.55371,2.23779-1.46192v-.04394c0-.86426-.53174-1.30762-3.124-1.97266-3.124-.79687-5.14014-1.66113-5.14014-4.74121v-.04394c0-2.81348,2.25977-4.67481,5.42822-4.67481a8.97755,8.97755,0,0,1,5.76026,1.97168l-1.77246,2.57031a7.27464,7.27464,0,0,0-4.03223-1.52929c-1.30713,0-1.99414.59863-1.99414,1.35156v.04492c0,1.01856.665,1.35156,3.3457,2.03809,3.146.81933,4.91846,1.94922,4.91846,4.65234v.04492c0,3.0791-2.34863,4.80762-5.69385,4.80762A9.8729,9.8729,0,0,1,1.11816,243.10938Z"/><path d="M16.35742,229.86035H28.05566v3.03516H19.74707V236.042h7.31152v3.03516H19.74707V242.334H28.166v3.03516H16.35742Z"/><path d="M30.50977,237.65918v-.04492a7.88293,7.88293,0,0,1,8.08691-8.02051,8.00154,8.00154,0,0,1,6.11475,2.39355L42.54,234.49023a5.725,5.725,0,0,0-3.96582-1.75,4.59552,4.59552,0,0,0-4.49756,4.83008v.04395a4.6067,4.6067,0,0,0,4.49756,4.875,5.59572,5.59572,0,0,0,4.07666-1.81738l2.17139,2.19335a7.92717,7.92717,0,0,1-6.3584,2.76954A7.82807,7.82807,0,0,1,30.50977,237.65918Z"/><path d="M47.29834,238.72266v-8.86231h3.41211v8.77344c0,2.52539,1.26318,3.833,3.3457,3.833s3.34522-1.2627,3.34522-3.72266v-8.88379h3.41211v8.751c0,4.69726-2.63672,7.00195-6.80176,7.00195S47.29834,243.28613,47.29834,238.72266Z"/><path d="M64.28711,229.86035h7.08984a6.17921,6.17921,0,0,1,4.51953,1.57324,4.86506,4.86506,0,0,1,1.32911,3.54493v.04394a4.81622,4.81622,0,0,1-3.32325,4.80762l3.78907,5.53906H73.70312l-3.32324-4.96289H67.69922v4.96289H64.28711Zm6.86816,7.53223c1.66114,0,2.61426-.88574,2.61426-2.19336v-.04395c0-1.46191-1.01953-2.21582-2.68066-2.21582H67.69922v4.45313Z"/><path d="M80.45508,229.86035h3.41113v15.50879H80.45508Z"/><path d="M91.35352,233.00586H86.63379v-3.14551H99.48438v3.14551H94.76562v12.36328h-3.4121Z"/><path d="M106.458,239.25391l-5.96-9.39356h3.98828l3.70019,6.22559,3.7666-6.22559h3.877l-5.96,9.32715v6.18164H106.458Z"/></svg>