<svg xmlns="http://www.w3.org/2000/svg" role="img" viewBox="4.95 -2.55 117.09 249.34"><path d="M13.95544 213.20539l6.17275-6.98713c4.273 3.33386 8.75007 5.44865 14.17656 5.44865 4.27348 0 6.8508-1.602 6.8508-4.23057v-.128c0-2.50063-1.62795-3.78221-9.564-5.70555-9.564-2.30724-15.73679-4.80786-15.73679-13.71834v-.128c0-8.14075 6.91851-13.5259 16.61847-13.5259a28.50959 28.50959 0 0117.63606 5.70555l-5.42648 7.43549c-4.20526-2.75656-8.34334-4.423-12.345-4.423-4.00216 0-6.105 1.73092-6.105 3.91018v.12893c0 2.948 2.03518 3.91019 10.24261 5.897 9.63174 2.37168 15.05822 5.64108 15.05822 13.46142v.12894c0 8.90948-7.18983 13.90979-17.43244 13.90979a31.25431 31.25431 0 01-20.14576-7.17946zm44.31823-36.7397h9.87165v43.27849h-9.87165zm17.09679 20.97104v-.12893c0-12.75617 9.47088-23.20511 22.42492-23.20511 7.69811 0 12.34231 2.17927 16.80216 6.15391l-5.92629 7.5c-3.29973-2.88452-6.23261-4.551-11.1822-4.551-6.84339 0-12.28086 6.34635-12.28086 13.97425v.128c0 8.20522 5.37695 14.23116 12.9531 14.23116a14.516 14.516 0 008.8601-2.6921V202.436H97.5505v-8.5256h18.57493v19.48736a27.0321 27.0321 0 01-18.26953 7.1151c-13.3199.00006-22.48544-9.80713-22.48544-23.07613zM14.7649 239.79046l1.80554-2.1627a6.37111 6.37111 0 004.14637 1.68585c1.25013 0 2.00376-.49556 2.00376-1.309v-.03927c0-.7742-.47593-1.17066-2.79713-1.76627-2.7976-.71435-4.60313-1.48762-4.60313-4.246v-.03928c0-2.51989 2.02386-4.18612 4.86073-4.18612a8.04152 8.04152 0 015.15854 1.76532l-1.58721 2.302a6.51434 6.51434 0 00-3.61107-1.36983c-1.17065 0-1.78543.53577-1.78543 1.21085v.03927c0 .9126.59514 1.21087 2.99581 1.82517 2.81723.734 4.40443 1.74663 4.40443 4.16647v.04021c0 2.75738-2.10285 4.30485-5.09869 4.30485a8.838 8.838 0 01-5.89252-2.22152zm13.45128-11.86455h10.47556v2.71809h-7.44v2.81723h6.547v2.71812h-6.547v2.91636h7.53912v2.71812H28.21618zm12.47882 6.98372v-.0402a7.05886 7.05886 0 016.93225-7.18322q.15476-.00274.30952.00129a7.166 7.166 0 015.476 2.14308l-1.94439 2.24219a5.12563 5.12563 0 00-3.55169-1.568 4.11512 4.11512 0 00-4.03176 4.19681q.00129.06433.0046.12863v.03928A4.12508 4.12508 0 0047.766 239.229q.07529.00439.15071.00607a5.01316 5.01316 0 003.6508-1.627l1.94439 1.96357a7.0997 7.0997 0 01-5.69431 2.48062 7.01042 7.01042 0 01-7.12292-6.89607q-.00201-.12319.00033-.24656zm14.8403.95185v-7.93557h3.05519v7.85609c0 2.26183 1.13092 3.43248 2.99582 3.43248 1.86538 0 2.99583-1.13045 2.99583-3.33244V227.926h3.05566v7.83645c0 4.20668-2.36094 6.26935-6.09076 6.26935-3.73028-.00008-6.01174-2.08332-6.01174-6.17032zm15.01791-7.93557H76.902a5.53452 5.53452 0 014.04772 1.40816 4.35893 4.35893 0 011.19028 3.17441v.04021a4.31148 4.31148 0 01-2.97618 4.30485l3.39321 4.96033h-3.5718l-2.97523-4.4442h-2.40113v4.44418h-3.05566zm6.15059 6.74529c1.48857 0 2.3413-.79291 2.3413-1.96356v-.04021c0-1.309-.91259-1.98413-2.4002-1.98413h-3.036v3.98788zm8.13473-6.74529h3.05567v13.88794h-3.05567zm9.56247 2.81723h-4.22628v-2.81723h11.50737v2.81723H97.4567v11.07071H94.401zm13.33164 5.5952l-5.33619-8.41243h3.57087l3.31372 5.57462 3.37265-5.57462h3.47174l-5.33712 8.35259v5.53535h-3.05564z"/><path fill="none" d="M9.95 64.255v41.367l53.658 29.598 53.721-29.633V64.29L63.608 34.657 9.95 64.255z"/><path d="M63.608 34.657l53.721 29.633V33.456l-.015-1.396L63.712 2.258h-.208L9.95 32.033v32.222l53.658-29.598zm0 101.372L9.95 106.431v32.222l53.554 29.775h.208l53.602-29.801.015-1.397v-30.834l-53.721 29.633z" opacity=".8"/><path fill="#444445" d="M92.221 56.338l4.491-.188 1.455 4.755-1.455-4.755-4.491.188z"/><path fill="#fff" d="M23.277 48.943l4.784 5.153 1.401 6.809 1.455-4.755 4.491.188-3.013-6.169 7.171-1.997-16.394-8.507 5.029 8.507-4.924.771zm68.54 7.395l4.49-.188 1.455 4.755 1.401-6.809 4.783-5.153-4.923-.771 5.028-8.507-16.393 8.507 7.171 1.997-3.012 6.169z"/><path d="M48.88922 102.08s7.33585-4.74774 6.86961-12.191c-.04457-.71266.50131-7.52611-6.35211-10.34991-7.02735-2.8955-14.95355 1.52707-18.77643 2.96347a7.85224 7.85224 0 00-2.78177 1.96872c-.22988.23658-.48686.50092-.25531.85814.1835.28331.50937.2284.78474.19124.28124-.038.55-.15714.83011-.21259.44313-.08784.97618-.43832 1.29113.11016.28878.50293-.14862.88321-.4948 1.19561a25.11456 25.11456 0 01-5.22287 3.42516 11.8043 11.8043 0 01-8.06647 1.08616 10.75544 10.75544 0 01-5.47249-3.40916c-.18766-.18779-.34747-.51718-.68812-.39041-.33674.12527-.23952.46962-.24746.73269a6.48024 6.48024 0 00.78026 3.2368c1.96155 3.76276 5.27292 6.10524 8.9548 8.00933l32.565 19.4382c-2.92166-3.88377-10.58285-10.39323-3.71782-16.66261zM37.98689 87.05637a1.9623 1.9623 0 01.14452-2.03411 5.942 5.942 0 015.21969-2.247 8.70426 8.70426 0 012.45544.26568 8.497 8.497 0 015.973 5.34021 1.609 1.609 0 01-.28558 1.5924 6.03332 6.03332 0 01-5.14188 2.24 9.80183 9.80183 0 01-5.15169-1.3879 8.12516 8.12516 0 01-3.2135-3.76928zm78.68261.26921c-.34075-.12677-.50044.20269-.68813.39041a10.755 10.755 0 01-5.47249 3.40912 11.80421 11.80421 0 01-8.06646-1.08616 25.1121 25.1121 0 01-5.22288-3.42511c-.3461-.3124-.78357-.69269-.49485-1.1956.31494-.5485.84806-.198 1.29119-.11017.28006.05545.54886.17458.83011.21259.27543.03715.60125.09207.78473-.19123.23146-.35724-.0255-.62156-.2553-.85816a7.85369 7.85369 0 00-2.78179-1.96874c-3.82289-1.43644-11.74913-5.859-18.77648-2.96351-6.8534 2.8238-6.30754 9.63726-6.35218 10.34992-.46622 7.44327 6.86962 12.191 6.86962 12.191 6.86512 6.26947-.79607 12.77886-3.71773 16.66259l32.565-19.43811c3.68188-1.90413 6.99325-4.24666 8.95481-8.00938a6.48023 6.48023 0 00.78026-3.23674c-.00793-.2631.0893-.60745-.24743-.73272zm-27.4325-.26921a8.12458 8.12458 0 01-3.21344 3.76934 9.80184 9.80184 0 01-5.15164 1.38784 6.03338 6.03338 0 01-5.14194-2.24 1.60914 1.60914 0 01-.28552-1.5924A8.49677 8.49677 0 0181.4174 83.041a8.70581 8.70581 0 012.45556-.2657 5.94214 5.94214 0 015.21963 2.247 1.96221 1.96221 0 01.14441 2.03407z"/><path d="M15.05451 81.00457c-.71494.93806-1.782 1.61141-2.33616 2.84117a7.385 7.385 0 004.04093-1.20985 53.40008 53.40008 0 005.8188-4.32569c.56565-.486 1.57366-.95581 1.42263-1.61757-.15649-.68566-1.27239-.50846-1.97963-.67524-.3141-.07412-.72117-.04145-.77272-.47241-.04645-.38856.28248-.56924.57171-.73192 5.22028-2.93583 12.81836-5.98532 21.10762-3.89739l-1.37578-3.5796s10.30631 6.07785 19.82044 7.65293c.75325.12467 1.50182.22319 2.23959.28617.73777-.063 1.48635-.1615 2.2396-.28617 9.51414-1.5751 19.82046-7.65293 19.82046-7.65293l-1.37582 3.57959c8.28937-2.08789 15.88739.96158 21.10766 3.89739.28918.16268.61811.34338.5717.73191-.05153.431-.45868.39829-.7727.47241-.70725.16682-1.82321-.0104-1.97963.67524-.1511.66176.857 1.13157 1.42263 1.61758a53.39566 53.39566 0 005.81881 4.32569 7.385 7.385 0 004.04093 1.20985c-.55421-1.22976-1.62123-1.90311-2.33622-2.84118-.71279-.93518-1.50431-1.81331-2.21422-2.75041-.52049-.687-.24655-1.06637.58655-.98946.75918.07 1.509.239 2.26257.36648.40694.06884.889.344 1.15408-.15956.21971-.41731-.06012-.8132-.32782-1.1457-.82782-1.02835-1.68-2.038-2.503-3.07-.79359-.995-1.53618-2.02955-2.34717-3.01055-2.59539-3.13926-2.699-6.67453-1.30934-10.19413a46.22327 46.22327 0 002.7626-21.07422c-.1129-1.39656-.17828-2.79771-.323-4.19112-.2722-2.62162-1.82562-4.10484-4.51745-4.437-2.438-.30088-4.59391.61095-6.80312 1.383-5.884 2.056-14.21522 8.36865-19.21727 12.65529-.30661.26275-.60392.51985-.88418.76592l-14.8766-.372-14.8766.3719c-.28026-.24609-.57757-.50319-.88425-.76592-5.002-4.28668-13.33323-10.59929-19.21723-12.65529-2.20928-.772-4.36511-1.68389-6.80311-1.383-2.69183.33218-4.24533 1.8154-4.51745 4.437-.14472 1.39341-.21011 2.79451-.323 4.19112a46.22247 46.22247 0 002.76257 21.07423c1.38971 3.5196 1.286 7.05487-1.30936 10.19413-.811.981-1.55361 2.01556-2.34715 3.01055-.823 1.032-1.67517 2.04171-2.503 3.07-.2677.33251-.54757.7284-.32783 1.14571.2651.50348.74715.22839 1.1541.15955.75357-.12748 1.50336-.29646 2.26256-.36648.83306-.07691 1.107.30245.58654.98946-.70992.9372-1.50145 1.81533-2.21427 2.75052zm88.99692-41.33938L99.02284 48.172l4.92388.771-4.78379 5.1529-1.401 6.80922-1.45484-4.755-4.491.18747 3.01316-6.16875L87.658 48.172zM39.566 48.172l-7.17129 1.99681 3.01315 6.16875-4.491-.18753-1.45486 4.75513-1.401-6.80924-4.7838-5.15292 4.9238-.771-5.02858-8.50685zm32.46627 55.87805a14.89275 14.89275 0 00-8.42031-3.03163 14.89275 14.89275 0 00-8.42031 3.03163 2.95856 2.95856 0 00-1.25455 2.87612 2.86252 2.86252 0 001.5827 2.60282 2.30841 2.30841 0 00.82561.3083c.53586.0449 1.08772.01862 1.99194.01526h.00983c.05244-.0002.09349-.001.14835-.001 1.563-.33728 2.94106.94423 4.0213 3.24984.38021.81128.73822 1.25078 1.09513 1.36088.35691-.1101.71493-.5496 1.09507-1.36088 1.08031-2.30564 2.45836-3.58715 4.02129-3.24984.05493 0 .096.00078.14842.001h.00983c.90425.00332 1.45607.02961 1.99194-.01526a2.30848 2.30848 0 00.82561-.3083 2.86266 2.86266 0 001.58271-2.60282 2.9587 2.9587 0 00-1.25456-2.87612z"/></svg>