<svg xmlns="http://www.w3.org/2000/svg" aria-label="QQ" viewBox="0 0 512 512"><rect width="512" height="512" rx="0" fill="currentColor"/><path class="inner-color" d="M261 398a57 32 0 0 0 114 0 57 32 0 0 0-114 0zm-124 0a57 32 0 0 0 114 0 57 32 0 0 0-114 0z" fill="#FFF"/><path class="inner-color" d="M375.444 228.56v-56a119 119 0 0 0-237 0v56c-18 25-35 55-37 78 0 44 13 40 13 40 5 0 15-9 23-20 19 55 65 93 120 93s101-38 120-93c8 11 18 20 23 20 0 0 13 4 13-40 0-23-17-54-37-78h-1z" fill="#FFF"/><path class="inner-color" d="M371.718 208a235 225 0 0 1-230 0c-10-7-15-2-19 12s-6 18 6 26l32 15c-6 32-5 63-5 65 1 13 12 12 27 12 14-1 26 0 26-15 0-8 0-27 3-46 15 3 29 5 46 5 67 0 126-35 127-36l-13-38z" fill="#FFF"/></svg>