<svg xmlns="http://www.w3.org/2000/svg" aria-label="LF Artwork" viewBox="0 0 512 512"><rect width="512" rx="0" height="512"/><g stroke="null" fill="#FFF"><path d="M112.19 327.61H57.672v127.057h127.057v-54.415h-72.537V327.61zm272.147.407v72.235h-72.235l-.302-.407v54.822h126.952V327.61H383.93l.407.407zM57.671 200.643h54.927l-.407-.407V128h72.13l.407.407V73.586H57.671v127.057z"/><g opacity=".6"><path d="M232.418 128h37.256l56.163-54.414H184.728v54.821m79.277 271.845h-79.277v54.415H311.8v-54.822m72.13-72.235h54.822V172.569l-54.415 56.163v51.188m-271.74-79.277H57.672V327.61h54.52v-79.277"/></g><g><path d="M150.31 357.421c1.219-3.88 1.8-7.902 2.625-11.868q8.719-41.92 17.367-83.856c.517-2.502 1.045-5.002 1.596-7.636.233.246.381.34.441.474a22.587 22.587 0 0 0 18.647 12.947 28.668 28.668 0 0 0 4.767.385c1.286-.008 1.519.388 1.398 1.635a41.005 41.005 0 0 0 3.094 20.67 33.577 33.577 0 0 0 24.06 19.305 64.83 64.83 0 0 0 14.879 1.845c.81.018 1.39-.013 1.433 1.18a20.126 20.126 0 0 0 16.332 20.09c.36.098.786.024 1.15.576-3.977.931-7.884 1.85-11.792 2.762q-47.393 11.062-94.787 22.12c-.315.074-.67.038-.88.362-.71-.13-.17-.678-.33-.99z"/><path d="M235.043 295.21a23.748 23.748 0 0 1-21.996-14.466 23.2 23.2 0 0 1 4.834-25.398c9.059-9.172 18.212-18.25 27.327-27.365q64.976-64.978 129.926-129.982c1.16-1.164 1.707-1.19 2.878-.006q15.228 15.39 30.609 30.627c.943.937 1.047 1.396.043 2.4Q330.09 209.507 251.58 288.061a23.588 23.588 0 0 1-16.537 7.148zm239.24-188.574a32.32 32.32 0 0 1-9.132 21.638c-5.466 5.744-11.2 11.233-16.753 16.895-1.11 1.131-1.486.096-2.022-.44q-26.304-26.273-52.585-52.568-15.892-15.89-31.8-31.762c-.877-.873-1.023-1.348-.05-2.298 5.198-5.082 10.289-10.275 15.47-15.375a33.882 33.882 0 0 1 48.589.079q19.108 18.98 38.091 38.087a34.61 34.61 0 0 1 10.192 25.744zm-276.62 144.413a11.68 11.68 0 0 1-10.206-7.383 12.133 12.133 0 0 1 2.123-13.687c.287-.334.598-.647.91-.959q78.706-78.694 157.415-157.386c.272-.272.583-.51.83-.804.749-.889 1.326-.739 2.121.067q7.834 7.937 15.774 15.77c.718.709.8 1.204.07 1.874-.446.409-.839.874-1.267 1.303q-78.348 78.35-156.687 156.712a14.175 14.175 0 0 1-11.083 4.493zm57.355 56.042a12.28 12.28 0 0 1 3.338-8.555c.445-.489.915-.955 1.382-1.422l156.35-156.375c2.303-2.303 2.304-2.304 4.559-.05 4.831 4.83 9.639 9.684 14.514 14.468.878.862.983 1.458.047 2.243-.378.316-.697.704-1.047 1.055Q355.745 236.873 277.34 315.3a12.672 12.672 0 0 1-14.435 3.507 12.332 12.332 0 0 1-7.887-11.716z"/></g></g></svg>