<svg xmlns="http://www.w3.org/2000/svg" viewBox="-10.23 -10.23 531.96 531.96" aria-label="Devstats"><path fill="none" d="M-1-1h582v402H-1z"/><rect width="512" height="512" rx="0"/><path fill="#FFF" d="M285.9 116c.1 1.8.3 3.7.3 5.5v136.3c0 6.6 0 6.6-6.4 6.7-11.8 0-23.6-.1-35.4 0-3.3 0-4.8-.9-4.8-4.6.1-47.1.1-94.3.1-141.4 0-.8.2-1.7.2-2.5h46zm-56.8 91.6v51.1c0 5.8 0 5.8-5.6 5.8-12.1 0-24.1-.1-36.2.1-3.8.1-4.9-1.3-4.9-5 .1-34.6.1-69.3 0-103.9 0-3.6 1-5.1 4.8-5 12.3.2 24.7.2 37 0 3.8-.1 4.9 1.3 4.8 5 0 17.3.1 34.6.1 51.9zM172 223c0 12.2-.1 24.4.1 36.6.1 3.7-1.1 5-4.9 4.9-12.3-.2-24.7-.2-37 0-3.8.1-4.8-1.4-4.8-5 .1-24.4.1-48.8 0-73.2 0-3.5 1.2-4.8 4.7-4.8 12.5.1 25 .1 37.4 0 3.6 0 4.6 1.4 4.6 4.8-.2 12.3-.1 24.5-.1 36.7z"/><path fill="#FFF" stroke="null" d="M44.9 443.5v-6.3c9.5-27.8 19.4-55.5 28.2-83.5 3-9.3 7.5-12.4 17.2-12.3 109.9.3 219.8.3 329.7 0 9.7 0 14.3 3 17.2 12.3 8.9 28 18.8 55.7 28.3 83.5v6.3c-4.2.3-8.3.8-12.5.8H57.4c-4.2 0-8.4-.5-12.5-.8zM256.2 55.7h154.5c17.1 0 23.2 5.5 23.2 22.4.2 74.6.2 149.3 0 223.9 0 16.9-6.1 22.4-23.3 22.4H99.4c-17.1 0-23.2-5.6-23.2-22.4-.2-74.6-.2-149.3 0-223.9 0-16.8 6.2-22.3 23.3-22.3 52.3-.2 104.5-.1 156.7-.1zm-1.1 242.2h145.1c13.7 0 14.2-.5 14.2-14.2V96.5c0-13.8-.7-14.6-14-14.6H110.2c-13.5 0-14.2.8-14.2 14.4v187.2c0 14.1.3 14.4 15.1 14.4h144z"/></svg>