<svg xmlns="http://www.w3.org/2000/svg" width="512" height="512" viewBox="0 0 512 512" aria-label="Website"><rect fill="currentColor" rx="0" height="512" width="512"/><path fill="#fff" d="M166.331 204.513a97.227 97.227 0 0 1 21.782-16.397c43.548-23.999 99.39-11.238 127.387 31.21l-33.88 33.864c-9.714-22.159-33.834-34.77-57.833-29.4a50.235 50.235 0 0 0-24.633 13.546l-64.922 64.953c-19.716 19.715-19.716 51.785 0 71.5 19.715 19.715 51.784 19.715 71.5 0l20.016-20.017c18.207 7.225 37.726 10.106 57.004 8.673l-44.182 44.182c-37.877 37.877-99.285 37.877-137.162 0s-37.876-99.285 0-137.161l64.923-64.953zm103.116-103.116l-44.182 44.182a128.73 128.73 0 0 1 57.004 8.658l20.002-20.002c19.715-19.715 51.784-19.715 71.5 0 19.714 19.715 19.714 51.785 0 71.5l-64.939 64.938c-19.775 19.775-51.89 19.61-71.5 0-4.57-4.57-8.507-10.258-10.966-15.854l-33.879 33.864c3.56 5.4 7.256 10.061 12.007 14.813 12.249 12.248 27.846 21.374 45.796 25.704 23.26 5.596 48.18 2.504 69.584-9.307a97.225 97.225 0 0 0 21.782-16.397l64.922-64.938c37.892-37.877 37.892-99.285.016-137.161-37.877-37.862-99.27-37.862-137.147 0z"/></svg>