<svg xmlns="http://www.w3.org/2000/svg" width="512" height="512" aria-label="Gitter" viewBox="0 0 512 512"><rect width="512" height="512" rx="0" fill="currentColor"/>
<path stroke="#fff" fill="#fff" d="M189.043 281.8c0-57.955.308-115.91-.242-173.857-.121-12.687 4.055-16.892 16.621-16.603 35.657.82 29.934-2.62 30.008 30.437q.354 166.614.075 333.219c0 17.34-.084 17.526-17.498 17.404-32.646-.233-28.815 3.86-28.926-28.6-.168-54.003-.047-107.997-.038-162zm89.446-.037c0-57.955.326-115.911-.242-173.857-.131-12.706 3.99-16.855 16.556-16.566 35.219.811 30.035-2.638 30.091 30.474q.299 165.953.066 331.905c0 18.663-.066 18.83-19.12 18.69-31.378-.242-27.165 3.478-27.286-27.332-.224-54.441-.065-108.882-.065-163.323v.01zM104.333 165.731c.01-41.717.41-83.433-.233-125.14-.186-12.305 4.093-15.913 15.922-15.568 35.229.988 30.642-4.204 30.735 31.024.215 78.156.084 156.313.047 234.479 0 17.18-.429 17.61-17.805 17.647-33.895.065-28.377 1.258-28.591-27.836-.28-38.202-.065-76.404-.065-114.606h-.01zm258.857 33.485c.009-31.164.251-62.337-.13-93.501-.122-9.9 3.02-14.403 13.516-14.272 39.712.475 32.758-3.142 32.991 31.34.382 55.747.121 111.493.093 167.24-.009 17.767-.251 18.103-17.246 18.131-33.997.065-28.917 1.883-29.178-28.619-.233-26.764-.046-53.546-.046-80.32z" /></svg>