<svg xmlns="http://www.w3.org/2000/svg" viewBox="-0.51 -0.26 26.45 26.45" aria-label="Facebook"><path fill="currentColor" d="M25.497 13.075c0-2.45-.698-4.848-2.011-6.911a12.765 12.765 0 0 0-5.398-4.73A12.671 12.671 0 0 0 11.008.38a12.705 12.705 0 0 0-6.529 2.95A12.827 12.827 0 0 0 .563 9.358a12.896 12.896 0 0 0-.07 7.201 12.831 12.831 0 0 0 3.801 6.103 12.709 12.709 0 0 0 6.471 3.078v-8.957H7.53v-3.708h3.235v-2.824c0-3.213 1.903-4.988 4.813-4.988.956.014 1.909.097 2.852.25V8.67h-1.607a1.83 1.83 0 0 0-1.518.497 1.854 1.854 0 0 0-.561 1.505v2.404h3.535l-.563 3.708h-2.97v8.957a12.725 12.725 0 0 0 7.697-4.337 12.87 12.87 0 0 0 3.054-8.328z"/></svg>