<svg xmlns="http://www.w3.org/2000/svg" viewBox="-0.1 0.21 24.7 24.14" aria-label="GitHub"><path fill="currentColor" d="M24.188 12.63A11.893 11.893 0 0 0 3.887 4.221a11.893 11.893 0 0 0-1.272 15.317 11.899 11.899 0 0 0 5.81 4.34 1.14 1.14 0 0 0 .612-.885c0-.654-.014-2.337-.014-2.337-.415.061-.834.09-1.253.088a2.692 2.692 0 0 1-2.722-1.837 3.22 3.22 0 0 0-1.336-1.585c-.308-.198-.379-.431-.023-.498 1.643-.308 2.064 1.853 3.16 2.198.76.236 1.58.17 2.293-.183.1-.614.44-1.165.943-1.531-2.791-.267-4.446-1.232-5.304-2.781l-.092-.174-.216-.492-.064-.176a8.34 8.34 0 0 1-.386-2.694A4.596 4.596 0 0 1 5.334 7.58a4.765 4.765 0 0 1 .207-3.43s1.208-.248 3.492 1.378c1.237-.528 4.538-.571 6.1-.117.957-.63 2.71-1.524 3.417-1.274.193.307.604 1.2.25 3.164a5.523 5.523 0 0 1 1.493 3.942 10.198 10.198 0 0 1-.305 2.444l-.103.349s-.06.165-.123.322l-.075.173c-.828 1.809-2.527 2.484-5.274 2.766.89.557 1.144 1.256 1.144 3.146s-.025 2.144-.02 2.578a1.199 1.199 0 0 0 .59.87 11.9 11.9 0 0 0 8.06-11.26z"/></svg>