<svg xmlns="http://www.w3.org/2000/svg" viewBox="-0.34 -0.47 27.43 25.68" aria-label="Meetup"><path fill="currentColor" d="M1.327 10.833a1.091 1.091 0 0 0-.767.305 1.047 1.047 0 0 0-.316.75 1.025 1.025 0 0 0 .306.754 1.066 1.066 0 0 0 .764.313 1.093 1.093 0 0 0 .78-.305 1.05 1.05 0 0 0 0-1.51 1.078 1.078 0 0 0-.767-.307zm3.356 8.822a.497.497 0 0 0-.342.146.475.475 0 0 0-.138.34.463.463 0 0 0 .14.349.483.483 0 0 0 .356.138.491.491 0 0 0 .355-.142.47.47 0 0 0 .137-.35.473.473 0 0 0-.15-.345.495.495 0 0 0-.358-.136zm8.077 3.723a.7.7 0 0 0-.499.2.672.672 0 0 0 .01.965.707.707 0 0 0 .987-.007.672.672 0 0 0 .196-.491.646.646 0 0 0-.202-.479.673.673 0 0 0-.492-.188zM5.507 5.688a.816.816 0 0 0 .587-.227.783.783 0 0 0 .236-.573.785.785 0 0 0-.238-.573.817.817 0 0 0-.584-.235.83.83 0 0 0-.574.235.795.795 0 0 0-.241.56.777.777 0 0 0 .23.577.808.808 0 0 0 .584.237zm9.443-2.785a1.08 1.08 0 0 0 .775-.282 1.038 1.038 0 0 0 .333-.742 1.026 1.026 0 0 0-.293-.758 1.066 1.066 0 0 0-.757-.326 1.085 1.085 0 0 0-.764.286 1.044 1.044 0 0 0-.332.733 1.02 1.02 0 0 0 .284.76 1.06 1.06 0 0 0 .754.329zM7.904 1.22a.57.57 0 0 0 .403-.16.546.546 0 0 0 .165-.393.542.542 0 0 0-.16-.396.564.564 0 0 0-.399-.167.58.58 0 0 0-.413.161.557.557 0 0 0-.125.616.553.553 0 0 0 .31.299c.07.027.144.04.219.04zm11.825 20.1c-.302 0-.59.117-.804.326a1.104 1.104 0 0 0-.333.787 1.077 1.077 0 0 0 .323.79 1.122 1.122 0 0 0 .802.327 1.14 1.14 0 0 0 .807-.311 1.095 1.095 0 0 0 .337-.783 1.097 1.097 0 0 0-.324-.8 1.142 1.142 0 0 0-.808-.337zm6.354-11.359a.496.496 0 0 0-.355.14.477.477 0 0 0-.143.347.47.47 0 0 0 .14.349.487.487 0 0 0 .354.142.498.498 0 0 0 .355-.14.478.478 0 0 0 .143-.348.466.466 0 0 0-.14-.349.487.487 0 0 0-.355-.141zm-1.346 3.124a.68.68 0 0 0-.478.191.653.653 0 0 0-.195.468.641.641 0 0 0 .189.47.666.666 0 0 0 .476.197.683.683 0 0 0 .482-.183.655.655 0 0 0 .013-.945.675.675 0 0 0-.487-.198zm-1.66-6.442a.91.91 0 0 0-.648.265.874.874 0 0 0-.254.642.88.88 0 0 0 .27.626.918.918 0 0 0 .642.257.929.929 0 0 0 .65-.264.891.891 0 0 0-.66-1.526zM21.44 9.01a.223.223 0 0 1-.14-.093.215.215 0 0 1-.033-.163 4.719 4.719 0 0 0-.764-2.764 4.832 4.832 0 0 0-1.504-1.466 4.976 4.976 0 0 0-4.11-.508.408.408 0 0 1-.355-.047 5.504 5.504 0 0 0-4.105-.617A5.428 5.428 0 0 0 8.132 4.47a5.28 5.28 0 0 0-1.508 2.032.366.366 0 0 1-.306.238 3.43 3.43 0 0 0-.595.156 3.683 3.683 0 0 0-1.317.832 3.59 3.59 0 0 0-.843 1.295 3.53 3.53 0 0 0 .238 2.992.231.231 0 0 1 .018.264.234.234 0 0 1-.065.07 3.796 3.796 0 0 0-1.15 2.674 3.81 3.81 0 0 0 .854 2.47A3.956 3.956 0 0 0 5.72 18.87c.162.035.23.085.244.263a3.98 3.98 0 0 0 .439 1.59 4.06 4.06 0 0 0 1.049 1.288 4.295 4.295 0 0 0 2.576.99 4.308 4.308 0 0 0 2.653-.776c.134-.096.207-.104.336-.003a3.13 3.13 0 0 0 2.521.63 3.067 3.067 0 0 0 1.532-.686 2.97 2.97 0 0 0 .923-1.38.32.32 0 0 1 .131-.206.331.331 0 0 1 .24-.057c.292 0 .582-.03.867-.088a4.71 4.71 0 0 0 1.964-.909 4.588 4.588 0 0 0 1.333-1.68 4.491 4.491 0 0 0-.188-4.135.244.244 0 0 1-.02-.287.25.25 0 0 1 .072-.074c.248-.23.448-.507.585-.813a2.47 2.47 0 0 0 .217-.973A2.542 2.542 0 0 0 22.748 10a2.628 2.628 0 0 0-1.309-.992zm-3.107 8.813a7.502 7.502 0 0 1-.832.153c-.423-.077-.884-.125-1.325-.247a2.205 2.205 0 0 1-.827-.417 2.152 2.152 0 0 1-.576-.715 2.109 2.109 0 0 1-.047-1.78c.464-1.067 1.003-2.102 1.503-3.154.11-.233.207-.473.288-.717a.37.37 0 0 0-.126-.468.444.444 0 0 0-.562.102 2.635 2.635 0 0 0-.353.516c-.77 1.473-1.532 2.95-2.298 4.423a1.227 1.227 0 0 1-1.035.763c-.75.057-1.16-.436-.894-1.124.4-1.04.835-2.068 1.245-3.104.076-.187.126-.383.147-.583a.518.518 0 0 0-.07-.383.538.538 0 0 0-.32-.231.616.616 0 0 0-.398.078.596.596 0 0 0-.259.307c-.249.593-.49 1.186-.73 1.78a2338.9 2338.9 0 0 0-1.279 3.158 8.25 8.25 0 0 1-.09.211 1.51 1.51 0 0 1-.329.556 1.575 1.575 0 0 1-1.816.347 1.659 1.659 0 0 1-.576-.29 1.62 1.62 0 0 1-.417-.488 1.588 1.588 0 0 1-.13-1.24c.565-1.9 1.127-3.804 1.856-5.654a2.38 2.38 0 0 1 .595-.95c.272-.267.604-.466.97-.583a1.701 1.701 0 0 1 1.303.066c.312.15.633.284.943.44a.597.597 0 0 0 .66-.042c.207-.148.402-.309.586-.483a1.376 1.376 0 0 1 1.884.028.744.744 0 0 0 .497.322.767.767 0 0 0 .58-.133 1.996 1.996 0 0 1 1.77.066c.287.166.514.414.65.711.137.297.177.628.115.948a9.792 9.792 0 0 1-.769 2.116c-.346.806-.704 1.61-1.01 2.43a3.988 3.988 0 0 0-.196 1.101.585.585 0 0 0 .118.427.608.608 0 0 0 .387.229c.23.066.471.089.71.131.146.024.291.055.435.094.147.031.28.113.372.23a.62.62 0 0 1 .133.41.594.594 0 0 1-.117.411.616.616 0 0 1-.366.232z"/><path fill="currentColor" d="M19.717 23.551a1.142 1.142 0 0 1-.802-.327 1.097 1.097 0 0 1-.323-.79c0-.295.12-.578.333-.787a1.15 1.15 0 0 1 1.613.01 1.114 1.114 0 0 1 .237 1.225 1.095 1.095 0 0 1-.621.594 1.14 1.14 0 0 1-.437.075zM.245 11.889a1.03 1.03 0 0 1 .316-.75 1.073 1.073 0 0 1 .767-.305 1.096 1.096 0 0 1 .766.307 1.055 1.055 0 0 1-.357 1.738 1.093 1.093 0 0 1-.422.075 1.086 1.086 0 0 1-.764-.312 1.043 1.043 0 0 1-.306-.753zm15.812-10.01a1.022 1.022 0 0 1-.332.742 1.063 1.063 0 0 1-.776.282 1.078 1.078 0 0 1-.754-.33 1.034 1.034 0 0 1-.284-.76 1.024 1.024 0 0 1 .333-.73 1.068 1.068 0 0 1 .764-.286 1.086 1.086 0 0 1 .756.326 1.044 1.044 0 0 1 .293.757zm7.02 4.765a.915.915 0 0 1 .656.251.88.88 0 0 1 .203.982.891.891 0 0 1-.496.49.929.929 0 0 1-.353.067.918.918 0 0 1-.642-.257.88.88 0 0 1-.27-.626.86.86 0 0 1 .254-.642.894.894 0 0 1 .649-.265zM6.33 4.888a.77.77 0 0 1-.236.573.803.803 0 0 1-.587.228.823.823 0 0 1-.583-.237.79.79 0 0 1-.231-.576.795.795 0 0 1 .24-.561.83.83 0 0 1 1.337.263.8.8 0 0 1 .06.31zm7.124 19.157a.662.662 0 0 1-.196.491.687.687 0 0 1-.497.203.707.707 0 0 1-.49-.196.678.678 0 0 1-.01-.966.687.687 0 0 1 .499-.199.686.686 0 0 1 .492.189.659.659 0 0 1 .202.478zm11.273-9.632a.678.678 0 0 1-.476-.197.652.652 0 0 1-.19-.47.642.642 0 0 1 .196-.468.67.67 0 0 1 .478-.191.687.687 0 0 1 .486.198.66.66 0 0 1-.235 1.083.68.68 0 0 1-.26.045zM8.472.67a.537.537 0 0 1-.165.394.56.56 0 0 1-.403.159.575.575 0 0 1-.404-.159.553.553 0 0 1 .19-.918.58.58 0 0 1 .223-.04.573.573 0 0 1 .4.168.55.55 0 0 1 .159.396zm17.61 9.292a.496.496 0 0 1 .355.141.475.475 0 0 1 .14.349.47.47 0 0 1-.143.348.488.488 0 0 1-.355.14.495.495 0 0 1-.354-.142.477.477 0 0 1-.14-.349.468.468 0 0 1 .143-.347.488.488 0 0 1 .354-.14zM5.192 20.139a.463.463 0 0 1-.137.35.483.483 0 0 1-.355.142.49.49 0 0 1-.355-.139.471.471 0 0 1-.14-.348.469.469 0 0 1 .137-.34.487.487 0 0 1 .342-.146.502.502 0 0 1 .358.136.482.482 0 0 1 .15.345z"/></svg>