<svg xmlns="http://www.w3.org/2000/svg" viewBox="0.16 -0.03 21.19 21.19" aria-label="Slack"><path fill="currentColor" d="M4.896 13.27a2.147 2.147 0 0 1-2.141 2.142A2.147 2.147 0 0 1 .613 13.27c0-1.178.963-2.141 2.142-2.141h2.141v2.141zm1.08 0c0-1.178.962-2.141 2.141-2.141s2.142.963 2.142 2.141v5.363a2.147 2.147 0 0 1-2.142 2.141 2.147 2.147 0 0 1-2.141-2.142V13.27zm2.141-8.6a2.147 2.147 0 0 1-2.141-2.14c0-1.18.962-2.142 2.141-2.142s2.142.963 2.142 2.141v2.142H8.117zm0 1.08c1.179 0 2.141.962 2.141 2.141a2.147 2.147 0 0 1-2.141 2.142H2.755A2.147 2.147 0 0 1 .613 7.89c0-1.179.963-2.141 2.142-2.141h5.362zm8.599 2.141c0-1.179.963-2.141 2.141-2.141 1.179 0 2.143.962 2.143 2.14a2.147 2.147 0 0 1-2.142 2.142h-2.141V7.89zm-1.08 0a2.147 2.147 0 0 1-2.141 2.142 2.147 2.147 0 0 1-2.141-2.142V2.53c0-1.178.962-2.141 2.141-2.141s2.142.963 2.142 2.141v5.362zm-2.141 8.6c1.179 0 2.142.962 2.142 2.14a2.147 2.147 0 0 1-2.142 2.142 2.147 2.147 0 0 1-2.141-2.141V16.49h2.141zm0-1.08a2.147 2.147 0 0 1-2.141-2.141c0-1.179.962-2.142 2.141-2.142h5.362c1.179 0 2.142.963 2.142 2.142a2.147 2.147 0 0 1-2.142 2.142h-5.362z"/></svg>