<svg xmlns="http://www.w3.org/2000/svg" viewBox="-0.05 0.08 21.22 22.04" aria-label="Twitch"><path fill="currentColor" d="M.402 18.929V4.189c.045-.067.084-.137.118-.21.436-1.158.871-2.316 1.304-3.475h18.98v12.968c-.112.081-.22.168-.323.26-1.66 1.651-3.318 3.305-4.973 4.962a.795.795 0 0 1-.623.257 132.09 132.09 0 0 0-3.482.006.896.896 0 0 0-.553.23c-.793.761-1.557 1.553-2.35 2.313a.913.913 0 0 1-.553.224c-.675.026-1.35.011-2.026.01-.124 0-.247-.016-.408-.027V18.97c-.204-.01-.365-.022-.53-.023-1.526-.007-3.053-.013-4.58-.018zM3.664 2.33v13.435h.439c1.125 0 2.25.006 3.375-.005.248 0 .332.077.328.323-.013.661-.006 1.323 0 1.983 0 .123.015.245.028.45.16-.148.255-.231.345-.32.737-.734 1.466-1.477 2.218-2.196a.884.884 0 0 1 .55-.226c1.492-.018 2.985-.004 4.477-.019a.782.782 0 0 0 .49-.2c.953-.923 1.88-1.866 2.825-2.79a.748.748 0 0 0 .24-.59c-.007-3.131-.009-6.26-.005-9.386 0-.456 0-.456-.465-.456H3.667l-.003-.003z"/><path fill="currentColor" d="M15.654 6.063c.01.152.022.255.022.359 0 1.59-.005 3.182.006 4.773 0 .272-.064.38-.354.367-.458-.022-.919-.006-1.418-.006-.01-.137-.025-.246-.025-.358 0-1.592.004-3.183-.006-4.774 0-.265.051-.384.35-.368.467.025.938.007 1.425.007zm-5.082 2.732c0 .802-.01 1.604.006 2.406.005.283-.094.374-.37.36a12.659 12.659 0 0 0-1.1 0c-.216.007-.322-.05-.32-.293.007-1.64.007-3.28 0-4.92 0-.218.08-.292.291-.286.39.011.782.015 1.172 0 .252-.01.328.086.325.329-.01.799-.004 1.601-.004 2.404z"/></svg>