<svg xmlns="http://www.w3.org/2000/svg" viewBox="0.14 -0.17 38.02 33.02" aria-label="Wechat"><path fill="currentColor" d="M26.289 10.976a12.972 12.972 0 0 0-8.742 3.53 10.386 10.386 0 0 0-3.224 8.795c-1.326-.164-2.535-.345-3.75-.448a2.332 2.332 0 0 0-1.273.216c-1.18.666-2.311 1.418-3.652 2.255.246-1.112.405-2.087.687-3.024a1.15 1.15 0 0 0-.523-1.52C1.737 17.902.02 13.601 1.307 9.165c1.189-4.1 4.11-6.587 8.077-7.884A13.54 13.54 0 0 1 24.18 5.617a10.135 10.135 0 0 1 2.109 5.359zM10.668 9.594a1.564 1.564 0 0 0-2.095-1.472 1.52 1.52 0 0 0-.895 1.964 1.502 1.502 0 0 0 1.391.966 1.545 1.545 0 0 0 1.598-1.46v.002zm8.15-1.566a1.567 1.567 0 0 0-1.528 1.543 1.528 1.528 0 0 0 1.571 1.492 1.52 1.52 0 0 0 1.375-2.117 1.518 1.518 0 0 0-1.415-.919l-.003.001z"/><path fill="currentColor" d="M33.914 32.137c-1.075-.478-2.062-1.196-3.11-1.306-1.049-.11-2.145.494-3.24.605a10.821 10.821 0 0 1-8.781-2.864c-4.682-4.33-4.013-10.97 1.403-14.518 4.811-3.154 11.874-2.102 15.268 2.273a8.671 8.671 0 0 1-1.002 12.095c-1.046.929-1.422 1.693-.751 2.917.102.257.174.525.213.798zM21.68 20.292a1.264 1.264 0 1 0 .01-2.528 1.264 1.264 0 0 0-.01 2.528zm7.887-2.526a1.266 1.266 0 0 0-1.256 1.21 1.247 1.247 0 1 0 1.256-1.21z"/></svg>