<svg xmlns="http://www.w3.org/2000/svg" viewBox="0.21 0.27 34.45 25.07" aria-label="YouTube"><path fill="currentColor" d="M33.729 6.084s-.327-2.33-1.317-3.356a4.691 4.691 0 0 0-3.32-1.432c-4.634-.34-11.589-.34-11.589-.34h-.014s-6.954 0-11.59.342a4.692 4.692 0 0 0-3.32 1.432c-.993 1.025-1.315 3.354-1.315 3.354a52.189 52.189 0 0 0-.331 5.473v2.566c.014 1.829.125 3.656.331 5.472 0 0 .322 2.33 1.316 3.36 1.26 1.345 2.916 1.3 3.653 1.445 2.65.26 11.263.34 11.263.34s6.96-.01 11.597-.353a4.691 4.691 0 0 0 3.32-1.432c.993-1.026 1.316-3.356 1.316-3.356.206-1.817.316-3.644.33-5.473v-2.57a52.26 52.26 0 0 0-.33-5.472zM14.076 17.232V7.729l8.951 4.768-8.95 4.735z"/></svg>